<svg width="29" height="29" viewBox="0 0 29 29" fill="none" xmlns="http://www.w3.org/2000/svg">
<path d="M14.4998 2.41669C7.82984 2.41669 2.4165 7.83002 2.4165 14.5C2.4165 21.17 7.82984 26.5834 14.4998 26.5834H20.5415V24.1667H14.4998C9.25567 24.1667 4.83317 19.7442 4.83317 14.5C4.83317 9.25585 9.25567 4.83335 14.4998 4.83335C19.744 4.83335 24.1665 9.25585 24.1665 14.5V16.2279C24.1665 17.1825 23.3086 18.125 22.354 18.125C21.3994 18.125 20.5415 17.1825 20.5415 16.2279V14.5C20.5415 11.165 17.8348 8.45835 14.4998 8.45835C11.1648 8.45835 8.45817 11.165 8.45817 14.5C8.45817 17.835 11.1648 20.5417 14.4998 20.5417C16.1673 20.5417 17.6898 19.865 18.7773 18.7654C19.5628 19.8409 20.9161 20.5417 22.354 20.5417C24.7344 20.5417 26.5832 18.6084 26.5832 16.2279V14.5C26.5832 7.83002 21.1698 2.41669 14.4998 2.41669ZM14.4998 18.125C12.494 18.125 10.8748 16.5059 10.8748 14.5C10.8748 12.4942 12.494 10.875 14.4998 10.875C16.5057 10.875 18.1248 12.4942 18.1248 14.5C18.1248 16.5059 16.5057 18.125 14.4998 18.125Z" fill="#343434"/>
</svg>
