<svg viewBox="0 0 507 375" fill="none" xmlns="http://www.w3.org/2000/svg">
<path d="M123.562 36.5769C123.562 38.0267 123.654 38.0267 123.654 39.4039V42.2309C123.654 43.6807 123.562 43.6807 123.562 45.0579C123.574 45.9153 123.245 46.7423 122.648 47.3582C122.009 47.9043 121.278 48.4552 120.364 48.4552H117.461C116.01 48.4552 116.01 48.2715 114.559 48.2715C113.107 48.2715 113.107 48.4552 111.729 48.4552C110.277 48.4552 110.277 48.3633 108.826 48.3633H105.923C104.472 48.3633 104.472 48.4552 103.021 48.4552C102.214 48.4482 101.434 48.739 100.829 49.2718C100.537 49.5576 100.306 49.8991 100.149 50.276C99.9917 50.6529 99.9121 51.0575 99.9148 51.4658C99.9148 52.9155 100.007 52.9155 100.007 54.2928C100.007 55.7425 99.9148 55.7425 99.9148 57.1198C99.9148 58.5695 99.8229 58.5695 99.8229 60.0193C99.8229 61.3869 100.007 61.3869 100.007 62.8463V65.6733C100.007 67.123 99.9148 67.123 99.9148 68.5003V74.1591C99.9148 75.6088 99.8229 75.6088 99.8229 77.0586C99.8229 78.4262 99.7309 78.4262 99.7309 79.8856V82.7126C99.7309 84.1623 99.9148 84.1623 99.9148 85.5396V88.3666C99.9148 89.8163 99.7309 89.8163 99.7309 91.1936C99.7309 92.6433 99.8229 92.6433 99.8229 94.093C99.8203 94.9151 99.4923 95.7027 98.9104 96.284C98.3285 96.8653 97.5399 97.1929 96.717 97.1955C95.2657 97.1955 95.2657 97.3791 93.8869 97.3791C92.4356 97.3791 92.4356 97.2873 91.0568 97.2873C89.6055 97.2873 89.6055 97.3791 88.2267 97.3791C87.3123 97.3791 86.6738 96.7412 86.1271 96.1952C85.8153 95.94 85.5635 95.6194 85.3896 95.2561C85.2157 94.8928 85.1239 94.4957 85.1208 94.093V91.1936C85.1208 89.826 84.937 89.826 84.937 88.3666C84.937 86.9072 85.2128 86.9168 85.2128 85.5396C85.2128 84.0898 85.0289 84.0898 85.0289 82.7126C85.0289 81.2628 84.937 81.2628 84.937 79.8131C84.937 78.4455 85.1208 78.4455 85.1208 76.9861C85.1208 75.6185 85.2128 75.6185 85.2128 74.1591C85.2128 72.7915 84.8499 72.7915 84.8499 71.3321C84.8499 69.8727 85.0289 69.8823 85.0289 68.5003C85.0289 67.0505 85.1208 67.0505 85.1208 65.6733C85.1208 64.2235 84.937 64.2235 84.937 62.7738C84.937 61.4062 85.0289 61.4062 85.0289 59.9468V57.1198C85.0289 55.7522 84.8499 55.7522 84.8499 54.2928C84.8499 52.8334 85.2128 52.843 85.2128 51.4658C85.2051 51.0295 85.1035 50.5999 84.9148 50.2064C84.7262 49.8128 84.4549 49.4644 84.1194 49.1849C83.5679 48.547 82.7455 48.3633 81.836 48.3633C80.3846 48.3633 80.3846 48.0879 78.9333 48.0879H75.9194C74.468 48.0879 74.468 48.3633 73.0167 48.3633C71.5654 48.3633 71.5654 48.4552 70.114 48.4552C68.6627 48.4552 68.6627 48.3633 67.1001 48.3633C65.6487 48.3633 65.6487 48.4552 64.1974 48.4552C63.375 48.4552 62.5526 47.9043 61.914 47.3582C61.378 46.7243 61.1153 45.9042 61.1835 45.0773C61.1835 43.7097 60.9996 43.7097 60.9996 42.2503C60.9996 40.8827 60.9077 40.8827 60.9077 39.4233C60.9077 38.0557 61.0915 38.0557 61.0915 36.5963C61.0764 36.187 61.1504 35.7794 61.3082 35.4015C61.4661 35.0235 61.7041 34.6843 62.0059 34.4072C62.5736 33.781 63.3554 33.3896 64.1974 33.3102C65.6487 33.3102 65.6487 33.4938 67.0275 33.4938C68.4789 33.4938 68.4788 33.402 69.8576 33.402C71.2364 33.402 71.2267 33.4938 72.6877 33.4938C74.0568 33.4938 74.0568 33.3102 75.5178 33.3102C76.8869 33.3102 76.8869 33.5856 78.3479 33.5856C79.7219 33.5856 79.7219 33.3102 81.1829 33.3102H83.9211C85.3724 33.3102 85.3724 33.402 86.7512 33.402H89.5813C90.9504 33.402 90.9504 33.4938 92.4114 33.4938H98.0764C99.4455 33.4938 99.4455 33.402 100.815 33.402C102.266 33.402 102.266 33.3102 103.645 33.3102C105.096 33.3102 105.096 33.4938 106.475 33.4938C107.854 33.4938 107.844 33.3102 109.305 33.3102C110.679 33.3102 110.679 33.5856 112.14 33.5856C113.509 33.5856 113.509 33.402 114.878 33.402C116.329 33.402 116.329 33.3102 117.708 33.3102C119.159 33.3102 119.16 33.5856 120.538 33.5856C121.453 33.5856 122.367 33.6774 122.914 34.3153C123.397 34.9657 123.628 35.7695 123.562 36.5769Z" fill="white"/>
<path d="M142.008 87.0231C142.008 87.8301 142.062 87.8301 142.062 88.584C142.055 88.8305 141.999 89.0732 141.895 89.2968C141.791 89.5204 141.642 89.7203 141.457 89.8839C141.111 90.1971 140.655 90.3605 140.189 90.3382C139.381 90.3382 139.381 90.4397 138.627 90.4397C137.872 90.4397 137.819 90.2899 137.059 90.2899H135.492C135.261 90.3116 135.028 90.2821 134.81 90.2036C134.592 90.1251 134.393 89.9994 134.229 89.8356C133.886 89.5021 133.686 89.0478 133.673 88.5695V85.2399C133.673 84.3846 133.624 84.3846 133.624 83.5776C133.624 82.7705 133.673 82.7174 133.673 81.8572C133.673 80.997 133.774 81.0502 133.774 80.1948C133.774 79.3395 133.828 79.3878 133.828 78.5276C133.807 78.2918 133.738 78.0627 133.625 77.8548C133.512 77.6469 133.357 77.4647 133.17 77.3195C133.012 77.1571 132.824 77.0284 132.615 76.9412C132.406 76.854 132.182 76.81 131.955 76.8121C131.196 76.8121 131.196 76.7106 130.388 76.7106C129.58 76.7106 129.633 76.8121 128.825 76.8121C128.018 76.8121 128.066 76.8653 127.258 76.8653H125.691C124.931 76.8653 124.931 76.7638 124.123 76.7638C123.315 76.7638 123.368 76.8121 122.56 76.8121C121.753 76.8121 121.801 76.7106 120.993 76.7106C120.185 76.7106 120.234 76.7638 119.426 76.7638C118.618 76.7638 118.666 76.8121 117.858 76.8121C117.05 76.8121 117.103 76.7638 116.296 76.7638C115.818 76.7589 115.353 76.9194 114.98 77.218C114.711 77.5991 114.585 78.0631 114.627 78.5276C114.627 79.3878 114.525 79.3878 114.525 80.1948V81.9104C114.525 82.7174 114.477 82.7174 114.477 83.5776V85.2399C114.477 86.1001 114.525 86.1001 114.525 86.9071C114.525 87.7142 114.627 87.7625 114.627 88.5695C114.594 89.0378 114.376 89.474 114.022 89.7825C113.865 89.9458 113.676 90.0751 113.467 90.1624C113.259 90.2497 113.034 90.2931 112.807 90.2899C112 90.2899 112 90.3865 111.24 90.3865C110.481 90.3865 110.432 90.2899 109.673 90.2899C108.913 90.2899 108.865 90.4397 108.11 90.4397C107.631 90.3875 107.185 90.1737 106.845 89.8336C106.504 89.4936 106.29 89.0476 106.238 88.5695C106.238 87.8156 106.441 87.8156 106.441 87.0086V85.3946C106.441 84.6359 106.393 84.6359 106.393 83.8289V80.6491C106.393 79.8421 106.238 79.8421 106.238 79.035C106.238 78.228 106.393 78.228 106.393 77.4693C106.393 76.7106 106.238 76.6623 106.238 75.8553C106.238 75.0483 106.393 75.0482 106.393 74.2895C106.393 73.5308 106.339 73.4825 106.339 72.6755C106.339 71.8685 106.441 71.8685 106.441 71.1098C106.441 70.3511 106.339 70.3028 106.339 69.4957C106.339 68.6887 106.393 68.6887 106.393 67.93V64.7551C106.393 63.9481 106.441 63.9481 106.441 63.141C106.441 62.334 106.238 62.3823 106.238 61.5753C106.238 60.7683 106.393 60.7683 106.393 59.9613C106.393 59.1542 106.339 59.2026 106.339 58.3955V56.7815C106.329 56.3192 106.491 55.8696 106.794 55.5202C106.967 55.352 107.174 55.222 107.401 55.1388C107.627 55.0555 107.869 55.0208 108.11 55.037H112.807C113.259 55.0811 113.676 55.2995 113.969 55.6459C114.148 55.7835 114.296 55.9585 114.401 56.1588C114.506 56.3591 114.567 56.5798 114.578 56.8057C114.578 57.6658 114.525 57.6658 114.525 58.5212C114.525 59.3765 114.423 59.3282 114.423 60.1884C114.423 61.0486 114.477 60.9954 114.477 61.8508V63.518C114.477 64.3781 114.578 64.3781 114.578 65.1852C114.578 65.9922 114.525 66.0405 114.525 66.8475C114.513 67.0879 114.549 67.3282 114.633 67.554C114.716 67.7799 114.844 67.9867 115.009 68.162C115.366 68.449 115.818 68.592 116.276 68.5631C117.084 68.5631 117.084 68.6645 117.839 68.6645C118.593 68.6645 118.647 68.5631 119.406 68.5631C120.166 68.5631 120.214 68.6162 120.974 68.6162C121.733 68.6162 121.782 68.6645 122.541 68.6645C123.301 68.6645 123.349 68.6162 124.104 68.6162C124.858 68.6162 124.912 68.5631 125.671 68.5631C126.431 68.5631 126.479 68.6645 127.239 68.6645C127.998 68.6645 128.047 68.7177 128.806 68.7177C129.566 68.7177 129.614 68.5631 130.369 68.5631C131.123 68.5631 131.177 68.6162 131.936 68.6162C132.17 68.6064 132.399 68.547 132.609 68.442C132.818 68.3371 133.003 68.1889 133.15 68.0073C133.333 67.8682 133.485 67.6938 133.598 67.4945C133.711 67.2952 133.782 67.0752 133.808 66.8475C133.808 66.0405 133.707 66.0405 133.707 65.1852C133.707 64.3298 133.755 64.325 133.755 63.518C133.755 62.7109 133.605 62.6578 133.605 61.8508C133.605 61.0437 133.654 60.9954 133.654 60.1884C133.654 59.3814 133.605 59.3282 133.605 58.5212C133.605 57.7142 133.755 57.6658 133.755 56.8057C133.725 56.3489 133.871 55.898 134.161 55.5444C134.529 55.2387 134.995 55.0772 135.473 55.0901C136.28 55.0901 136.28 55.037 137.04 55.037C137.799 55.037 137.8 55.1385 138.607 55.1385C139.415 55.1385 139.362 54.9886 140.17 54.9886C140.658 55.0101 141.12 55.2197 141.457 55.5734C141.787 55.8942 141.983 56.3272 142.008 56.7863C142.008 57.5934 141.96 57.5934 141.96 58.4004C141.96 59.2074 141.858 59.2074 141.858 60.0144V63.1942C141.858 63.9529 141.96 63.9529 141.96 64.7599C141.96 65.5669 142.008 65.5669 142.008 66.374C142.008 67.181 142.062 67.181 142.062 67.9397V69.5537C142.062 70.3607 141.907 70.3607 141.907 71.1194C141.907 71.8781 141.96 71.9265 141.96 72.7335C141.96 73.5405 142.062 73.5405 142.062 74.2992C142.062 75.0579 141.907 75.1062 141.907 75.9133C141.907 76.7203 141.858 76.7203 141.858 77.479C141.858 78.2377 141.907 78.286 141.907 79.093C141.907 79.9001 142.062 79.8517 142.062 80.6588C142.062 81.4658 142.008 81.4658 142.008 82.2728C142.008 83.0798 141.96 83.0315 141.96 83.8385V85.4526C141.96 86.2161 142.008 86.2161 142.008 87.0231Z" fill="white"/>
<path d="M188.756 52.5918C188.756 53.6695 188.824 53.6695 188.824 54.6843C188.824 55.6991 188.688 55.762 188.688 56.7719C188.738 57.4043 188.545 58.032 188.146 58.5261C187.74 59.0094 187.068 59.0674 186.39 59.0674C185.379 59.0674 185.379 59.2655 184.368 59.2655C183.357 59.2655 183.352 59.1978 182.341 59.1978C181.33 59.1978 181.33 59.1302 180.319 59.1302C179.308 59.1302 179.303 59.0674 178.292 59.0674C177.281 59.0674 177.281 58.9997 176.265 58.9997C175.249 58.9997 175.254 59.1978 174.243 59.1978C173.231 59.1978 173.227 59.0674 172.216 59.0674C171.204 59.0674 171.204 58.9997 170.193 58.9997C169.182 58.9997 169.177 59.2655 168.166 59.2655C167.155 59.2655 167.155 59.0674 166.139 59.0674H164.117C163.101 59.0674 163.101 58.9997 162.09 58.9997C161.456 59.0313 160.855 59.2944 160.402 59.7391C160.197 59.9792 160.043 60.2588 159.951 60.5605C159.859 60.8623 159.829 61.1797 159.865 61.4933V63.9095C159.815 64.5204 160.007 65.1263 160.402 65.596C160.868 66.012 161.465 66.2514 162.09 66.2726C163.169 66.2726 163.169 66.3354 164.253 66.3354C165.336 66.3354 165.331 66.2726 166.41 66.2726C167.489 66.2726 167.421 66.3354 168.505 66.3354C169.589 66.3354 169.584 66.2049 170.663 66.2049C171.741 66.2049 171.741 66.1373 172.757 66.1373C173.773 66.1373 173.836 66.3354 174.915 66.3354C175.994 66.3354 175.999 66.1373 177.077 66.1373C177.7 66.1946 178.278 66.4825 178.698 66.9443C178.917 67.1638 179.084 67.4287 179.189 67.7202C179.293 68.0117 179.332 68.3226 179.303 68.6308V70.7185C179.303 71.7333 179.438 71.7333 179.438 72.8109V74.9034C179.406 75.5157 179.141 76.0927 178.698 76.5174C178.273 76.9803 177.689 77.2666 177.063 77.3196C175.984 77.3196 175.984 77.1167 174.9 77.1167C173.817 77.1167 173.822 77.3196 172.743 77.3196C171.664 77.3196 171.727 77.1843 170.648 77.1843C169.569 77.1843 169.569 77.3196 168.49 77.3196C167.412 77.3196 167.407 77.1843 166.328 77.1843C165.249 77.1843 165.317 77.252 164.238 77.252C163.159 77.252 163.154 77.1843 162.076 77.1843C161.464 77.2281 160.889 77.4906 160.455 77.9237C160.021 78.3568 159.759 78.9316 159.715 79.5426C159.715 80.7555 159.85 80.7555 159.85 81.9588C159.815 82.2611 159.844 82.5676 159.937 82.8576C160.029 83.1477 160.183 83.4146 160.387 83.6405C160.606 83.8647 160.869 84.0408 161.16 84.1573C161.45 84.2738 161.762 84.3282 162.076 84.317H164.103C165.114 84.317 165.114 84.3847 166.125 84.3847C167.136 84.3847 167.141 84.1817 168.152 84.1817H170.179C171.19 84.1817 171.19 84.4524 172.201 84.4524C173.212 84.4524 173.212 84.2494 174.136 84.2494C175.06 84.2494 175.147 84.317 176.158 84.317C177.169 84.317 177.174 84.3847 178.185 84.3847C179.196 84.3847 179.196 84.1817 180.212 84.1817C181.228 84.1817 181.223 84.2494 182.235 84.2494C183.246 84.2494 183.246 84.3847 184.262 84.3847H186.197C186.5 84.3665 186.804 84.4175 187.085 84.5338C187.365 84.6502 187.616 84.8289 187.817 85.0564C188.26 85.4559 188.527 86.013 188.562 86.6076V88.7001C188.562 89.7777 188.495 89.7777 188.495 90.7877V92.8802C188.527 93.1857 188.492 93.4946 188.393 93.7853C188.293 94.0759 188.13 94.3411 187.917 94.5622C187.703 94.7833 187.444 94.955 187.157 95.0652C186.869 95.1753 186.562 95.2213 186.255 95.1998C185.244 95.1998 185.244 95.1321 184.233 95.1321C183.221 95.1321 183.154 95.1998 182.138 95.1998C181.122 95.1998 181.127 95.4027 180.048 95.4027C178.969 95.4027 179.032 95.3351 178.021 95.3351H175.931C174.915 95.3351 174.915 95.2674 173.836 95.2674H165.612C164.596 95.2674 164.596 95.1321 163.517 95.1321C162.438 95.1321 162.506 95.3351 161.495 95.3351C160.411 95.3351 160.411 95.1321 159.4 95.1321C158.389 95.1321 158.389 95.3351 157.373 95.3351C156.357 95.3351 156.285 95.1998 155.293 95.1998C154.301 95.1998 154.282 95.2674 153.198 95.2674H151.176C150.549 95.2615 149.947 95.022 149.488 94.5957C149.04 94.1441 148.775 93.5437 148.743 92.9092C148.743 91.8315 148.878 91.8315 148.878 90.8167C148.878 89.8019 148.946 89.7391 148.946 88.6614C148.946 87.5838 148.878 87.5838 148.878 86.569C148.878 85.5542 148.743 85.4913 148.743 84.4137V80.1708C148.743 79.1608 148.946 79.1608 148.946 78.0783C148.946 76.9958 148.743 77.0007 148.743 75.923V71.7429C148.743 70.6605 148.946 70.6605 148.946 69.5828C148.946 68.5052 148.68 68.5052 148.68 67.4952C148.68 66.4852 148.878 66.4127 148.878 65.3351C148.878 64.2574 148.68 64.3251 148.68 63.2475V61.0873C148.68 60.0774 148.878 60.0773 148.878 58.9997C148.878 57.9221 148.946 57.9172 148.946 56.9072C148.946 55.8973 148.81 55.8296 148.81 54.752C148.81 53.6743 148.743 53.7371 148.743 52.6595C148.743 51.5819 148.81 51.5819 148.81 50.4994C148.844 49.9058 149.112 49.3497 149.555 48.953C150.039 48.5471 150.499 48.0735 151.176 48.0735C152.187 48.0735 152.187 48.2088 153.266 48.2088C154.345 48.2088 154.282 48.3441 155.293 48.3441C156.304 48.3441 156.372 48.0735 157.383 48.0735C158.467 48.0735 158.467 48.1411 159.478 48.1411C160.489 48.1411 160.489 48.2088 161.572 48.2088H165.689C166.7 48.2088 166.7 48.2764 167.779 48.2764C168.858 48.2764 168.795 48.2088 169.806 48.2088C170.817 48.2088 170.885 48.1411 171.896 48.1411H173.991C175.002 48.1411 175.002 48.2088 176.081 48.2088C177.16 48.2088 177.097 48.3441 178.108 48.3441C179.119 48.3441 179.187 48.2764 180.203 48.2764H182.293C183.304 48.2764 183.304 48.1411 184.32 48.1411C185.336 48.1411 185.398 48.0735 186.41 48.0735C187.048 48.092 187.654 48.3591 188.098 48.8177C188.304 49.0426 188.459 49.3093 188.552 49.5995C188.646 49.8897 188.676 50.1966 188.64 50.4994C188.62 51.5819 188.756 51.5819 188.756 52.5918Z" fill="white"/>
<path d="M176.332 169.552V182.871C176.332 185.04 176.768 185.04 176.768 187.22V191.709C176.823 193.049 176.575 194.383 176.042 195.614C175.479 196.792 174.498 197.72 173.289 198.218C172.222 198.837 171.108 199.371 169.956 199.813C168.65 200.538 167.349 200.968 166.042 201.548C164.736 202.128 163.435 202.853 162.134 203.288C160.682 203.868 159.526 204.588 158.075 205.023C156.773 205.457 155.322 205.457 153.875 205.892L149.671 206.757C148.22 207.047 146.769 207.337 145.467 207.482C144.016 207.772 142.565 208.207 141.113 208.352C139.807 208.497 138.361 208.787 136.909 208.932C135.458 209.077 134.007 209.367 132.555 209.367C131.104 209.367 129.653 209.222 128.201 209.222C126.75 209.222 125.299 208.787 123.847 208.787C122.251 208.642 120.804 209.077 119.353 209.077C117.902 208.932 116.45 208.497 114.999 208.352C113.548 208.062 111.956 208.062 110.505 207.772C109.053 207.482 107.752 206.757 106.305 206.472C104.859 206.187 103.262 206.182 101.951 205.892C100.5 205.457 99.0488 205.168 97.5974 204.733C96.1461 204.153 94.8447 203.578 93.3934 203.143L89.3345 201.403C88.0331 200.828 86.7269 200.103 85.4256 199.378C84.1194 198.798 82.818 197.928 81.5118 197.208C80.3507 196.484 79.1945 195.469 77.8883 194.749C76.7321 193.879 75.4259 193.154 74.4099 192.139C73.1086 191.274 72.0926 190.259 70.9364 189.39C69.9205 188.38 68.474 187.655 67.6032 186.49C66.5872 185.48 66.0067 184.03 64.9956 182.875C64.1248 181.716 63.3991 180.411 62.5332 179.256C61.8075 177.951 60.9367 176.796 60.211 175.491C59.6353 174.191 59.0548 172.742 58.6194 171.442C58.0533 170.086 57.6159 168.68 57.3132 167.242C57.0229 165.793 56.7375 164.343 56.5924 162.893C56.4472 161.443 55.8667 159.994 55.8667 158.544C55.8667 157.094 55.8667 155.504 56.0118 154.054C56.157 152.605 56.7375 151.155 57.0229 149.705C57.4583 148.256 57.3132 146.666 57.8937 145.216C58.3237 143.806 58.9077 142.448 59.6353 141.166C60.211 139.717 61.227 138.707 62.0978 137.402C62.7825 136.095 63.5568 134.837 64.4151 133.637L67.1678 130.163C68.1837 129.153 68.7594 127.558 69.7753 126.548L73.2537 123.508C74.4099 122.639 75.8613 122.204 77.1675 121.334C78.3143 120.386 79.5232 119.516 80.7861 118.729C82.0923 118.009 83.2486 117.139 84.6999 116.414C86.0061 115.834 87.4526 115.689 88.9039 115.114C90.2053 114.535 91.5115 113.665 92.958 113.23C94.4093 112.65 95.7107 112.215 97.162 111.78C98.6134 111.345 100.065 110.91 101.516 110.62C102.967 110.185 104.419 110.185 106.01 109.895C107.462 109.605 108.913 109.46 110.364 109.315C111.851 109.046 113.352 108.854 114.859 108.74C116.31 108.595 117.761 108.45 119.213 108.45C120.809 108.305 122.256 108.45 123.707 108.305H128.196C129.793 108.305 131.385 108.16 132.981 108.16C134.573 108.305 136.164 107.871 137.761 108.015C139.357 108.16 140.804 108.885 142.4 109.17C143.992 109.315 145.729 109.17 147.18 109.46C148.772 109.75 150.223 110.475 151.814 110.765C153.411 111.2 155.003 111.345 156.454 111.78C158.022 112.125 159.57 112.559 161.089 113.08C162.54 113.515 163.841 114.53 165.293 115.255C165.908 115.441 166.468 115.777 166.923 116.231C167.378 116.685 167.713 117.244 167.9 117.859C168.104 118.449 168.183 119.075 168.134 119.697C168.084 120.319 167.905 120.924 167.61 121.474C166.594 123.504 166.739 123.649 165.728 125.673C164.857 127.698 164.712 127.553 163.696 129.583C162.68 131.612 162.83 131.608 161.814 133.632C161.526 134.236 161.121 134.777 160.623 135.224C160.125 135.671 159.543 136.016 158.912 136.237C157.637 136.698 156.234 136.646 154.998 136.092C153.546 135.662 152.245 134.937 150.799 134.357C149.347 133.922 147.756 133.922 146.304 133.487C144.853 133.198 143.402 132.622 141.815 132.332C140.363 132.043 138.772 132.477 137.32 132.332L132.686 131.898C131.196 131.674 129.696 131.529 128.192 131.463C126.74 131.463 125.289 131.318 123.838 131.318C122.386 131.463 120.935 131.898 119.484 132.043C118.032 132.188 116.581 132.188 115.13 132.332C113.678 132.477 112.227 132.767 110.776 133.053L106.572 133.922C105.149 134.223 103.747 134.61 102.372 135.082C100.921 135.662 99.4697 135.952 98.1683 136.532C96.717 137.112 95.5607 137.837 94.2594 138.417C92.9532 139.137 91.5067 139.572 90.2005 140.296C89.0394 141.166 88.1734 142.611 87.1575 143.481C86.0013 144.496 84.8402 145.216 83.9694 146.381C82.9583 147.54 82.5181 148.985 81.9424 150.29C81.2167 151.59 80.3459 152.75 80.0605 154.195C79.775 155.64 79.3348 157.094 79.3348 158.544C79.3348 159.994 80.2056 161.443 80.6362 163.028C81.2256 164.422 81.9043 165.776 82.668 167.083C83.534 168.243 84.1194 169.688 85.2756 170.847C86.2915 171.857 87.4478 173.017 88.6088 174.032C89.9102 174.897 91.3615 175.332 92.808 176.202C94.0591 177.104 95.3663 177.925 96.7218 178.661L100.926 180.396C102.377 180.976 103.829 181.411 105.415 181.991C106.867 182.426 108.168 183.291 109.769 183.726C111.221 184.016 112.812 184.161 114.264 184.306C115.855 184.596 117.307 185.031 118.898 185.176L123.538 185.611C125.129 185.755 126.581 185.756 128.172 185.756C129.524 185.828 130.879 185.828 132.231 185.756C133.682 185.756 134.984 185.321 136.29 185.176C137.596 185.031 138.898 184.596 140.199 184.451C141.65 184.161 142.952 184.306 144.258 184.016C145.582 183.648 146.886 183.214 148.167 182.716C149.473 182.426 150.489 181.556 151.355 180.396C152.221 179.236 153.097 177.937 153.097 176.492C153.097 175.912 153.242 175.912 153.242 175.332C153.242 173.882 152.371 172.727 151.5 171.712C150.572 170.801 149.328 170.282 148.027 170.263C145.85 170.263 145.85 170.118 143.673 170.118H135.182C133.01 170.118 133.01 170.553 130.828 170.553H126.474C125.168 170.553 123.867 169.683 122.996 168.813C122.463 168.37 122.032 167.818 121.732 167.195C121.431 166.571 121.268 165.89 121.254 165.198C121.254 163.024 121.404 163.024 121.404 160.709C121.404 158.539 121.694 158.539 121.694 156.224C121.694 154.05 121.544 154.05 121.544 151.735C121.563 150.433 122.083 149.189 122.996 148.26C123.942 147.392 125.19 146.926 126.474 146.96C128.791 146.96 128.791 147.105 130.964 147.105C133.281 147.105 133.281 146.67 135.458 146.67C137.775 146.67 137.775 146.96 139.947 146.96C142.265 146.96 142.265 146.815 144.587 146.815C146.759 146.815 146.759 146.525 149.076 146.525H153.571C155.743 146.525 155.743 146.815 158.06 146.815C160.237 146.815 160.237 146.381 162.554 146.381C164.727 146.381 164.727 147.105 167.044 147.105C169.361 147.105 169.361 146.525 171.533 146.525C172.902 146.564 174.202 147.135 175.157 148.115C176.184 149.051 176.808 150.349 176.898 151.735C176.898 154.05 176.608 154.05 176.608 156.224C176.608 158.399 176.753 158.394 176.753 160.709C176.753 162.879 176.898 162.879 176.898 165.058C176.898 167.237 176.332 167.237 176.332 169.552Z" fill="white"/>
<path d="M308.419 206.83C309.076 208.463 309.73 210.097 309.73 211.735C309.73 213.373 308.762 215.006 308.09 216.476C307.606 218.114 307.122 219.583 306.13 220.892C305.153 222.242 303.996 223.452 302.691 224.488C301.38 225.454 300.073 226.614 298.433 227.271C296.982 227.924 295.323 228.088 293.523 228.412C291.909 228.752 290.262 228.914 288.613 228.895C286.855 228.89 285.102 228.728 283.373 228.412C281.738 228.088 279.938 227.928 278.298 227.445C276.658 226.793 275.023 225.812 273.388 225.159C271.913 224.502 270.113 223.85 268.642 223.033C267.002 222.212 265.691 221.071 264.22 220.09C262.769 219.274 261.274 218.128 259.799 217.307L255.382 214.364C253.931 213.397 252.271 212.566 250.96 211.749C249.325 210.783 248.014 209.623 246.538 208.642C245.087 207.825 243.268 207.192 241.792 206.516C240.157 205.549 238.846 204.225 237.371 203.737C235.407 203.08 233.607 202.592 232.136 202.592C229.19 202.592 229.19 202.92 226.239 202.92H220.511C219.04 202.939 217.633 203.524 216.583 204.554C215.436 205.52 214.948 207.009 214.948 208.642C214.948 211.097 214.619 211.097 214.619 213.547C214.619 215.838 214.948 215.838 214.948 218.288V223.197C214.929 224.764 214.347 226.272 213.308 227.445C212.34 228.412 210.69 228.591 209.215 228.591C206.598 228.591 206.598 229.248 204.14 229.248H199.065C196.448 229.248 196.448 228.591 193.99 228.591C192.355 228.591 190.884 228.426 189.738 227.445C188.745 226.256 188.221 224.745 188.262 223.197V218.114C188.262 215.495 188.591 215.495 188.591 212.88C188.591 210.266 188.108 210.261 188.108 207.811V197.508C188.108 194.894 188.591 194.894 188.591 192.274C188.591 189.655 188.427 189.66 188.427 187.205C188.427 184.591 188.591 184.591 188.591 181.972C188.591 179.352 187.933 179.357 187.933 176.902C187.933 174.288 188.417 174.288 188.417 171.674C188.417 169.059 188.253 169.054 188.253 166.604C188.253 163.985 187.924 163.985 187.924 161.371C187.924 158.756 188.408 158.752 188.408 156.302C188.408 153.682 188.243 153.682 188.243 151.068V145.999C188.243 143.384 188.079 143.384 188.079 140.765C188.079 138.315 188.562 138.315 188.562 135.696C188.562 133.077 188.398 133.082 188.398 130.462V125.393C188.398 122.779 187.914 122.779 187.914 120.324C187.958 118.731 188.602 117.214 189.719 116.076C190.686 114.931 192.336 114.438 193.971 114.438H208.542C211 114.438 211 114.766 213.453 114.766C215.906 114.766 215.91 114.283 218.363 114.283H223.273C225.731 114.283 225.731 114.448 228.024 114.448C230.477 114.448 230.477 114.776 232.935 114.776H242.755C244.39 114.94 246.03 114.94 247.666 115.105C249.301 115.269 251.105 115.105 252.576 115.428C254.38 115.593 255.851 116.245 257.491 116.574C259.131 116.902 260.602 117.39 262.237 117.883C263.872 118.212 265.348 118.7 266.983 119.188C268.458 119.845 270.094 120.155 271.569 120.826C273.02 121.643 274.68 122.276 275.986 122.953C277.461 123.769 278.773 124.915 280.079 125.731C281.446 126.632 282.758 127.615 284.007 128.674C285.318 129.82 286.794 130.801 287.776 131.946C289.082 133.091 289.899 134.56 290.886 135.87C291.873 137.179 292.851 138.484 293.668 139.794C294.486 141.268 295.303 142.737 295.956 144.211C296.614 145.844 297.103 147.318 297.596 148.951C297.921 150.585 298.08 152.223 298.249 153.856C298.578 155.33 298.414 156.964 298.414 158.597C298.414 160.399 299.067 162.197 298.898 163.831L297.93 169.064C297.446 170.698 296.295 172.171 295.642 173.805C295.03 175.375 294.319 176.905 293.513 178.386C292.774 179.931 291.898 181.408 290.896 182.798C289.749 184.272 288.763 185.582 287.621 186.891C286.31 188.196 284.839 189.177 283.693 190.158C282.241 191.467 281.07 192.777 279.759 193.594C278.448 194.41 277.307 195.227 277.142 196.372C276.984 197.046 277.06 197.753 277.358 198.378C277.656 199.003 278.159 199.507 278.782 199.808C282.209 201.646 286.021 202.654 289.909 202.751C292.043 202.916 294.007 202.423 295.642 202.094C297.277 201.765 299.077 201.935 300.881 201.77C302.681 201.77 304.481 201.606 305.627 202.737C306.867 203.863 307.824 205.265 308.419 206.83ZM272.242 158.587C272.242 156.79 271.588 155.156 271.095 153.523C270.442 151.885 269.784 150.087 268.478 148.777C267.331 147.632 265.691 146.815 264.056 145.834C262.51 144.932 260.862 144.218 259.146 143.708C257.421 143.232 255.672 142.848 253.906 142.558C252.271 142.234 250.467 141.592 248.667 141.253C246.867 141.089 245.068 141.089 243.268 140.925H237.864C234.918 140.925 234.918 141.408 232.136 141.408H226.239C223.457 141.408 223.457 141.079 220.511 141.079C219.766 141.081 219.03 141.243 218.352 141.553C217.674 141.863 217.071 142.315 216.583 142.877C216.059 143.387 215.645 143.998 215.364 144.672C215.083 145.346 214.941 146.071 214.948 146.801V151.542C214.948 153.996 214.619 153.996 214.619 156.287C214.619 158.737 215.102 158.737 215.102 161.028V170.514C215.102 172.147 215.427 173.621 216.409 174.766C217.522 175.8 218.981 176.382 220.501 176.4C223.448 176.4 223.448 176.236 226.229 176.236C229.18 176.236 229.18 176.564 232.127 176.564C234.908 176.564 234.908 176.081 237.855 176.081C239.654 176.081 241.454 176.245 243.258 176.081C245.012 176.009 246.761 175.847 248.498 175.598C250.457 175.269 252.261 175.598 253.897 175.269C255.861 174.94 257.501 174.303 259.136 173.795C260.936 173.143 262.735 172.655 264.211 171.833C265.846 170.867 266.993 169.383 268.139 168.238C269.45 166.928 270.921 165.623 271.414 163.985C272.032 162.255 272.313 160.423 272.242 158.587Z" fill="white"/>
<path d="M380.734 115.747C380.734 117.637 380.85 117.637 380.85 119.415C380.85 121.305 380.613 121.305 380.613 123.078C380.613 124.262 380.376 125.446 379.645 126.157C378.934 126.983 377.749 127.123 376.564 127.123C374.788 127.123 374.788 127.476 373.013 127.476C371.237 127.476 371.237 127.36 369.462 127.36C367.686 127.36 367.682 127.239 365.906 127.239C364.131 127.239 364.131 127.123 362.355 127.123C360.58 127.123 360.58 127.002 358.799 127.002C357.019 127.002 357.024 127.36 355.248 127.36C353.473 127.36 353.473 127.123 351.693 127.123C349.912 127.123 349.917 127.002 348.142 127.002C346.366 127.002 346.366 127.485 344.591 127.485C342.815 127.485 342.849 127.094 341.064 127.094H337.508C335.733 127.094 335.733 126.973 333.957 126.973C332.844 127.031 331.79 127.495 330.997 128.278C330.169 129.104 330.029 130.168 330.029 131.351V135.614C330.029 136.793 330.266 137.861 330.997 138.571C331.816 139.297 332.863 139.714 333.957 139.75C335.854 139.75 335.854 139.871 337.75 139.871C339.647 139.871 339.642 139.75 341.538 139.75C343.314 139.75 343.314 139.871 345.21 139.871C347.106 139.871 347.106 139.634 348.998 139.634C350.89 139.634 350.894 139.514 352.67 139.514C354.566 139.514 354.566 139.871 356.463 139.871C358.359 139.871 358.354 139.514 360.251 139.514C361.315 139.514 362.384 140.224 363.095 140.934C363.923 141.645 364.16 142.708 364.16 143.892V147.56C364.16 149.333 364.397 149.333 364.397 151.227V154.895C364.337 155.973 363.872 156.987 363.095 157.737C362.384 158.447 361.315 159.153 360.251 159.153C358.354 159.153 358.354 158.8 356.463 158.8C354.571 158.8 354.566 159.153 352.67 159.153C350.894 159.153 350.894 158.916 348.998 158.916C347.102 158.916 347.106 159.153 345.21 159.153C343.314 159.153 343.314 158.916 341.422 158.916C339.642 158.916 339.642 159.037 337.75 159.037C335.859 159.037 335.854 158.916 333.957 158.916C332.884 158.996 331.876 159.458 331.115 160.218C330.354 160.978 329.892 161.986 329.811 163.057C329.811 165.188 330.048 165.188 330.048 167.32C330.048 168.383 330.169 169.567 331.016 170.277C331.4 170.669 331.861 170.977 332.371 171.18C332.881 171.383 333.428 171.477 333.977 171.456H337.528C339.308 171.456 339.308 171.577 341.083 171.577C342.859 171.577 342.859 171.224 344.639 171.224H348.19C349.966 171.224 349.966 171.707 351.741 171.707C353.517 171.707 353.521 171.35 355.176 171.35C356.956 171.35 356.956 171.466 358.732 171.466C360.507 171.466 360.507 171.587 362.283 171.587C364.058 171.587 364.058 171.234 365.838 171.234C367.619 171.234 367.614 171.35 369.389 171.35C371.165 171.35 371.165 171.587 372.945 171.587H376.38C376.912 171.556 377.444 171.646 377.936 171.851C378.428 172.057 378.867 172.371 379.22 172.771C379.996 173.471 380.465 174.448 380.526 175.491V179.159C380.526 181.053 380.405 181.053 380.405 182.827V186.495C380.457 187.036 380.388 187.581 380.204 188.092C380.02 188.604 379.725 189.068 379.34 189.452C378.956 189.836 378.491 190.131 377.979 190.315C377.467 190.498 376.921 190.567 376.38 190.515C374.6 190.515 374.6 190.399 372.824 190.399C370.928 190.399 370.928 190.515 369.152 190.515C367.377 190.515 367.377 190.873 365.48 190.873C363.705 190.873 363.705 190.752 361.929 190.752H358.258C356.482 190.752 356.482 190.636 354.586 190.636H340.126C338.35 190.636 338.35 190.399 336.454 190.399C334.678 190.399 334.678 190.752 332.903 190.752C331.006 190.752 331.006 190.399 329.231 190.399C327.455 190.399 327.455 190.752 325.675 190.752C323.784 190.752 323.783 190.515 322.003 190.515C320.223 190.515 320.228 190.636 318.331 190.636H314.78C313.68 190.623 312.625 190.201 311.82 189.452C311.037 188.659 310.574 187.607 310.518 186.495C310.518 184.601 310.755 184.601 310.755 182.827C310.755 180.933 310.871 180.933 310.871 179.038C310.871 177.144 310.755 177.149 310.755 175.37C310.755 173.481 310.518 173.481 310.518 171.587V164.135C310.518 162.357 310.871 162.357 310.871 160.467C310.871 158.578 310.518 158.573 310.518 156.678V149.323C310.518 147.434 310.871 147.434 310.871 145.54C310.871 143.645 310.388 143.645 310.388 141.872C310.388 139.977 310.746 139.977 310.746 138.088C310.746 136.31 310.388 136.31 310.388 134.42V130.631C310.388 128.858 310.746 128.858 310.746 126.964C310.746 125.069 310.862 125.074 310.862 123.296C310.862 121.406 310.625 121.406 310.625 119.512C310.625 117.738 310.509 117.738 310.509 115.844C310.509 113.95 310.625 113.95 310.625 112.06C310.683 111.017 311.153 110.039 311.931 109.34C312.758 108.629 313.585 107.798 314.771 107.798C316.546 107.798 316.546 108.035 318.443 108.035C320.218 108.035 320.218 108.272 321.994 108.272C323.89 108.272 323.89 107.788 325.665 107.788C327.562 107.788 327.562 107.909 329.337 107.909C331.113 107.909 331.113 108.025 333.009 108.025H340.237C342.012 108.025 342.012 108.146 343.909 108.146C345.684 108.146 345.684 108.025 347.46 108.025C349.356 108.025 349.356 107.909 351.131 107.909H354.803C356.579 107.909 356.579 108.025 358.475 108.025C360.251 108.025 360.251 108.262 362.026 108.262C363.923 108.262 363.923 108.146 365.698 108.146H369.37C371.145 108.146 371.145 107.909 372.926 107.909C374.817 107.909 374.817 107.788 376.593 107.788C377.714 107.821 378.777 108.289 379.558 109.093C380.386 109.799 380.526 110.983 380.526 112.051C380.516 113.969 380.734 113.969 380.734 115.747Z" fill="white"/>
<path d="M457.974 122.025C457.974 123.769 458.08 123.769 458.08 125.408C458.08 127.157 457.863 127.157 457.863 128.79C457.863 129.882 457.645 130.975 456.987 131.632C456.329 132.395 455.236 132.506 454.143 132.506C452.502 132.506 452.503 132.835 450.863 132.835C449.222 132.835 449.222 132.724 447.582 132.724C445.942 132.724 445.942 132.618 444.302 132.618C442.662 132.618 442.658 132.506 441.018 132.506C439.378 132.506 439.378 132.395 437.738 132.395C436.098 132.395 436.098 132.724 434.458 132.724C432.818 132.724 432.813 132.506 431.173 132.506C429.533 132.506 429.533 132.395 427.893 132.395C426.253 132.395 426.253 132.835 424.613 132.835C422.973 132.835 422.973 132.506 421.328 132.506H418.048C416.408 132.506 416.408 132.395 414.768 132.395C413.739 132.446 412.766 132.875 412.034 133.599C411.265 134.362 411.159 135.348 411.159 136.44V140.374C411.159 141.466 411.376 142.452 412.034 143.104C412.788 143.778 413.756 144.165 414.768 144.196C416.519 144.196 416.519 144.307 418.265 144.307C420.012 144.307 420.017 144.196 421.768 144.196C423.408 144.196 423.408 144.307 425.154 144.307C426.901 144.307 426.901 144.09 428.652 144.09C430.403 144.09 430.403 143.979 432.039 143.979C433.79 143.979 433.79 144.307 435.541 144.307C437.292 144.307 437.288 143.979 439.039 143.979C440.007 143.979 441.008 144.636 441.666 145.288C442.43 145.946 442.633 146.931 442.633 148.024V151.406C442.633 153.044 442.856 153.044 442.856 154.789V158.172C442.801 159.167 442.37 160.105 441.651 160.796C440.993 161.453 440.011 162.105 439.024 162.105C437.273 162.105 437.273 161.777 435.527 161.777C433.78 161.777 433.775 162.105 432.024 162.105C430.384 162.105 430.384 161.888 428.638 161.888C426.891 161.888 426.886 162.105 425.14 162.105C423.394 162.105 423.389 161.888 421.637 161.888C419.997 161.888 419.997 161.999 418.251 161.999C416.505 161.999 416.534 161.888 414.768 161.888C413.777 161.961 412.845 162.387 412.143 163.088C411.44 163.79 411.014 164.721 410.941 165.71C410.941 167.677 411.159 167.677 411.159 169.644C411.159 170.611 411.265 171.722 412.034 172.379C412.388 172.742 412.814 173.027 413.285 173.215C413.756 173.403 414.261 173.491 414.768 173.471H418.048C419.688 173.471 419.688 173.578 421.328 173.578C422.968 173.578 422.973 173.254 424.613 173.254H427.893C429.533 173.254 429.533 173.689 431.173 173.689C432.813 173.689 432.813 173.36 434.346 173.36C435.986 173.36 435.986 173.471 437.626 173.471C439.266 173.471 439.266 173.578 440.911 173.578C442.556 173.578 442.551 173.254 444.191 173.254C445.831 173.254 445.831 173.36 447.471 173.36C449.111 173.36 449.111 173.578 450.756 173.578H453.925C454.417 173.549 454.909 173.632 455.364 173.821C455.819 174.011 456.225 174.301 456.552 174.67C457.269 175.317 457.701 176.219 457.756 177.183V180.565C457.756 182.315 457.645 182.315 457.645 183.948V187.331C457.691 187.83 457.627 188.334 457.456 188.806C457.285 189.278 457.013 189.706 456.658 190.061C456.303 190.416 455.874 190.688 455.401 190.858C454.929 191.029 454.425 191.093 453.925 191.047C452.285 191.047 452.285 190.936 450.645 190.936C448.894 190.936 448.894 191.047 447.258 191.047C445.623 191.047 445.618 191.376 443.872 191.376C442.232 191.376 442.232 191.265 440.592 191.265H437.205C435.565 191.265 435.565 191.158 433.819 191.158H420.452C418.812 191.158 418.812 190.936 417.066 190.936C415.426 190.936 415.426 191.265 413.781 191.265C412.034 191.265 412.034 190.936 410.394 190.936C408.754 190.936 408.754 191.265 407.114 191.265C405.363 191.265 405.363 191.047 403.728 191.047C402.093 191.047 402.088 191.158 400.341 191.158H397.061C396.045 191.145 395.071 190.754 394.328 190.061C393.604 189.33 393.175 188.358 393.123 187.331C393.123 185.582 393.341 185.582 393.341 183.948C393.341 182.199 393.452 182.199 393.452 180.454C393.452 178.71 393.341 178.705 393.341 177.072C393.341 175.322 393.123 175.322 393.123 173.573V166.72C393.123 165.082 393.452 165.082 393.452 163.338C393.452 161.593 393.123 161.588 393.123 159.844V153.078C393.123 151.329 393.452 151.329 393.452 149.58C393.452 147.83 393.012 147.83 393.012 146.197C393.012 144.448 393.341 144.448 393.341 142.703C393.341 141.065 393.012 141.065 393.012 139.32V135.793C393.012 134.154 393.341 134.154 393.341 132.41C393.341 130.665 393.452 130.665 393.452 129.027C393.452 127.278 393.235 127.278 393.235 125.528C393.235 123.89 393.123 123.89 393.123 122.146C393.123 120.401 393.235 120.396 393.235 118.652C393.288 117.689 393.719 116.786 394.435 116.139C395.204 115.482 395.968 114.718 397.061 114.718C398.701 114.718 398.701 114.936 400.448 114.936C402.088 114.936 402.088 115.153 403.728 115.153C405.479 115.153 405.479 114.718 407.114 114.718C408.866 114.718 408.866 114.824 410.501 114.824C412.136 114.824 412.141 114.936 413.887 114.936H420.559C422.199 114.936 422.199 115.047 423.945 115.047C425.585 115.047 425.585 114.936 427.225 114.936C428.976 114.936 428.976 114.824 430.611 114.824H433.998C435.638 114.824 435.638 114.936 437.384 114.936C439.024 114.936 439.024 115.153 440.664 115.153C442.416 115.153 442.416 115.047 444.051 115.047H447.437C449.077 115.047 449.077 114.824 450.722 114.824C452.469 114.824 452.469 114.718 454.109 114.718C455.142 114.749 456.124 115.178 456.847 115.917C457.611 116.574 457.722 117.666 457.722 118.652C457.756 120.382 457.974 120.382 457.974 122.025Z" fill="white"/>
<path d="M176.918 316.121C176.918 318.537 176.589 318.537 176.589 321.157C176.589 323.776 176.918 323.757 176.918 326.192C176.904 326.945 176.724 327.685 176.389 328.359C176.055 329.034 175.574 329.625 174.983 330.092C174.015 331.058 172.709 332.025 171.243 332.025C168.316 332.025 168.316 332.189 165.554 332.189C163.713 332.108 161.899 331.723 160.184 331.049C158.399 330.237 156.933 328.937 155.796 327.966C154.006 326.178 154.006 326.178 152.216 324.554C150.431 322.766 150.591 322.621 148.801 320.818C147.011 319.19 146.866 319.369 145.061 317.566C143.436 315.942 143.436 315.783 141.646 314.154C139.856 312.366 139.531 312.705 137.741 311.071C136.116 309.283 135.956 309.443 134.166 307.66C132.376 306.036 132.376 306.036 130.586 304.248C128.801 302.624 129.135 302.315 127.335 300.512C125.71 298.884 125.71 298.724 123.92 297.101L120.345 293.525C118.714 291.901 118.41 292.075 116.6 290.437C114.815 288.653 114.975 288.653 113.214 286.865C111.424 285.242 111.424 285.242 109.634 283.454C107.844 281.83 107.699 282.004 105.894 280.366C104.104 278.582 104.269 278.433 102.479 276.795C100.689 275.006 100.544 275.171 98.7392 273.542C96.9492 271.759 97.1089 271.759 95.3237 269.971C93.5338 268.347 93.6982 268.038 92.0727 266.395C89.7941 264.124 87.8397 265.095 87.8397 268.328C87.8397 270.599 87.68 270.599 87.68 273.04V277.911C87.68 280.327 88.0042 280.327 88.0042 282.787C88.0042 285.246 87.5204 285.203 87.5204 287.658V292.37C87.5204 294.786 87.8445 294.786 87.8445 297.241V302.117C87.8445 304.533 87.5204 304.533 87.5204 306.828C87.5204 309.245 87.8445 309.245 87.8445 311.699C87.8445 314.154 88.009 314.116 88.009 316.575C88.009 319.035 87.8445 318.992 87.8445 321.447C87.8445 323.723 87.5204 323.723 87.5204 326.158C87.5204 327.782 87.1963 329.246 86.219 330.382C85.6191 331.083 84.5742 331.43 83.7034 331.619C82.5547 331.827 81.3919 331.948 80.225 331.981C79.0059 332.064 77.7771 332.17 76.558 332.17H72.0733C70.83 332.17 69.5916 332.107 68.3579 331.991C67.3973 331.951 66.4437 331.808 65.5133 331.566C64.6085 331.262 63.7904 330.745 63.1283 330.058C62.1607 329.092 61.0142 327.782 61.0142 326.158C61.0142 323.558 61.1786 323.742 61.1786 321.123V315.957C61.1786 313.357 61.5028 313.357 61.5028 310.921C61.5028 308.322 61.6673 308.322 61.6673 305.722C61.6673 303.305 61.5028 303.305 61.5028 300.686C61.5028 298.067 61.1786 298.086 61.1786 295.491V290.432C61.1786 287.837 61.6624 287.837 61.6624 285.237C61.6624 282.821 61.1786 282.821 61.1786 280.201C61.1786 277.582 61.5028 277.601 61.5028 275.166V269.986C61.5028 267.386 61.1786 267.386 61.1786 264.95C61.1786 262.35 61.5028 262.35 61.5028 259.75C61.5028 257.334 61.3383 257.334 61.3383 254.715C61.3383 252.096 61.0142 252.115 61.0142 249.515C61.0142 247.099 61.3383 247.099 61.3383 244.48C61.3383 241.861 61.5028 241.885 61.5028 239.444V224.014C61.49 223.293 61.6256 222.577 61.9012 221.91C62.1767 221.243 62.5863 220.64 63.1046 220.137C63.6229 219.635 64.239 219.244 64.9146 218.989C65.5902 218.734 66.311 218.62 67.0324 218.655C70.6075 218.655 70.6075 218.172 74.1875 218.172C76.026 218.254 77.8386 218.638 79.5526 219.307C81.1781 219.955 82.6439 221.419 83.7808 222.395C85.7159 224.178 85.5708 224.328 87.3607 226.131C89.1507 227.933 89.6345 227.581 91.4245 229.378C93.2145 231.002 93.05 231.166 95.0044 232.954C96.7944 234.737 96.6299 234.887 98.4199 236.69C100.355 238.478 100.355 238.478 102.16 240.261C103.964 242.044 104.274 241.711 106.064 243.349C107.999 245.137 107.689 245.461 109.474 247.249C111.409 249.037 111.409 248.872 113.378 250.66C115.168 252.448 115.004 252.593 116.794 254.396C118.584 256.02 118.729 256.02 120.533 257.808L124.113 261.379C126.049 263.167 126.049 263.007 128.017 264.791C129.803 266.579 129.643 266.724 131.428 268.367C133.363 270.155 133.542 269.99 135.332 271.778C137.122 273.566 137.267 273.402 139.236 275.19C141.026 276.973 140.688 277.302 142.487 279.085C144.277 280.714 144.766 280.385 146.556 282.173C148.83 284.285 150.62 283.797 150.62 280.549V265.11C150.62 262.693 150.136 262.693 150.136 260.074C150.136 257.455 150.62 257.479 150.62 254.879C150.62 252.279 150.46 252.279 150.46 249.844C150.46 247.244 150.296 247.244 150.296 244.644C150.296 242.044 150.62 242.044 150.62 239.444C150.62 236.844 150.296 236.844 150.296 234.409C150.296 231.809 150.779 231.809 150.779 229.209C150.779 226.609 150.615 226.614 150.615 224.014C150.615 222.564 150.939 220.926 151.916 219.95C153.052 218.848 154.561 218.211 156.144 218.167C158.563 218.167 158.563 218.814 161.185 218.814C163.604 218.814 163.604 218.655 166.226 218.655C168.645 218.655 168.645 218.172 171.267 218.172C172.719 218.172 173.87 219.307 175.007 220.283C175.974 221.419 176.797 222.555 176.797 224.019C176.797 226.619 176.961 226.619 176.961 229.214C176.961 231.809 176.797 231.814 176.797 234.414C176.797 236.83 176.632 236.83 176.632 239.449C176.632 242.068 176.797 242.049 176.797 244.485C176.797 247.084 177.121 247.084 177.121 249.684C177.121 252.284 176.797 252.284 176.797 254.72C176.797 257.32 176.632 257.32 176.632 259.919V270.135C176.632 272.552 176.797 272.552 176.797 275.171C176.797 277.79 176.961 277.766 176.961 280.366C176.961 282.782 177.121 282.782 177.121 285.401V290.432C177.121 293.032 176.797 293.032 176.797 295.631C176.797 298.231 176.961 298.231 176.961 300.667C176.961 303.267 177.121 303.267 177.121 305.867V310.921C177.063 313.521 176.918 313.521 176.918 316.121Z" fill="white"/>
<path d="M263.925 247.104C263.925 248.974 264.041 248.974 264.041 250.723C264.041 252.589 263.804 252.589 263.804 254.343C263.804 255.507 263.572 256.677 262.871 257.377C262.169 258.194 261.003 258.31 259.832 258.31C258.081 258.31 258.081 258.663 256.325 258.663C254.569 258.663 254.574 258.542 252.823 258.542C251.071 258.542 251.066 258.426 249.315 258.426C247.564 258.426 247.564 258.31 245.808 258.31C244.052 258.31 244.056 258.194 242.3 258.194C240.544 258.194 240.549 258.542 238.798 258.542C237.046 258.542 237.042 258.31 235.29 258.31C233.539 258.31 233.539 258.194 231.783 258.194C230.027 258.194 230.032 258.677 228.28 258.677C226.529 258.677 226.524 258.325 224.773 258.325H221.266C219.514 258.325 219.514 258.209 217.758 258.209C216.666 258.27 215.634 258.727 214.856 259.494C214.038 260.311 213.922 261.359 213.922 262.529V266.728C213.922 267.898 214.159 268.951 214.856 269.628C215.658 270.343 216.684 270.756 217.758 270.797C219.63 270.797 219.63 270.913 221.498 270.913C223.365 270.913 223.37 270.797 225.237 270.797C226.994 270.797 226.994 270.913 228.861 270.913C230.728 270.913 230.733 270.681 232.601 270.681C234.468 270.681 234.473 270.565 236.224 270.565C238.096 270.565 238.096 270.913 239.964 270.913C241.831 270.913 241.836 270.565 243.703 270.565C244.758 270.565 245.808 271.266 246.509 271.967C247.327 272.667 247.564 273.716 247.564 274.866V278.481C247.564 280.235 247.796 280.235 247.796 282.1V285.72C247.739 286.784 247.279 287.786 246.509 288.523C245.808 289.223 244.758 289.924 243.703 289.924C241.836 289.924 241.836 289.571 239.964 289.571C238.091 289.571 238.096 289.924 236.224 289.924C234.473 289.924 234.473 289.687 232.601 289.687C230.728 289.687 230.733 289.924 228.861 289.924C226.989 289.924 226.994 289.687 225.121 289.687C223.37 289.687 223.37 289.808 221.498 289.808C219.626 289.808 219.63 289.687 217.758 289.687C216.7 289.768 215.706 290.224 214.955 290.974C214.205 291.725 213.749 292.718 213.67 293.776C213.67 295.878 213.903 295.878 213.903 297.98C213.903 299.029 214.019 300.198 214.836 300.879C215.212 301.265 215.665 301.567 216.165 301.768C216.664 301.968 217.201 302.062 217.739 302.044H221.246C222.998 302.044 222.998 302.16 224.754 302.16C226.51 302.16 226.505 301.812 228.261 301.812H231.764C233.52 301.812 233.52 302.295 235.271 302.295C237.022 302.295 237.022 301.947 238.657 301.947C240.409 301.947 240.409 302.063 242.16 302.063C243.911 302.063 243.916 302.179 245.667 302.179C247.419 302.179 247.419 301.831 249.175 301.831C250.931 301.831 250.926 301.947 252.682 301.947C254.438 301.947 254.433 302.179 256.185 302.179H259.571C260.096 302.149 260.622 302.238 261.107 302.441C261.592 302.643 262.025 302.954 262.372 303.349C263.141 304.039 263.604 305.005 263.659 306.036V309.65C263.659 311.521 263.543 311.521 263.543 313.27V316.889C263.594 317.423 263.526 317.961 263.345 318.466C263.163 318.97 262.872 319.428 262.493 319.807C262.113 320.187 261.654 320.477 261.149 320.659C260.644 320.84 260.105 320.908 259.571 320.857C257.815 320.857 257.815 320.741 256.064 320.741C254.196 320.741 254.196 320.857 252.44 320.857C250.684 320.857 250.689 321.21 248.817 321.21C247.066 321.21 247.066 321.094 245.314 321.094H241.691C239.935 321.094 239.935 320.978 238.067 320.978H223.839C222.083 320.978 222.083 320.741 220.216 320.741C218.46 320.741 218.46 321.094 216.708 321.094C214.836 321.094 214.836 320.741 213.085 320.741C211.334 320.741 211.334 321.094 209.578 321.094C207.71 321.094 207.71 320.857 205.954 320.857C204.198 320.857 204.203 320.978 202.335 320.978H198.833C197.754 320.961 196.719 320.544 195.93 319.808C195.161 319.031 194.703 318 194.643 316.909C194.643 315.043 194.876 315.043 194.876 313.289C194.876 311.424 194.996 311.424 194.996 309.554C194.996 307.684 194.876 307.688 194.876 305.934C194.876 304.069 194.643 304.069 194.643 302.199V294.849C194.643 293.099 194.996 293.099 194.996 291.234C194.996 289.368 194.643 289.364 194.643 287.498V280.283C194.643 278.413 194.996 278.413 194.996 276.548C194.996 274.683 194.513 274.678 194.513 272.928C194.513 271.058 194.861 271.058 194.861 269.193C194.861 267.439 194.513 267.439 194.513 265.573V261.838C194.513 260.089 194.861 260.089 194.861 258.218C194.861 256.348 194.982 256.353 194.982 254.599C194.982 252.733 194.745 252.733 194.745 250.863C194.745 249.114 194.629 249.114 194.629 247.244C194.629 245.374 194.745 245.378 194.745 243.508C194.804 242.48 195.266 241.516 196.032 240.826C196.849 240.126 197.667 239.304 198.838 239.304C200.589 239.304 200.589 239.541 202.461 239.541C204.212 239.541 204.212 239.773 205.964 239.773C207.836 239.773 207.836 239.29 209.587 239.29C211.459 239.29 211.459 239.41 213.211 239.41C214.962 239.41 214.967 239.526 216.834 239.526H223.965C225.716 239.526 225.716 239.642 227.589 239.642C229.34 239.642 229.34 239.526 231.091 239.526C232.963 239.526 232.963 239.41 234.715 239.41H238.338C240.094 239.41 240.094 239.526 241.962 239.526C243.713 239.526 243.713 239.758 245.469 239.758C247.336 239.758 247.336 239.642 249.093 239.642H252.716C254.467 239.642 254.467 239.41 256.219 239.41C258.091 239.41 258.091 239.29 259.842 239.29C260.94 239.326 261.981 239.787 262.745 240.575C263.562 241.276 263.679 242.445 263.679 243.474C263.688 245.354 263.925 245.354 263.925 247.104Z" fill="white"/>
<path d="M365.18 301.14C365.516 302.436 365.723 303.762 365.8 305.098C365.762 306.39 365.6 307.675 365.316 308.935C365.069 310.293 364.348 311.41 363.831 312.642C363.354 313.844 362.775 315.004 362.099 316.107C361.424 317.217 360.635 318.254 359.743 319.199C358.877 320.064 358.011 321.181 357.024 322.046C356.032 322.785 354.794 323.529 353.676 324.269C352.563 324.887 351.325 325.259 350.212 325.878C348.974 326.496 347.982 327.487 346.743 327.98C345.531 328.467 344.291 328.881 343.028 329.217C341.79 329.589 340.43 329.7 339.192 330.082C337.953 330.329 336.715 330.826 335.351 331.073C334.112 331.319 332.753 331.445 331.514 331.691C330.15 331.817 328.79 331.445 327.552 331.566C326.188 331.566 324.949 332.049 323.59 332.049C322.23 332.049 320.987 331.566 319.628 331.566C318.268 331.566 317.025 331.817 315.666 331.691C314.301 331.691 313.063 331.566 311.703 331.445C310.344 331.324 309.101 330.962 307.862 330.826C306.503 330.58 305.139 330.701 303.9 330.454C302.541 330.208 301.176 329.836 299.938 329.589C298.699 329.343 297.461 328.845 296.222 328.623L292.386 327.511C291.022 327.139 289.662 327.028 288.424 326.646C287.185 326.163 286.073 325.409 284.834 324.911L281.24 323.428C279.88 322.809 278.516 322.563 277.529 322.07C277.047 321.771 276.633 321.374 276.313 320.905C275.993 320.437 275.775 319.907 275.672 319.349C275.525 318.801 275.505 318.227 275.612 317.669C275.719 317.112 275.951 316.586 276.291 316.131C277.258 314.522 277.65 314.647 278.642 313.164C279.755 311.554 279.508 311.434 280.621 309.824C281.733 308.215 281.985 308.341 282.977 306.857C283.611 305.886 284.58 305.181 285.7 304.876C286.825 304.629 288 304.76 289.043 305.248C290.011 305.731 291.273 306.215 292.633 306.857C293.746 307.225 295.11 307.476 296.474 307.969C297.587 308.341 298.825 308.834 300.185 309.206C301.45 309.524 302.733 309.771 304.026 309.945C305.264 310.197 306.624 310.317 307.988 310.564C309.226 310.689 310.465 311.182 311.824 311.308C313.063 311.434 314.427 311.308 315.786 311.434L319.628 311.801C320.987 311.801 322.226 311.68 323.59 311.68C324.954 311.68 326.314 311.68 327.673 311.554C329.037 311.554 330.397 311.68 331.635 311.554C333.125 311.308 334.485 311.182 335.723 310.936C337.208 310.564 338.447 310.317 339.685 309.969C340.938 309.497 342.109 308.83 343.154 307.993C344.639 307.026 345.631 306.012 345.631 304.9C345.631 304.035 344.513 303.291 342.907 302.552C341.94 302.068 340.677 301.682 339.438 301.189C338.2 300.942 337.087 300.222 335.849 299.952C334.61 299.58 333.372 299.333 332.133 299.087C330.895 298.84 329.656 298.715 328.418 298.468C327.179 298.222 325.815 298.222 324.703 298.096C323.343 297.85 322.105 297.477 320.987 297.357C319.749 297.105 318.51 297.105 317.272 296.873C316.159 296.753 314.921 296.134 313.682 296.008C312.569 295.762 311.331 295.636 310.092 295.39C308.854 295.018 307.615 294.65 306.503 294.423C305.264 294.177 304.026 294.177 302.787 293.805C301.549 293.433 300.557 292.693 299.444 292.321C298.226 292.024 297.028 291.653 295.855 291.21C294.616 290.727 293.746 289.973 292.633 289.354C291.556 288.766 290.521 288.104 289.537 287.373C288.569 286.633 287.311 286.141 286.566 285.271C285.7 284.304 285.202 283.169 284.462 282.057C283.743 281.045 283.121 279.967 282.604 278.839C282.268 277.669 282.06 276.467 281.985 275.253C281.738 274.016 281.24 272.904 281.24 271.542C281.24 270.179 281.612 268.947 281.859 267.584C282.111 266.347 282.73 265.235 283.223 263.998C283.762 262.818 284.425 261.698 285.202 260.659C285.922 259.548 286.752 258.512 287.679 257.566C288.55 256.6 289.29 255.59 290.403 254.845C291.401 253.964 292.48 253.178 293.625 252.497C294.729 251.822 295.889 251.243 297.093 250.767C298.206 250.148 299.198 249.278 300.436 248.785C301.675 248.293 303.034 248.167 304.273 247.674C305.511 247.302 306.75 246.93 307.988 246.683C309.347 246.311 310.586 246.2 311.95 245.939C313.217 245.665 314.498 245.458 315.786 245.321C317.025 245.074 318.389 244.837 319.628 244.702C320.987 244.702 322.226 244.828 323.59 244.828C324.954 244.828 326.188 244.702 327.426 244.702C328.665 244.702 329.903 244.948 331.142 244.948L334.857 245.321C336.216 245.446 337.455 245.321 338.693 245.572C339.941 245.655 341.182 245.816 342.409 246.055C343.773 246.302 344.886 246.794 346.124 247.046C347.363 247.413 348.722 247.529 349.84 247.911L353.429 249.022C354.794 249.506 355.785 250.259 356.772 250.631C357.885 251.115 359.002 251.598 359.249 252.734C359.496 253.7 359.002 254.836 358.383 255.826C357.416 257.436 357.638 257.682 356.651 259.291C355.664 260.9 355.785 260.896 354.794 262.63L352.81 265.844C351.572 267.946 348.848 268.69 346.521 267.946C345.529 267.574 344.291 267.463 342.806 267.081C341.693 266.835 340.454 266.337 339.09 266.115C337.852 265.868 336.613 265.868 335.254 265.631C334.015 265.506 332.777 265.259 331.413 265.148C330.174 265.027 328.815 265.027 327.45 265.027C326.212 265.027 324.973 264.655 323.614 264.655C322.288 264.711 320.965 264.835 319.652 265.027C318.326 265.083 317.003 265.207 315.69 265.4C314.205 265.646 312.84 265.52 311.602 265.767C310.314 266.074 309.067 266.531 307.886 267.13C306.401 267.613 305.042 267.995 304.171 268.613C302.565 269.478 301.699 270.594 301.699 271.58C301.699 272.566 303.058 273.069 304.79 273.682C305.908 274.166 307.02 274.919 308.506 275.292C309.744 275.538 311.108 275.417 312.468 275.664L316.43 276.282C317.794 276.408 319.154 276.765 320.392 276.901C321.756 277.147 323.116 277.147 324.233 277.384C325.525 277.562 326.805 277.811 328.07 278.128L332.032 278.868L335.747 279.612C337.044 279.859 338.325 280.182 339.584 280.578C340.822 280.825 342.061 281.318 343.299 281.69C344.599 281.987 345.882 282.359 347.14 282.801C348.379 283.285 349.617 283.545 350.856 284.038C351.968 284.657 352.96 285.527 354.073 286.145C355.223 286.787 356.339 287.489 357.416 288.247C358.383 289.112 359.52 289.852 360.391 290.842C361.257 291.708 361.75 292.945 362.49 294.061C363.11 295.172 363.981 296.163 364.474 297.4C364.778 298.633 365.013 299.882 365.18 301.14Z" fill="white"/>
<path d="M458.622 211.029C458.622 214.088 458.816 214.088 458.816 216.959V222.883C458.816 225.942 458.622 225.942 458.622 228.813C458.634 230.599 457.938 232.317 456.687 233.592C455.347 234.737 453.813 235.888 451.902 235.888H445.783C442.715 235.888 442.715 235.506 439.653 235.506C436.591 235.506 436.591 235.888 433.722 235.888C430.655 235.888 430.655 235.694 427.597 235.694H421.468C418.406 235.694 418.406 235.888 415.343 235.888C413.653 235.876 412.018 236.489 410.752 237.608C410.135 238.202 409.645 238.916 409.313 239.705C408.98 240.494 408.812 241.342 408.817 242.199C408.817 245.258 409.011 245.258 409.011 248.123C409.011 251.182 408.817 251.182 408.817 254.053C408.817 257.112 408.624 257.112 408.624 260.171C408.624 263.041 409.011 263.041 409.011 266.095V272.025C409.011 275.084 408.817 275.084 408.817 277.954V289.808C408.817 292.867 408.624 292.867 408.624 295.926C408.624 298.792 408.435 298.792 408.435 301.856V307.78C408.435 310.839 408.817 310.839 408.817 313.71V319.634C408.817 322.693 408.435 322.693 408.435 325.564C408.435 328.623 408.624 328.623 408.624 331.682C408.618 333.404 407.931 335.054 406.712 336.272C405.493 337.49 403.841 338.176 402.117 338.181C399.054 338.181 399.054 338.563 396.181 338.563C393.118 338.563 393.118 338.375 390.25 338.375C387.187 338.375 387.187 338.563 384.314 338.563C382.379 338.563 381.063 337.229 379.911 336.079C379.258 335.547 378.73 334.876 378.366 334.116C378.002 333.356 377.811 332.524 377.807 331.682V325.564C377.807 322.693 377.425 322.693 377.425 319.634C377.425 316.575 378 316.575 378 313.71C378 310.651 377.618 310.651 377.618 307.78C377.618 304.721 377.425 304.721 377.425 301.662C377.425 298.792 377.807 298.792 377.807 295.733C377.807 292.867 378 292.867 378 289.808C378 286.938 377.231 286.938 377.231 283.879C377.231 280.82 377.618 280.82 377.618 277.954C377.618 274.895 377.807 274.895 377.807 272.025C377.807 268.966 377.425 268.966 377.425 265.907C377.425 263.041 377.618 263.041 377.618 259.977V254.053C377.618 251.182 377.231 251.182 377.231 248.123C377.231 245.064 378 245.064 378 242.199C377.983 241.284 377.769 240.384 377.373 239.559C376.976 238.734 376.406 238.005 375.702 237.419C374.551 236.081 372.829 235.694 370.918 235.694C367.851 235.694 367.851 235.124 364.793 235.124H358.48C355.418 235.124 355.418 235.694 352.35 235.694C349.283 235.694 349.293 235.888 346.226 235.888C343.159 235.888 343.164 235.694 339.913 235.694C336.85 235.694 336.85 235.888 333.788 235.888C332.061 235.888 330.343 234.737 329.003 233.592C327.852 232.447 327.47 230.726 327.47 228.813C327.47 225.942 327.088 225.942 327.088 222.883C327.088 220.018 326.894 220.018 326.894 216.959C326.894 214.088 327.276 214.088 327.276 211.029C327.246 210.17 327.404 209.315 327.738 208.523C328.072 207.732 328.575 207.022 329.211 206.443C330.363 205.293 332.08 204.148 333.807 204.148C336.87 204.148 336.87 204.53 339.738 204.53C342.801 204.53 342.801 204.336 345.674 204.336C348.548 204.336 348.543 204.53 351.605 204.53C354.479 204.53 354.479 204.148 357.541 204.148C360.41 204.148 360.41 204.723 363.477 204.723C366.346 204.723 366.346 204.148 369.409 204.148H375.151C378.213 204.148 378.213 204.336 381.087 204.336H387.023C389.897 204.336 389.897 204.53 392.959 204.53H404.826C407.7 204.53 407.7 204.336 410.568 204.336C413.631 204.336 413.631 204.148 416.499 204.148C419.567 204.148 419.567 204.53 422.435 204.53C425.304 204.53 425.309 204.148 428.371 204.148C431.24 204.148 431.24 204.723 434.303 204.723C437.176 204.723 437.176 204.336 440.045 204.336C443.107 204.336 443.107 204.148 445.981 204.148C449.043 204.148 449.043 204.723 451.917 204.723C453.852 204.723 455.744 204.911 456.89 206.25C458.032 207.395 458.622 209.309 458.622 211.029Z" fill="white"/>
</svg>
