<svg width="233" height="62" viewBox="0 0 233 62" xmlns="http://www.w3.org/2000/svg">
<path d="M152.929 50.609C152.929 51.2251 152.845 51.2251 152.845 51.8831C152.845 52.5411 152.929 52.5385 152.929 53.1572C152.925 53.348 152.877 53.5356 152.791 53.7063C152.704 53.877 152.58 54.0265 152.427 54.1442C152.177 54.3906 151.843 54.637 151.468 54.637C150.717 54.637 150.717 54.6777 150.006 54.6777C149.534 54.6568 149.069 54.5598 148.629 54.3906C148.218 54.1822 147.839 53.9174 147.504 53.6041C147.045 53.1519 147.045 53.1519 146.586 52.7403C146.128 52.2881 146.169 52.2475 145.71 51.7953C145.251 51.3837 145.21 51.4256 144.751 50.9734C144.333 50.5618 144.333 50.5212 143.875 50.1096C143.416 49.6574 143.332 49.7399 142.875 49.3231C142.457 48.8709 142.416 48.9128 141.957 48.4606C141.498 48.049 141.498 48.049 141.039 47.5968C140.58 47.1865 140.663 47.104 140.205 46.6517C139.788 46.2402 139.788 46.1995 139.329 45.7879L138.411 44.8835C137.994 44.4732 137.911 44.5139 137.453 44.1036C136.994 43.6514 137.035 43.6514 136.576 43.1991C136.117 42.7876 136.117 42.7876 135.658 42.3353C135.2 41.9238 135.158 41.9657 134.7 41.5489C134.241 41.0967 134.282 41.056 133.823 40.6444C133.364 40.1922 133.323 40.2342 132.864 39.8226C132.406 39.3704 132.447 39.3704 131.988 38.9181C131.53 38.5065 131.572 38.4253 131.154 38.0137C130.57 37.4383 130.07 37.6847 130.07 38.5065C130.07 39.0833 130.029 39.0833 130.029 39.6994V40.9328C130.029 41.5489 130.111 41.5489 130.111 42.1663C130.111 42.7836 129.986 42.7823 129.986 43.3984V44.5912C129.986 45.2073 130.07 45.2073 130.07 45.8246V47.0568C130.07 47.6742 129.986 47.6742 129.986 48.2496C129.986 48.8657 130.07 48.8657 130.07 49.483C130.07 50.1004 130.111 50.0991 130.111 50.7165C130.111 51.3339 130.07 51.3325 130.07 51.9486C130.07 52.524 129.986 52.524 129.986 53.1414C129.986 53.553 129.904 53.9279 129.653 54.2097C129.476 54.3778 129.25 54.4874 129.008 54.523C128.713 54.5753 128.415 54.6059 128.115 54.6147C127.803 54.6357 127.488 54.6619 127.175 54.6619H126.025C125.707 54.6619 125.388 54.6462 125.071 54.6187C124.827 54.6137 124.584 54.5834 124.346 54.5282C124.114 54.4515 123.904 54.3206 123.735 54.1468C123.484 53.8991 123.192 53.5714 123.192 53.1598C123.192 52.5044 123.234 52.5424 123.234 51.8857V50.5749C123.234 49.9195 123.317 49.9195 123.317 49.3008C123.317 48.6454 123.359 48.6454 123.359 47.9901C123.359 47.374 123.317 47.374 123.317 46.716C123.317 46.058 123.234 46.0606 123.234 45.4052V44.1311C123.234 43.4757 123.359 43.4757 123.359 42.8203C123.359 42.2043 123.234 42.2043 123.234 41.5462C123.234 40.8882 123.317 40.8909 123.317 40.2722V38.9299C123.317 38.2745 123.234 38.2745 123.234 37.6558C123.234 37.0005 123.317 37.0005 123.317 36.3451C123.317 35.729 123.276 35.729 123.276 35.071C123.276 34.413 123.192 34.4156 123.192 33.7602C123.192 33.1428 123.276 33.1428 123.276 32.4848C123.276 31.8268 123.317 31.8294 123.317 31.2107V27.3007C123.314 27.1181 123.349 26.9368 123.419 26.768C123.49 26.5993 123.595 26.4466 123.728 26.3195C123.861 26.1923 124.019 26.0934 124.193 26.0288C124.366 25.9643 124.551 25.9354 124.736 25.944C125.654 25.944 125.654 25.8208 126.571 25.8208C127.043 25.8415 127.508 25.939 127.948 26.1092C128.364 26.273 128.739 26.6427 129.032 26.8891C129.532 27.3413 129.49 27.3833 129.949 27.8355C130.408 28.2877 130.533 28.2051 130.992 28.6573C131.451 29.0676 131.408 29.1096 131.909 29.5618C132.368 30.014 132.326 30.0546 132.785 30.5068C133.286 30.9591 133.286 30.9591 133.745 31.4113C134.204 31.8635 134.286 31.7809 134.745 32.1978C135.246 32.65 135.162 32.7326 135.621 33.1848C136.121 33.637 136.121 33.595 136.623 34.0473C137.081 34.4995 137.039 34.5414 137.498 34.9923C137.957 35.4039 137.998 35.4039 138.457 35.8561L139.374 36.7606C139.876 37.2128 139.876 37.1722 140.376 37.6231C140.834 38.0753 140.793 38.1172 141.252 38.5275C141.752 38.9797 141.793 38.9391 142.252 39.3913C142.711 39.8435 142.754 39.8029 143.254 40.2551C143.712 40.7073 143.629 40.7886 144.087 41.2408C144.546 41.6524 144.671 41.5698 145.13 42.0273C145.714 42.5621 146.173 42.4389 146.173 41.617V37.7109C146.173 37.0948 146.048 37.0948 146.048 36.4368C146.048 35.7788 146.173 35.7814 146.173 35.126C146.173 34.4707 146.132 34.4706 146.132 33.8506C146.132 33.1953 146.089 33.1953 146.089 32.5399C146.089 31.8845 146.173 31.8845 146.173 31.2291C146.173 30.5737 146.089 30.5737 146.089 29.955C146.089 29.2996 146.214 29.2996 146.214 28.6442C146.214 27.9888 146.173 27.9888 146.173 27.3334C146.173 26.9638 146.257 26.547 146.507 26.3058C146.797 26.0263 147.184 25.8649 147.59 25.8536C148.217 25.8536 148.217 26.0174 148.883 26.0174C149.51 26.0174 149.51 25.9768 150.177 25.9768C150.802 25.9768 150.802 25.8536 151.47 25.8536C151.845 25.8536 152.135 26.1419 152.429 26.3884C152.679 26.6754 152.887 26.9638 152.887 27.3334C152.887 27.9888 152.93 27.9888 152.93 28.6442C152.93 29.2996 152.887 29.2996 152.887 29.955C152.887 30.5724 152.846 30.5724 152.846 31.2291C152.846 31.8858 152.887 31.8845 152.887 32.5032C152.887 33.1586 152.971 33.1586 152.971 33.8139C152.971 34.4693 152.887 34.4693 152.887 35.088C152.887 35.7434 152.846 35.7434 152.846 36.3988V38.9876C152.846 39.605 152.887 39.605 152.887 40.263C152.887 40.921 152.93 40.9184 152.93 41.5738C152.93 42.1912 152.971 42.1912 152.971 42.8479V44.1232C152.971 44.7786 152.887 44.7786 152.887 45.434C152.887 46.0894 152.93 46.0894 152.93 46.7081C152.93 47.3635 152.971 47.3635 152.971 48.0189V49.293C152.97 49.951 152.929 49.951 152.929 50.609Z" fill="white"/>
<path d="M26.3319 4.015C26.3319 4.42134 26.3571 4.42134 26.3571 4.80147V5.58794C26.3571 5.99428 26.3319 5.99428 26.3319 6.37441C26.331 6.61129 26.2354 6.83828 26.0659 7.0062C25.8863 7.15825 25.6802 7.3103 25.4235 7.3103H24.603C24.192 7.3103 24.192 7.25918 23.7798 7.25918C23.3675 7.25918 23.3688 7.3103 22.9818 7.3103C22.5709 7.3103 22.5709 7.2854 22.1586 7.2854H21.3354C20.9245 7.2854 20.9245 7.3103 20.5135 7.3103C20.2863 7.30864 20.0665 7.38988 19.8964 7.53838C19.814 7.61738 19.7487 7.71198 19.7044 7.8165C19.66 7.92102 19.6376 8.0333 19.6384 8.14658C19.6384 8.55293 19.6637 8.55293 19.6637 8.93305C19.6637 9.33808 19.6384 9.33808 19.6384 9.71952C19.6384 10.1259 19.6132 10.1259 19.6132 10.5309C19.6132 10.911 19.6637 10.911 19.6637 11.3174V12.1038C19.6637 12.5089 19.6384 12.5089 19.6384 12.8903V14.4632C19.6384 14.8683 19.6132 14.8683 19.6132 15.2746C19.6132 15.6547 19.5879 15.6547 19.5879 16.0611V16.8476C19.5879 17.2526 19.6384 17.2526 19.6384 17.634V18.4205C19.6384 18.8255 19.5879 18.8255 19.5879 19.207C19.5879 19.612 19.6132 19.612 19.6132 20.0183C19.6118 20.2465 19.5191 20.465 19.3552 20.6262C19.1914 20.7875 18.9696 20.8785 18.7381 20.8795C18.3271 20.8795 18.3271 20.9306 17.9401 20.9306C17.5292 20.9306 17.5292 20.9057 17.1422 20.9057C16.7299 20.9057 16.7299 20.9306 16.3442 20.9306C16.0876 20.9306 15.9067 20.7537 15.7524 20.6016C15.6648 20.5308 15.5941 20.4419 15.5453 20.341C15.4966 20.2402 15.4711 20.13 15.4705 20.0183V19.207C15.4705 18.8268 15.4186 18.8268 15.4186 18.4205C15.4186 18.0142 15.4958 18.0142 15.4958 17.634C15.4958 17.229 15.4439 17.229 15.4439 16.8476C15.4439 16.4412 15.4186 16.4412 15.4186 16.0362C15.4186 15.6561 15.4705 15.6561 15.4705 15.2497C15.4705 14.8683 15.4958 14.8683 15.4958 14.4632C15.4958 14.0831 15.3934 14.0831 15.3934 13.6768C15.3934 13.2704 15.4439 13.2704 15.4439 12.8903C15.4439 12.4853 15.4705 12.4853 15.4705 12.1038C15.4705 11.6975 15.4186 11.6975 15.4186 11.2925C15.4186 10.9123 15.4439 10.9123 15.4439 10.506V9.71952C15.4439 9.3394 15.3934 9.3394 15.3934 8.93305C15.3934 8.52671 15.4958 8.52671 15.4958 8.14658C15.4933 8.02544 15.4645 7.90623 15.4112 7.79701C15.358 7.68779 15.2816 7.5911 15.1872 7.51348C15.033 7.33521 14.8016 7.2854 14.5449 7.2854C14.1326 7.2854 14.1326 7.20937 13.7217 7.20937H12.8785C12.4662 7.20937 12.4662 7.2854 12.0553 7.2854C11.6443 7.2854 11.643 7.3103 11.2321 7.3103C10.8211 7.3103 10.8211 7.2854 10.3836 7.2854C9.97265 7.2854 9.97265 7.3103 9.56038 7.3103C9.32898 7.3103 9.09757 7.15825 8.91804 7.0062C8.76689 6.83044 8.69275 6.60272 8.7119 6.37309C8.7119 5.99297 8.66003 5.99297 8.66003 5.58663C8.66003 5.2065 8.63477 5.2065 8.63477 4.80016C8.63477 4.42003 8.68663 4.42003 8.68663 4.01369C8.68265 3.90048 8.70352 3.78777 8.74782 3.68325C8.79212 3.57873 8.8588 3.48487 8.9433 3.40811C9.1032 3.23428 9.32335 3.12578 9.56038 3.104C9.97265 3.104 9.97265 3.15512 10.3583 3.15512C10.7693 3.15512 10.7693 3.13022 11.1563 3.13022C11.5433 3.13022 11.5419 3.15512 11.9542 3.15512C12.3412 3.15512 12.3412 3.104 12.7522 3.104C13.1378 3.104 13.1378 3.18003 13.5501 3.18003C13.9358 3.18003 13.9358 3.104 14.3481 3.104H15.1194C15.5303 3.104 15.5303 3.13022 15.9173 3.13022H16.7153C17.101 3.13022 17.101 3.15512 17.5132 3.15512H19.1091C19.4948 3.15512 19.4948 3.13022 19.8805 3.13022C20.2927 3.13022 20.2927 3.104 20.6784 3.104C21.0894 3.104 21.0894 3.15512 21.4764 3.15512C21.8634 3.15512 21.862 3.104 22.2743 3.104C22.6613 3.104 22.6613 3.18003 23.0723 3.18003C23.4579 3.18003 23.4579 3.13022 23.8436 3.13022C24.2545 3.13022 24.2545 3.104 24.6415 3.104C25.0538 3.104 25.0538 3.18003 25.4395 3.18003C25.6962 3.18003 25.9542 3.20624 26.1044 3.3832C26.2577 3.55839 26.3388 3.78379 26.3319 4.015Z" fill="white"/>
<path d="M33.1867 19.0249C33.1867 19.2766 33.2027 19.2766 33.2027 19.5139C33.2011 19.5885 33.1845 19.6621 33.1538 19.7304C33.1231 19.7986 33.0789 19.8602 33.0238 19.9114C32.9688 19.9626 32.9039 20.0026 32.833 20.0288C32.7621 20.0551 32.6865 20.0672 32.6109 20.0644C32.3555 20.0644 32.3555 20.0958 32.1148 20.0958C31.8741 20.0958 31.8595 20.0487 31.6187 20.0487H31.12C31.047 20.0555 30.9734 20.0463 30.9045 20.0219C30.8355 19.9974 30.7729 19.9582 30.721 19.9071C30.6129 19.8035 30.5499 19.6624 30.5455 19.5139V18.4731C30.5455 18.2109 30.5295 18.2109 30.5295 17.9488C30.5295 17.6866 30.5455 17.6866 30.5455 17.4127C30.5455 17.1387 30.5774 17.161 30.5774 16.8884C30.5774 16.6157 30.5934 16.6354 30.5934 16.364C30.587 16.2903 30.5653 16.2186 30.5296 16.1534C30.4939 16.0882 30.445 16.031 30.3859 15.9852C30.3359 15.9349 30.276 15.895 30.21 15.868C30.144 15.841 30.0731 15.8274 30.0016 15.8279C29.7622 15.8279 29.7622 15.7965 29.5055 15.7965C29.2488 15.7965 29.2661 15.8279 29.0108 15.8279C28.7554 15.8279 28.7701 15.8437 28.5147 15.8437H28.0213C27.7819 15.8437 27.7819 15.8122 27.5253 15.8122C27.2686 15.8122 27.2859 15.8279 27.0306 15.8279C26.7752 15.8279 26.7898 15.7965 26.5345 15.7965C26.2792 15.7965 26.2938 15.8122 26.0384 15.8122C25.7831 15.8122 25.7991 15.8279 25.5424 15.8279C25.2857 15.8279 25.303 15.8122 25.0477 15.8122C24.8965 15.8108 24.7495 15.8608 24.6314 15.9538C24.5466 16.0734 24.5071 16.2186 24.5197 16.364C24.5197 16.6262 24.4878 16.6262 24.4878 16.8884V17.4336C24.4878 17.6866 24.4718 17.6866 24.4718 17.958V18.4823C24.4718 18.7444 24.4878 18.7444 24.4878 19.0066C24.4878 19.2687 24.5197 19.2687 24.5197 19.5309C24.5147 19.6033 24.4951 19.674 24.462 19.7389C24.4289 19.8037 24.3829 19.8613 24.3268 19.9084C24.2759 19.958 24.2151 19.9966 24.1483 20.0219C24.0814 20.0471 24.01 20.0585 23.9385 20.0552C23.6832 20.0552 23.6832 20.088 23.4425 20.088C23.2017 20.088 23.1871 20.0552 22.9464 20.0552C22.7057 20.0552 22.6911 20.1024 22.4517 20.1024C22.3004 20.0868 22.1591 20.0204 22.0514 19.9145C21.9437 19.8086 21.8761 19.6695 21.8599 19.5204C21.8599 19.2832 21.9237 19.2832 21.9237 19.0315V18.5268C21.9237 18.2909 21.9077 18.2909 21.9077 18.0379V17.0404C21.9077 16.7874 21.8599 16.7874 21.8599 16.5358C21.8599 16.2841 21.9077 16.2841 21.9077 16.0468C21.9077 15.8096 21.8599 15.7952 21.8599 15.5435C21.8599 15.2918 21.9077 15.2905 21.9077 15.0546C21.9077 14.8186 21.8918 14.8016 21.8918 14.5499C21.8918 14.2983 21.9237 14.2983 21.9237 14.061C21.9237 13.8238 21.8918 13.8093 21.8918 13.5577C21.8918 13.306 21.9077 13.3047 21.9077 13.0687V12.0739C21.9077 11.8222 21.9237 11.8222 21.9237 11.5705C21.9237 11.3188 21.8599 11.3333 21.8599 11.0816C21.8599 10.8299 21.9077 10.8286 21.9077 10.5769C21.9077 10.3253 21.8918 10.341 21.8918 10.088V9.58468C21.8881 9.44052 21.9393 9.30022 22.0354 9.19145C22.0895 9.13767 22.1546 9.09584 22.2264 9.06872C22.2982 9.0416 22.3749 9.02982 22.4517 9.03416H23.9385C24.081 9.04788 24.2126 9.11554 24.3056 9.22291C24.3626 9.26589 24.4095 9.32066 24.4428 9.38339C24.4761 9.44612 24.4951 9.51527 24.4984 9.58599C24.4984 9.84815 24.4824 9.84815 24.4824 10.1208C24.4824 10.3934 24.4505 10.3738 24.4505 10.6451C24.4505 10.9164 24.4665 10.8981 24.4665 11.1694V11.6937C24.4665 11.9559 24.4984 11.9559 24.4984 12.218C24.4984 12.4802 24.4824 12.4802 24.4824 12.7424C24.4795 12.8178 24.4921 12.8931 24.5196 12.9636C24.547 13.0341 24.5887 13.0984 24.642 13.1526C24.7534 13.2446 24.896 13.2914 25.041 13.2837C25.2963 13.2837 25.2963 13.3152 25.5357 13.3152C25.7751 13.3152 25.7924 13.2837 26.0318 13.2837C26.2712 13.2837 26.2871 13.2994 26.5278 13.2994C26.7686 13.2994 26.7832 13.3152 27.0239 13.3152C27.2646 13.3152 27.2792 13.2994 27.5186 13.2994C27.758 13.2994 27.7753 13.2837 28.0147 13.2837C28.2541 13.2837 28.27 13.3152 28.5107 13.3152C28.7515 13.3152 28.7661 13.3309 29.0068 13.3309C29.2475 13.3309 29.2621 13.2837 29.5015 13.2837C29.7409 13.2837 29.7582 13.2994 29.9976 13.2994C30.0714 13.296 30.1438 13.2775 30.2099 13.245C30.2761 13.2125 30.3347 13.1667 30.3819 13.1107C30.4451 13.0644 30.4971 13.0049 30.5341 12.9365C30.5711 12.868 30.5923 12.7923 30.596 12.7148C30.596 12.4632 30.5641 12.4632 30.5641 12.1905C30.5641 11.9179 30.5801 11.9284 30.5801 11.6662C30.5801 11.404 30.5322 11.404 30.5322 11.1419C30.5322 10.8797 30.5482 10.8797 30.5482 10.6176C30.5482 10.3554 30.5322 10.3554 30.5322 10.0933C30.5322 9.83111 30.5801 9.83111 30.5801 9.55847C30.5723 9.41552 30.6198 9.27497 30.7131 9.16523C30.8303 9.07953 30.9743 9.03687 31.12 9.04464C31.3754 9.04464 31.3754 9.02891 31.6147 9.02891C31.8541 9.02891 31.8555 9.06037 32.1108 9.06037C32.3661 9.06037 32.3515 9.01318 32.6069 9.01318C32.7595 9.02341 32.9023 9.09097 33.0058 9.20194C33.1112 9.30157 33.1739 9.43705 33.1814 9.58075C33.1814 9.83242 33.1654 9.83242 33.1654 10.0841C33.1654 10.3358 33.1335 10.3371 33.1335 10.5887V11.5823C33.1335 11.8183 33.1654 11.8183 33.1654 12.0699C33.1654 12.3216 33.1814 12.3229 33.1814 12.5746C33.1814 12.8262 33.1973 12.8262 33.1973 13.0635V13.5682C33.1973 13.8198 33.1495 13.8198 33.1495 14.0558C33.1495 14.2917 33.1654 14.3087 33.1654 14.5604C33.1654 14.8121 33.1973 14.8121 33.1973 15.0493C33.1973 15.2866 33.1495 15.301 33.1495 15.554C33.1495 15.807 33.1335 15.8057 33.1335 16.0416C33.1335 16.2775 33.1495 16.2946 33.1495 16.5462C33.1495 16.7979 33.1973 16.7822 33.1973 17.0352C33.1973 17.2881 33.1814 17.2868 33.1814 17.5398C33.1814 17.7928 33.1654 17.7758 33.1654 18.0274V18.5321C33.1707 18.772 33.1867 18.772 33.1867 19.0249Z" fill="white"/>
<path d="M47.6517 8.51995C47.6517 8.84503 47.6716 8.84503 47.6716 9.15175C47.6716 9.45847 47.6304 9.47814 47.6304 9.78355C47.6457 9.97471 47.5868 10.1645 47.4655 10.3144C47.3405 10.456 47.1344 10.477 46.9269 10.477C46.617 10.477 46.617 10.5386 46.3058 10.5386C45.9946 10.5386 45.996 10.5176 45.6861 10.5176C45.3762 10.5176 45.3749 10.4979 45.065 10.4979C44.7552 10.4979 44.7552 10.477 44.444 10.477C44.1328 10.477 44.1341 10.456 43.8242 10.456C43.5143 10.456 43.513 10.5176 43.2031 10.5176C42.8933 10.5176 42.8933 10.477 42.5821 10.477C42.2709 10.477 42.2722 10.456 41.9623 10.456C41.6525 10.456 41.6511 10.5386 41.3413 10.5386C41.0314 10.5386 41.0301 10.477 40.7202 10.477H40.0991C39.7893 10.477 39.7893 10.456 39.4794 10.456C39.2862 10.4662 39.1036 10.546 38.9661 10.6801C38.9034 10.7516 38.8563 10.8351 38.8277 10.9253C38.7991 11.0155 38.7896 11.1105 38.7998 11.2044V11.9385C38.7918 12.0307 38.8023 12.1236 38.8308 12.2118C38.8593 12.3 38.9053 12.3817 38.9661 12.4523C39.109 12.5779 39.292 12.6502 39.4834 12.6568C39.8145 12.6568 39.8145 12.6764 40.1483 12.6764C40.4822 12.6764 40.4782 12.6568 40.8133 12.6568C41.1245 12.6568 41.1245 12.6764 41.4556 12.6764C41.7868 12.6764 41.7868 12.6358 42.1206 12.6358C42.4544 12.6358 42.4517 12.6148 42.7629 12.6148C43.0941 12.6148 43.0941 12.6764 43.4279 12.6764C43.7617 12.6764 43.7577 12.6148 44.0929 12.6148C44.2838 12.6329 44.4611 12.7202 44.5902 12.86C44.6577 12.926 44.7094 13.006 44.7416 13.0942C44.7738 13.1824 44.7857 13.2766 44.7764 13.3698V14.0016C44.7764 14.3084 44.8177 14.3084 44.8177 14.6348V15.2666C44.8076 15.4521 44.7263 15.6269 44.5902 15.7555C44.4611 15.8952 44.2838 15.9826 44.0929 16.0006C43.7617 16.0006 43.7617 15.939 43.4279 15.939C43.0941 15.939 43.0968 16.0006 42.7629 16.0006C42.4517 16.0006 42.4518 15.96 42.1206 15.96C41.7895 15.96 41.7908 16.0006 41.4556 16.0006C41.1205 16.0006 41.1245 15.96 40.7907 15.96C40.4569 15.96 40.4795 15.9796 40.1497 15.9796C39.8199 15.9796 39.8185 15.96 39.4847 15.96C39.2972 15.9733 39.1208 16.0527 38.9877 16.1836C38.8547 16.3145 38.7738 16.4882 38.7599 16.673C38.7599 17.04 38.8011 17.04 38.8011 17.4071C38.8011 17.5906 38.8224 17.8003 38.9674 17.917C39.0343 17.9848 39.1149 18.0381 39.204 18.0733C39.2932 18.1085 39.3888 18.1249 39.4847 18.1214H40.1045C40.4157 18.1214 40.4157 18.1411 40.7255 18.1411C41.0354 18.1411 41.0354 18.0808 41.3466 18.0808H41.9677C42.2775 18.0808 42.2775 18.1621 42.5874 18.1621C42.8973 18.1621 42.8986 18.1005 43.1872 18.1005C43.4984 18.1005 43.4984 18.1214 43.8083 18.1214C44.1181 18.1214 44.1181 18.1411 44.4293 18.1411C44.7405 18.1411 44.7392 18.0808 45.0504 18.0808C45.3616 18.0808 45.3603 18.1005 45.6701 18.1005C45.98 18.1005 45.9813 18.1411 46.2912 18.1411H46.891C46.984 18.1356 47.0771 18.1512 47.1631 18.1866C47.2491 18.222 47.3257 18.2764 47.387 18.3456C47.5233 18.466 47.6055 18.6347 47.6158 18.8148V19.4466C47.6158 19.773 47.5945 19.773 47.5945 20.0784V20.7102C47.6036 20.8035 47.5916 20.8976 47.5594 20.9858C47.5273 21.074 47.4758 21.1541 47.4085 21.2203C47.3413 21.2866 47.26 21.3374 47.1706 21.3691C47.0811 21.4008 46.9856 21.4126 46.891 21.4036C46.5811 21.4036 46.5811 21.384 46.2699 21.384C45.9587 21.384 45.9388 21.4036 45.6289 21.4036C45.319 21.4036 45.319 21.4652 44.9879 21.4652C44.6567 21.4652 44.6767 21.4456 44.3668 21.4456H43.7258C43.4159 21.4456 43.4159 21.4246 43.0848 21.4246H40.5619C40.2508 21.4246 40.2508 21.384 39.9196 21.384C39.6097 21.384 39.6097 21.4456 39.2999 21.4456C38.9687 21.4456 38.9687 21.384 38.6575 21.384C38.3463 21.384 38.3476 21.4456 38.0378 21.4456C37.7066 21.4456 37.7066 21.4036 37.3968 21.4036C37.0869 21.4036 37.0856 21.4246 36.7544 21.4246H36.1347C35.9424 21.4225 35.7578 21.3496 35.6173 21.2201C35.4799 21.0838 35.3984 20.9022 35.3886 20.7102C35.3886 20.3852 35.4312 20.3852 35.4312 20.0784C35.4312 19.752 35.4511 19.752 35.4511 19.423C35.4511 19.094 35.4312 19.0967 35.4312 18.7912C35.4312 18.4649 35.3886 18.4649 35.3886 18.1359V16.8513C35.3886 16.5459 35.4511 16.5459 35.4511 16.2195C35.4511 15.8931 35.3886 15.8931 35.3886 15.5641V14.3005C35.3886 13.9741 35.4511 13.9741 35.4511 13.6451C35.4511 13.3161 35.3687 13.3187 35.3687 13.0133C35.3687 12.6869 35.4312 12.6869 35.4312 12.3579C35.4312 12.0289 35.3687 12.0512 35.3687 11.7248V11.0694C35.3687 10.7627 35.4312 10.7627 35.4312 10.4363C35.4312 10.1099 35.4511 10.1112 35.4511 9.80452C35.4511 9.4978 35.4099 9.47814 35.4099 9.14913C35.4099 8.84372 35.3886 8.84372 35.3886 8.51733C35.3886 8.19095 35.4099 8.19095 35.4099 7.86194C35.4203 7.68254 35.502 7.51441 35.6373 7.39399C35.7823 7.27078 35.9272 7.13184 36.1347 7.13184C36.4445 7.13184 36.4445 7.17247 36.7757 7.17247C37.0856 7.17247 37.0856 7.2131 37.3968 7.2131C37.708 7.2131 37.7266 7.13184 38.0378 7.13184C38.349 7.13184 38.3689 7.15281 38.6788 7.15281C38.9887 7.15281 38.9887 7.17247 39.3198 7.17247H40.5819C40.8931 7.17247 40.8931 7.19344 41.2242 7.19344C41.5341 7.19344 41.5341 7.17247 41.844 7.17247C42.1751 7.17247 42.1751 7.15281 42.485 7.15281H43.1273C43.4372 7.15281 43.4372 7.17247 43.7684 7.17247C44.0782 7.17247 44.0782 7.2131 44.3894 7.2131C44.7006 7.2131 44.7206 7.19344 45.0304 7.19344H45.6715C45.9827 7.19344 45.9827 7.15281 46.2925 7.15281C46.6237 7.15281 46.6237 7.13184 46.9335 7.13184C47.129 7.13736 47.3146 7.21776 47.4509 7.35598C47.5958 7.47919 47.6171 7.68236 47.6171 7.86587C47.6105 8.21192 47.6517 8.21192 47.6517 8.51995Z" fill="white"/>
<path d="M39.0675 38.7781V42.1534C39.0675 42.7039 39.1792 42.7039 39.1792 43.2531V44.3909C39.1933 44.7308 39.1296 45.0694 38.993 45.3818C38.8466 45.6783 38.5948 45.9116 38.2855 46.0372C38.0112 46.1937 37.7248 46.3287 37.4291 46.4409C37.0939 46.6245 36.7641 46.7333 36.4236 46.8814C36.0832 47.0295 35.7587 47.2104 35.4196 47.3205C35.0472 47.4673 34.7546 47.6508 34.3769 47.7609C34.0418 47.871 33.6694 47.871 33.297 47.9811L32.2171 48.2013C31.8461 48.2747 31.4737 48.3481 31.1386 48.3848C30.7662 48.4582 30.3938 48.5683 30.0215 48.6051C29.6863 48.6418 29.314 48.7152 28.9416 48.7519C28.5692 48.7886 28.1968 48.862 27.8258 48.862C27.4547 48.862 27.081 48.8253 26.7087 48.8253C26.3363 48.8253 25.9639 48.7152 25.5915 48.7152C25.1819 48.6785 24.8096 48.7886 24.4372 48.7886C24.0648 48.7519 23.6938 48.6418 23.3214 48.6051C22.949 48.5316 22.5394 48.5316 22.167 48.4582C21.7947 48.3848 21.4595 48.1961 21.0871 48.1279C20.7148 48.0598 20.3052 48.0545 19.9714 47.9811C19.599 47.871 19.2266 47.7976 18.8542 47.6875C18.4819 47.5407 18.1467 47.3939 17.7743 47.2838L16.7317 46.8447C16.3966 46.6979 16.0667 46.5144 15.7276 46.3308C15.3925 46.184 15.0627 45.9638 14.7222 45.7803C14.4243 45.5968 14.1264 45.3399 13.7913 45.1564C13.4934 44.9362 13.1582 44.7527 12.8976 44.501C12.5624 44.2808 12.3018 44.0239 12.0052 43.8037C11.7392 43.5415 11.3722 43.3632 11.1487 43.0709C10.8828 42.8088 10.7391 42.447 10.4838 42.1534C10.2604 41.8598 10.0742 41.5294 9.85075 41.2358C9.66456 40.9055 9.44114 40.6119 9.25495 40.2816C9.106 39.9513 8.95705 39.5842 8.84534 39.2539C8.70018 38.9108 8.58841 38.5548 8.51153 38.1909C8.43706 37.8239 8.36258 37.4568 8.32535 37.0898C8.28811 36.7228 8.13916 36.3558 8.13916 35.9888C8.13916 35.6218 8.13916 35.218 8.1764 34.8523C8.21363 34.4866 8.36258 34.1183 8.44238 33.7513C8.55409 33.3842 8.51685 32.9805 8.6658 32.6135C8.77256 32.2577 8.91838 31.9144 9.10068 31.5898C9.24963 31.2228 9.5103 30.9672 9.73372 30.6368C9.91028 30.3059 10.1093 29.9871 10.3295 29.6826L11.0384 28.7978C11.3043 28.5357 11.448 28.1424 11.7033 27.8803L12.5957 27.1108C12.8936 26.8906 13.2606 26.7805 13.6011 26.5603C13.896 26.3214 14.207 26.1024 14.532 25.9049C14.8672 25.7214 15.1651 25.5012 15.5374 25.3177C15.8712 25.1709 16.2436 25.1342 16.616 24.9874C16.9511 24.8406 17.2809 24.6204 17.6586 24.5102C18.031 24.3634 18.3662 24.2481 18.7385 24.1432C19.1109 24.0384 19.4833 23.923 19.8557 23.8496C20.2267 23.7395 20.5991 23.7395 21.0087 23.6661C21.3811 23.594 21.7534 23.556 22.1258 23.5193C22.5077 23.4505 22.893 23.4019 23.2802 23.3738C23.6525 23.3371 24.0236 23.2991 24.396 23.2991C24.8056 23.2624 25.1779 23.2991 25.5503 23.2624H26.7047C27.1143 23.2624 27.5239 23.227 27.9335 23.227C28.3418 23.2624 28.7514 23.1536 29.161 23.1903C29.5706 23.227 29.943 23.4105 30.3579 23.4826C30.7675 23.5193 31.2144 23.4826 31.5868 23.556C31.9951 23.6294 32.3674 23.8182 32.777 23.8863C33.1867 23.9964 33.5963 24.0331 33.974 24.1485C34.3789 24.2365 34.7785 24.3468 35.1709 24.4788C35.5432 24.5889 35.8771 24.8458 36.2494 25.0293C36.406 25.077 36.5484 25.1616 36.6643 25.2758C36.7802 25.39 36.866 25.5304 36.9144 25.6847C36.9667 25.8345 36.9871 25.9933 36.9743 26.1511C36.9615 26.309 36.9157 26.4626 36.8399 26.6023C36.5739 27.1161 36.6165 27.1528 36.3558 27.6653C36.1324 28.1791 36.0898 28.1424 35.8358 28.6563C35.5818 29.1701 35.6124 29.1701 35.3517 29.6839C35.2011 29.9908 34.9334 30.2264 34.607 30.3393C34.2797 30.4558 33.9193 30.4426 33.6016 30.3026C33.2292 30.1925 32.8941 30.009 32.5217 29.8622C32.1493 29.7521 31.741 29.7521 31.3687 29.642C30.9963 29.5686 30.6239 29.4218 30.2143 29.3483C29.8419 29.2749 29.4323 29.385 29.0599 29.3483L27.863 29.2382C27.4809 29.1816 27.096 29.1448 26.71 29.1281C26.3376 29.1281 25.9653 29.0914 25.5929 29.0914C25.2205 29.1281 24.8481 29.2382 24.4758 29.2749C24.1034 29.3116 23.7323 29.3116 23.36 29.3483C22.9876 29.385 22.6152 29.4585 22.2428 29.5319L21.1616 29.7547C20.7959 29.8307 20.4353 29.9288 20.0817 30.0483C19.7107 30.1951 19.3383 30.2685 19.0032 30.4153C18.6308 30.5621 18.3382 30.7456 17.9978 30.8924C17.6626 31.076 17.2903 31.1848 16.9551 31.3683C16.6572 31.5885 16.4338 31.9555 16.1731 32.1757C15.8752 32.4379 15.5787 32.6161 15.3552 32.9097C15.0893 33.2034 14.9829 33.5651 14.8339 33.9007C14.6477 34.231 14.4243 34.5246 14.3498 34.8916C14.2754 35.2587 14.1636 35.6244 14.1636 35.9914C14.1636 36.3584 14.3871 36.7254 14.4988 37.1292C14.65 37.4824 14.8241 37.8256 15.0201 38.1568C15.2435 38.4504 15.3925 38.8122 15.6851 39.1111C15.951 39.3667 16.2423 39.6603 16.5402 39.9172C16.8753 40.1374 17.2477 40.2475 17.6201 40.4677C17.9412 40.6969 18.277 40.9053 18.6255 41.0916L19.7054 41.5321C20.0764 41.6789 20.4488 41.7942 20.8584 41.9358C21.2308 42.0459 21.5659 42.2661 21.9755 42.3762C22.3479 42.4496 22.7575 42.4863 23.1299 42.523C23.5395 42.5964 23.9119 42.7065 24.3202 42.7432L25.5171 42.8533C25.9267 42.89 26.2991 42.89 26.714 42.89C27.0613 42.9084 27.4093 42.9084 27.7566 42.89C28.1277 42.89 28.4628 42.7799 28.798 42.7432C29.1331 42.7065 29.4629 42.5964 29.8034 42.5597C30.1757 42.4863 30.5109 42.523 30.846 42.4496C31.1812 42.3762 31.511 42.2294 31.8514 42.1193C32.1874 42.0279 32.4781 41.8192 32.6693 41.5321C32.8927 41.2385 33.1162 40.9081 33.1162 40.5411C33.1162 40.3943 33.1534 40.3943 33.1534 40.2475C33.1534 39.8805 32.93 39.5921 32.7066 39.33C32.4674 39.0993 32.1475 38.9679 31.8129 38.9629C31.2556 38.9629 31.2556 38.9275 30.6971 38.9275H28.4947C27.9375 38.9275 27.9375 39.0377 27.3789 39.0377H26.2618C25.9267 39.0377 25.5969 38.8174 25.3681 38.5972C25.2313 38.4848 25.1206 38.3446 25.0435 38.1863C24.9664 38.028 24.9247 37.8552 24.9213 37.6797C24.9213 37.1292 24.9585 37.1292 24.9585 36.5419C24.9585 35.9914 25.033 35.9914 25.033 35.4042C25.033 34.8549 24.9957 34.8549 24.9957 34.2677C25.0002 33.9378 25.1336 33.6223 25.3681 33.3869C25.611 33.1663 25.9317 33.0478 26.2618 33.0566C26.8576 33.0566 26.8576 33.0933 27.4162 33.0933C28.0106 33.0933 28.0107 32.9831 28.5692 32.9831C29.165 32.9831 29.165 33.0566 29.7236 33.0566C30.3194 33.0566 30.3194 33.0198 30.9205 33.0198C31.479 33.0198 31.479 32.9464 32.0735 32.9464H33.2279C33.7864 32.9464 33.7864 33.0198 34.3822 33.0198C34.9408 33.0198 34.9408 32.9097 35.5366 32.9097C36.0938 32.9097 36.0938 33.0933 36.6896 33.0933C37.2854 33.0933 37.2854 32.9464 37.844 32.9464C38.1958 32.9564 38.5298 33.1012 38.7749 33.3502C39.0388 33.5874 39.199 33.9164 39.2218 34.2677C39.2218 34.8549 39.1473 34.8549 39.1473 35.4042C39.1473 35.9534 39.1845 35.9547 39.1845 36.5419C39.1845 37.0924 39.2218 37.0924 39.2218 37.643C39.2218 38.1935 39.0675 38.1909 39.0675 38.7781Z" fill="white"/>
<path d="M75.6053 52.2271C75.7875 52.6767 75.9697 53.1263 75.9697 53.5746C75.9697 54.0229 75.6957 54.4725 75.5135 54.8775C75.3806 55.3258 75.2476 55.7295 74.9669 56.09C74.6967 56.4615 74.3748 56.7937 74.0107 57.077C73.6464 57.347 73.2806 57.6616 72.8258 57.8412C72.4162 58.0207 71.96 58.0653 71.4587 58.1544C71.0092 58.2473 70.5507 58.2913 70.0915 58.2855C69.6009 58.2849 69.1113 58.2411 68.6286 58.1544C68.1738 58.0653 67.6724 58.0234 67.2162 57.8857C66.7614 57.7061 66.3053 57.4361 65.8491 57.2566C65.4395 57.077 64.9381 56.8974 64.5285 56.6733C64.0723 56.4491 63.7079 56.1345 63.2983 55.8645C62.8887 55.6404 62.4778 55.3258 62.0682 55.1016L60.838 54.2929C60.4284 54.0242 59.9722 53.7987 59.6078 53.5746C59.1517 53.3059 58.7873 52.9913 58.3777 52.7212C57.9681 52.4971 57.4667 52.3175 57.0557 52.1379C56.6009 51.8679 56.2365 51.5088 55.8269 51.3738C55.279 51.1942 54.7789 51.0605 54.364 51.0605C53.5448 51.0605 53.5448 51.1496 52.7242 51.1496H51.1284C50.7188 51.1549 50.3271 51.316 50.0352 51.5992C49.716 51.8679 49.579 52.273 49.579 52.7212C49.579 53.395 49.4886 53.395 49.4886 54.0687C49.4886 54.6979 49.579 54.6979 49.579 55.3703V56.7178C49.5741 57.1482 49.4127 57.5626 49.1242 57.8857C48.8502 58.1544 48.3941 58.2003 47.9844 58.2003C47.2557 58.2003 47.2557 58.3799 46.5721 58.3799H45.1704C44.4416 58.3799 44.4416 58.2003 43.758 58.2003C43.3018 58.2003 42.8922 58.1544 42.5731 57.8857C42.2961 57.5586 42.1487 57.1437 42.1581 56.7178V55.3258C42.1581 54.6075 42.2499 54.6075 42.2499 53.8839C42.2499 53.1604 42.1169 53.1656 42.1169 52.4919V49.6684C42.1169 48.9488 42.2499 48.9488 42.2499 48.2266C42.2499 47.5043 42.2033 47.5083 42.2033 46.8345C42.2033 46.1162 42.2499 46.1162 42.2499 45.3927C42.2499 44.6691 42.0677 44.6744 42.0677 44.0006C42.0677 43.2823 42.2007 43.2823 42.2007 42.5587C42.2007 41.8352 42.1555 41.8404 42.1555 41.1667C42.1555 40.4484 42.065 40.4484 42.065 39.7248C42.065 39.0013 42.198 39.0065 42.198 38.3341C42.198 37.6145 42.1528 37.6145 42.1528 36.8922V35.5225C42.1528 34.8042 42.1076 34.8042 42.1076 34.0806C42.1076 33.4069 42.2406 33.4069 42.2406 32.6886C42.2406 31.9702 42.194 31.9702 42.194 31.2467V29.8651C42.194 29.1455 42.061 29.1455 42.061 28.4731C42.0733 28.0358 42.2517 27.6189 42.5611 27.3052C42.835 26.9906 43.2899 26.8556 43.746 26.8556H47.8009C48.4845 26.8556 48.4845 26.946 49.1681 26.946C49.8516 26.946 49.8516 26.8149 50.5352 26.8149H51.901C52.5846 26.8149 52.5846 26.8595 53.223 26.8595C53.9065 26.8595 53.9065 26.95 54.5901 26.95H57.3231C57.7792 26.9945 58.234 26.9945 58.6902 27.0391C59.1464 27.0837 59.6464 27.0391 60.0574 27.1295C60.5574 27.1741 60.9683 27.3537 61.4232 27.4441C61.878 27.5346 62.2889 27.6683 62.7451 27.8033C63.1999 27.8924 63.6109 28.0274 64.0657 28.1624C64.4766 28.342 64.9315 28.4311 65.3424 28.6107C65.752 28.8362 66.2068 29.0157 66.5712 29.1953C66.9822 29.4195 67.3466 29.7341 67.711 29.9582C68.0914 30.2061 68.4564 30.4762 68.8042 30.7669C69.1685 31.0815 69.5795 31.3502 69.8521 31.6648C70.2165 31.9794 70.4453 32.3831 70.7179 32.7423C70.9905 33.1015 71.2645 33.4606 71.4919 33.8198C71.7206 34.2248 71.9481 34.6285 72.1303 35.0322C72.3125 35.4818 72.4494 35.8856 72.5864 36.3352C72.6768 36.7834 72.7194 37.233 72.7686 37.6826C72.859 38.0864 72.8138 38.536 72.8138 38.9842C72.8138 39.4784 72.996 39.9726 72.9468 40.4261L72.6729 41.868C72.5399 42.3163 72.218 42.7213 72.0345 43.1696C71.8649 43.6007 71.6673 44.0206 71.4427 44.4266C71.2376 44.8518 70.9937 45.2576 70.7139 45.6391C70.3947 46.0441 70.1221 46.4033 69.8029 46.7624C69.4385 47.1216 69.0276 47.3903 68.7097 47.6603C68.2988 48.0195 67.9809 48.3786 67.6152 48.6028C67.2495 48.8269 66.933 49.0524 66.8864 49.367C66.8427 49.5517 66.864 49.7457 66.9469 49.917C67.0298 50.0882 67.1693 50.2266 67.3426 50.3094C68.2968 50.815 69.3583 51.092 70.4413 51.1182C71.0331 51.1627 71.5797 51.0277 72.0372 50.9386C72.4946 50.8494 72.9947 50.894 73.5001 50.8481C74.0014 50.8481 74.5028 50.8036 74.8207 51.1182C75.1657 51.423 75.4343 51.8026 75.6053 52.2271ZM65.5366 38.9803C65.5366 38.4861 65.3544 38.0379 65.2174 37.5883C65.0352 37.1387 64.853 36.6458 64.4886 36.2867C64.1694 35.9721 63.7133 35.7479 63.2584 35.4779C62.8283 35.2298 62.3692 35.034 61.8913 34.8946C61.41 34.7631 60.9216 34.6581 60.4284 34.58C59.9722 34.4896 59.4709 34.31 58.9655 34.2209C58.4641 34.1763 57.9641 34.1763 57.4627 34.1304H55.9679C55.1487 34.1304 55.1487 34.2615 54.372 34.2615H52.7335C51.9595 34.2615 51.9595 34.1724 51.1377 34.1724C50.9304 34.1735 50.7258 34.218 50.5373 34.303C50.3489 34.388 50.1809 34.5114 50.0445 34.6652C49.8985 34.8054 49.7828 34.9732 49.7044 35.1586C49.626 35.344 49.5865 35.5431 49.5883 35.744V37.0456C49.5883 37.7193 49.4979 37.7193 49.4979 38.3485C49.4979 39.0209 49.6309 39.0209 49.6309 39.6501V42.2546C49.6309 42.7042 49.7226 43.108 49.9953 43.4226C50.3058 43.7058 50.7119 43.8655 51.135 43.8708C51.9556 43.8708 51.9556 43.8263 52.7309 43.8263C53.5514 43.8263 53.5514 43.9167 54.3707 43.9167C55.146 43.9167 55.146 43.7856 55.9666 43.7856C56.4679 43.7856 56.9693 43.8302 57.4707 43.7856C57.9602 43.7663 58.4485 43.7226 58.9336 43.6546C59.4802 43.5641 59.9815 43.6546 60.4377 43.5641C60.9843 43.475 61.4391 43.2954 61.9006 43.1604C62.402 42.9808 62.9034 42.8458 63.313 42.6217C63.7678 42.353 64.087 41.9479 64.4062 41.6333C64.7705 41.2742 65.1815 40.915 65.3171 40.4667C65.4859 39.9896 65.5604 39.4851 65.5366 38.9803Z" fill="white"/>
<path d="M97.8588 25.7595C97.8588 26.3428 97.896 26.3428 97.896 26.8894C97.896 27.4727 97.8216 27.4727 97.8216 28.018C97.8216 28.3824 97.7471 28.7468 97.5263 28.9657C97.3042 29.2279 96.9345 29.258 96.5648 29.258C96.0102 29.258 96.0102 29.3668 95.4557 29.3668C94.9011 29.3668 94.9011 29.3301 94.3465 29.3301C93.792 29.3301 93.792 29.2934 93.2374 29.2934C92.6828 29.2934 92.6828 29.258 92.1282 29.258C91.5737 29.258 91.5737 29.2213 91.0191 29.2213C90.4645 29.2213 90.4645 29.3301 89.91 29.3301C89.3554 29.3301 89.3554 29.258 88.8008 29.258C88.2462 29.258 88.2462 29.2213 87.6917 29.2213C87.1371 29.2213 87.1371 29.3616 86.5772 29.3616C86.0173 29.3616 86.0226 29.2528 85.4681 29.2528H84.3589C83.8057 29.2528 83.8057 29.2161 83.2511 29.2161C82.9034 29.2329 82.5742 29.3757 82.3268 29.6172C82.0608 29.8714 82.0302 30.1991 82.0302 30.5635V31.8743C82.0302 32.2387 82.1047 32.5664 82.3268 32.7853C82.5802 33.0153 82.9083 33.1491 83.2524 33.1628C83.8429 33.1628 83.8429 33.1995 84.4347 33.1995C85.0265 33.1995 85.0265 33.1628 85.6183 33.1628C86.1729 33.1628 86.1729 33.1995 86.7634 33.1995C87.3539 33.1995 87.3552 33.1261 87.947 33.1261C88.5388 33.1261 88.5388 33.0894 89.0934 33.0894C89.6839 33.0894 89.6839 33.1995 90.2757 33.1995C90.8675 33.1995 90.8675 33.0894 91.4593 33.0894C91.7918 33.0894 92.1243 33.3083 92.3463 33.5272C92.6043 33.7461 92.6788 34.0738 92.6788 34.4448V35.5747C92.6788 36.1213 92.7533 36.1213 92.7533 36.7032V37.8331C92.735 38.1649 92.5895 38.4774 92.3463 38.7074C92.1243 38.9263 91.7918 39.1452 91.4593 39.1452C90.8675 39.1452 90.8675 39.0364 90.2757 39.0364C89.6839 39.0364 89.6839 39.1452 89.0934 39.1452C88.5388 39.1452 88.5388 39.0718 87.947 39.0718C87.3552 39.0718 87.3552 39.1452 86.7634 39.1452C86.1716 39.1452 86.1782 39.0613 85.5851 39.0613C85.0305 39.0613 85.0305 39.098 84.4387 39.098C83.8469 39.098 83.8469 39.0613 83.2524 39.0613C82.9174 39.0856 82.6024 39.2278 82.3648 39.4619C82.1273 39.696 81.983 40.0065 81.9584 40.3367C81.9584 40.9921 82.0316 40.9921 82.0316 41.6475C82.0316 41.9752 82.0688 42.3396 82.3281 42.5585C82.4476 42.6798 82.5916 42.775 82.7509 42.8378C82.9101 42.9006 83.081 42.9296 83.2524 42.9229H84.3602C84.9148 42.9229 84.9148 42.9596 85.4694 42.9596C86.024 42.9596 86.024 42.8495 86.5785 42.8495H87.6877C88.2422 42.8495 88.2422 42.9963 88.7968 42.9963C89.3514 42.9963 89.3514 42.8862 89.8687 42.8862C90.4233 42.8862 90.4233 42.9229 90.9779 42.9229C91.5324 42.9229 91.5324 42.9596 92.087 42.9596C92.6416 42.9596 92.6416 42.8495 93.1962 42.8495C93.7507 42.8495 93.7507 42.8862 94.3053 42.8862C94.8599 42.8862 94.8599 42.9596 95.4144 42.9596H96.4864C96.6526 42.9496 96.819 42.9773 96.9727 43.0404C97.1265 43.1036 97.2635 43.2006 97.3734 43.324C97.6159 43.5393 97.7621 43.8404 97.7803 44.1616V45.2915C97.7803 45.8735 97.7431 45.8735 97.7431 46.4201V47.55C97.7591 47.7166 97.7376 47.8846 97.6802 48.0421C97.6227 48.1995 97.5306 48.3425 97.4105 48.4609C97.2905 48.5792 97.1454 48.67 96.9856 48.7266C96.8259 48.7833 96.6554 48.8045 96.4864 48.7887C95.9318 48.7887 95.9318 48.752 95.3772 48.752C94.7867 48.752 94.7867 48.7887 94.2322 48.7887C93.6776 48.7887 93.6776 48.8988 93.0858 48.8988C92.5312 48.8988 92.5312 48.8621 91.9766 48.8621H90.8329C90.2783 48.8621 90.2783 48.8254 89.6865 48.8254H85.1781C84.6236 48.8254 84.6236 48.752 84.0318 48.752C83.4772 48.752 83.4772 48.8621 82.9226 48.8621C82.3321 48.8621 82.3321 48.752 81.7776 48.752C81.223 48.752 81.223 48.8621 80.6684 48.8621C80.0766 48.8621 80.0766 48.7887 79.522 48.7887C78.9675 48.7887 78.9675 48.8254 78.3757 48.8254H77.2678C76.9222 48.8229 76.5901 48.6929 76.3369 48.461C76.1148 48.2067 75.93 47.9144 75.93 47.55C75.93 46.9667 76.0044 46.9667 76.0044 46.4201C76.0044 45.8381 76.0417 45.8381 76.0417 45.2548C76.0417 44.6715 76.0044 44.6715 76.0044 44.1249C76.0044 43.5416 75.93 43.5416 75.93 42.9596V40.6618C75.93 40.1152 76.0417 40.1152 76.0417 39.5332C76.0417 38.9512 75.93 38.9499 75.93 38.3666V36.1082C75.93 35.5249 76.0417 35.5249 76.0417 34.9416C76.0417 34.3583 75.894 34.3583 75.894 33.8117C75.894 33.2297 76.0044 33.2297 76.0044 32.6464C76.0044 32.0998 75.894 32.0998 75.894 31.5165V30.3512C75.894 29.8046 76.0044 29.8046 76.0044 29.2213C76.0044 28.638 76.0417 28.638 76.0417 28.0914C76.0417 27.5081 75.9672 27.5081 75.9672 26.9261C75.9672 26.3795 75.93 26.3795 75.93 25.7962C75.93 25.2129 75.9672 25.2129 75.9672 24.6296C75.9857 24.3085 76.1319 24.0076 76.3741 23.792C76.6335 23.5731 76.8915 23.3188 77.2612 23.3188C77.8158 23.3188 77.8158 23.3909 78.4076 23.3909C78.9621 23.3909 78.9621 23.4643 79.5167 23.4643C80.1085 23.4643 80.1085 23.3188 80.6631 23.3188C81.2536 23.3188 81.2536 23.3542 81.8082 23.3542C82.3627 23.3542 82.3627 23.3909 82.9545 23.3909H85.2154C85.7699 23.3909 85.7699 23.4276 86.3618 23.4276C86.9163 23.4276 86.9163 23.3909 87.4709 23.3909C88.0614 23.3909 88.0614 23.3542 88.616 23.3542H89.769C90.3236 23.3542 90.3236 23.3909 90.9154 23.3909C91.4699 23.3909 91.4699 23.4643 92.0245 23.4643C92.615 23.4643 92.615 23.4276 93.1696 23.4276H94.3159C94.8705 23.4276 94.8705 23.3542 95.4251 23.3542C96.0169 23.3542 96.0169 23.3188 96.5715 23.3188C96.9196 23.3271 97.2509 23.4681 97.4957 23.7121C97.7537 23.931 97.791 24.2954 97.791 24.6296C97.7843 25.2129 97.8588 25.2129 97.8588 25.7595Z" fill="white"/>
<path d="M120.233 28.4151C120.233 28.9302 120.265 28.9302 120.265 29.4126C120.265 29.9277 120.199 29.9277 120.199 30.4114C120.199 30.7338 120.134 31.055 119.933 31.249C119.737 31.4744 119.411 31.5111 119.084 31.5111C118.593 31.5111 118.593 31.6081 118.103 31.6081C117.614 31.6081 117.613 31.5767 117.123 31.5767C116.634 31.5767 116.633 31.5439 116.143 31.5439C115.654 31.5439 115.652 31.5111 115.163 31.5111C114.674 31.5111 114.672 31.4797 114.183 31.4797C113.693 31.4797 113.692 31.5767 113.201 31.5767C112.711 31.5767 112.712 31.5111 112.221 31.5111C111.731 31.5111 111.732 31.4797 111.241 31.4797C110.75 31.4797 110.752 31.6107 110.261 31.6107C109.77 31.6107 109.772 31.5137 109.281 31.5137H108.301C107.81 31.5137 107.81 31.4823 107.321 31.4823C107.014 31.4976 106.723 31.6236 106.504 31.8362C106.275 32.0616 106.238 32.3513 106.238 32.6738V33.8325C106.238 34.155 106.303 34.4446 106.504 34.6386C106.73 34.8365 107.019 34.9502 107.321 34.9598C107.843 34.9598 107.843 34.9926 108.366 34.9926C108.889 34.9926 108.889 34.9598 109.411 34.9598C109.902 34.9598 109.902 34.9926 110.425 34.9926C110.947 34.9926 110.947 34.9283 111.47 34.9283C111.993 34.9283 111.993 34.8956 112.483 34.8956C113.006 34.8956 113.006 34.9926 113.529 34.9926C114.051 34.9926 114.051 34.8956 114.574 34.8956C114.869 34.8956 115.163 35.0896 115.359 35.2822C115.587 35.4749 115.652 35.7659 115.652 36.0871V37.0859C115.652 37.5695 115.718 37.5695 115.718 38.0847V39.0822C115.702 39.3755 115.573 39.6519 115.359 39.8556C115.163 40.0482 114.869 40.2422 114.574 40.2422C114.051 40.2422 114.051 40.1452 113.529 40.1452C113.006 40.1452 113.006 40.2422 112.483 40.2422C111.993 40.2422 111.993 40.178 111.47 40.178C110.947 40.178 110.947 40.2422 110.425 40.2422C109.902 40.2422 109.902 40.178 109.379 40.178C108.889 40.178 108.889 40.2095 108.366 40.2095C107.843 40.2095 107.843 40.178 107.321 40.178C107.024 40.1993 106.746 40.3249 106.536 40.5318C106.326 40.7388 106.198 41.0133 106.177 41.3053C106.177 41.8846 106.242 41.8846 106.242 42.464C106.242 42.7537 106.275 43.0761 106.508 43.2688C106.614 43.3743 106.742 43.4568 106.882 43.511C107.022 43.5651 107.173 43.5898 107.323 43.5834H108.303C108.793 43.5834 108.793 43.6162 109.283 43.6162C109.774 43.6162 109.774 43.5192 110.264 43.5192H111.244C111.735 43.5192 111.735 43.6503 112.224 43.6503C112.713 43.6503 112.715 43.5533 113.172 43.5533C113.662 43.5533 113.662 43.586 114.152 43.586C114.643 43.586 114.642 43.6188 115.132 43.6188C115.623 43.6188 115.623 43.5218 116.113 43.5218C116.602 43.5218 116.603 43.5533 117.093 43.5533C117.582 43.5533 117.583 43.6188 118.073 43.6188H119.026C119.173 43.6101 119.32 43.6345 119.456 43.6902C119.592 43.7458 119.714 43.8312 119.811 43.9399C120.025 44.1309 120.154 44.3968 120.17 44.6805V45.6794C120.17 46.1945 120.137 46.1945 120.137 46.6782V47.6757C120.151 47.823 120.132 47.9716 120.082 48.1109C120.031 48.2502 119.95 48.3768 119.844 48.4815C119.738 48.5862 119.609 48.6665 119.468 48.7166C119.327 48.7668 119.176 48.7855 119.026 48.7715C118.536 48.7715 118.536 48.7387 118.046 48.7387C117.524 48.7387 117.524 48.7715 117.033 48.7715C116.542 48.7715 116.543 48.8685 116.019 48.8685C115.53 48.8685 115.53 48.8357 115.039 48.8357H114.027C113.537 48.8357 113.537 48.8029 113.014 48.8029H109.024C108.535 48.8029 108.535 48.7387 108.012 48.7387C107.521 48.7387 107.521 48.8357 107.032 48.8357C106.509 48.8357 106.509 48.7387 106.019 48.7387C105.528 48.7387 105.529 48.8357 105.038 48.8357C104.516 48.8357 104.516 48.7715 104.025 48.7715C103.534 48.7715 103.536 48.8029 103.013 48.8029H102.032C101.728 48.7992 101.437 48.6848 101.215 48.4818C100.999 48.2654 100.871 47.9786 100.856 47.6757C100.856 47.1605 100.921 47.1605 100.921 46.6782C100.921 46.163 100.954 46.163 100.954 45.6479C100.954 45.1328 100.921 45.1315 100.921 44.6491C100.921 44.1339 100.856 44.1339 100.856 43.6188V41.5871C100.856 41.1034 100.954 41.1034 100.954 40.5883C100.954 40.0731 100.856 40.0731 100.856 39.558V37.5617C100.856 37.0452 100.954 37.0452 100.954 36.5301C100.954 36.015 100.821 36.015 100.821 35.5326C100.821 35.0175 100.92 35.0175 100.92 34.501C100.92 34.0186 100.821 34.0186 100.821 33.5035V32.4719C100.821 31.9896 100.92 31.9896 100.92 31.4744C100.92 30.9593 100.953 30.9593 100.953 30.4756C100.953 29.9605 100.888 29.9605 100.888 29.4453C100.888 28.9616 100.855 28.9616 100.855 28.4465C100.855 27.9314 100.888 27.9314 100.888 27.4162C100.904 27.1323 101.033 26.8661 101.247 26.6756C101.476 26.483 101.704 26.2562 102.03 26.2562C102.521 26.2562 102.521 26.3217 103.044 26.3217C103.534 26.3217 103.534 26.386 104.024 26.386C104.546 26.386 104.546 26.2549 105.037 26.2549C105.56 26.2549 105.56 26.2877 106.05 26.2877C106.541 26.2877 106.54 26.3204 107.063 26.3204H109.057C109.548 26.3204 109.548 26.3519 110.071 26.3519C110.56 26.3519 110.56 26.3204 111.051 26.3204C111.574 26.3204 111.574 26.2877 112.063 26.2877H113.076C113.567 26.2877 113.567 26.3204 114.09 26.3204C114.579 26.3204 114.579 26.3846 115.07 26.3846C115.593 26.3846 115.593 26.3519 116.083 26.3519H117.095C117.586 26.3519 117.586 26.2877 118.076 26.2877C118.598 26.2877 118.598 26.2549 119.089 26.2549C119.398 26.2634 119.691 26.391 119.905 26.6101C120.134 26.8028 120.171 27.1252 120.171 27.4149C120.167 27.9314 120.233 27.9314 120.233 28.4151Z" fill="white"/>
<path d="M177.902 35.3703C177.902 35.9496 177.939 35.9496 177.939 36.4936C177.939 37.0717 177.865 37.0717 177.865 37.6156C177.865 37.9774 177.792 38.3392 177.57 38.5568C177.347 38.8098 176.978 38.8465 176.608 38.8465C176.053 38.8465 176.053 38.9552 175.499 38.9552C174.944 38.9552 174.944 38.9185 174.39 38.9185C173.835 38.9185 173.835 38.8818 173.281 38.8818C172.726 38.8818 172.726 38.8465 172.171 38.8465C171.617 38.8465 171.617 38.8097 171.062 38.8097C170.508 38.8097 170.508 38.9185 169.953 38.9185C169.399 38.9185 169.399 38.8465 168.844 38.8465C168.289 38.8465 168.289 38.8097 167.735 38.8097C167.18 38.8097 167.18 38.9552 166.626 38.9552C166.071 38.9552 166.072 38.8465 165.518 38.8465H164.409C163.854 38.8465 163.854 38.8097 163.3 38.8097C162.951 38.8233 162.619 38.9633 162.369 39.203C162.103 39.456 162.072 39.7824 162.072 40.1441V41.447C162.072 41.8088 162.147 42.1352 162.369 42.3528C162.626 42.5775 162.956 42.7056 163.3 42.7146C163.89 42.7146 163.89 42.7513 164.482 42.7513C165.074 42.7513 165.074 42.7146 165.666 42.7146C166.22 42.7146 166.22 42.7513 166.811 42.7513C167.401 42.7513 167.402 42.6779 167.994 42.6779C168.586 42.6779 168.586 42.6425 169.141 42.6425C169.732 42.6425 169.732 42.7513 170.323 42.7513C170.913 42.7513 170.915 42.6425 171.506 42.6425C171.839 42.6425 172.171 42.8588 172.394 43.0763C172.66 43.2939 172.726 43.619 172.726 43.9821V45.1041C172.726 45.6468 172.8 45.6468 172.8 46.2262V47.3482C172.782 47.6785 172.637 47.9894 172.394 48.2172C172.171 48.4348 171.839 48.6511 171.506 48.6511C170.915 48.6511 170.915 48.5436 170.323 48.5436C169.731 48.5436 169.732 48.6511 169.141 48.6511C168.586 48.6511 168.586 48.579 167.994 48.579C167.402 48.579 167.402 48.6511 166.811 48.6511C166.219 48.6511 166.22 48.579 165.628 48.579C165.074 48.579 165.074 48.6157 164.482 48.6157C163.89 48.6157 163.89 48.579 163.3 48.579C162.965 48.602 162.651 48.7427 162.413 48.9754C162.176 49.2081 162.031 49.5173 162.006 49.8465C162.006 50.5019 162.079 50.5019 162.079 51.1495C162.079 51.4758 162.116 51.8376 162.375 52.0552C162.496 52.1765 162.641 52.2714 162.802 52.3337C162.962 52.396 163.134 52.4244 163.306 52.417H164.415C164.97 52.417 164.97 52.4524 165.525 52.4524C166.079 52.4524 166.079 52.3436 166.632 52.3436H167.742C168.296 52.3436 168.296 52.4891 168.851 52.4891C169.405 52.4891 169.405 52.3803 169.924 52.3803C170.477 52.3803 170.477 52.417 171.032 52.417C171.586 52.417 171.586 52.4524 172.141 52.4524C172.695 52.4524 172.695 52.3436 173.25 52.3436C173.805 52.3436 173.805 52.3803 174.359 52.3803C174.914 52.3803 174.914 52.4524 175.468 52.4524H176.54C176.706 52.4426 176.873 52.4702 177.027 52.5331C177.181 52.596 177.318 52.6926 177.429 52.8155C177.67 53.0292 177.816 53.3284 177.834 53.6478V54.7698C177.834 55.3492 177.798 55.3492 177.798 55.8919V57.0191C177.813 57.3527 177.693 57.6785 177.464 57.9249C177.212 58.1485 176.88 58.2653 176.54 58.25C175.986 58.25 175.986 58.2146 175.431 58.2146C174.841 58.2146 174.841 58.25 174.286 58.25C173.731 58.25 173.731 58.3588 173.14 58.3588C172.585 58.3588 172.585 58.3234 172.03 58.3234H170.884C170.33 58.3234 170.33 58.2867 169.739 58.2867H165.228C164.673 58.2867 164.673 58.2146 164.082 58.2146C163.527 58.2146 163.527 58.3234 162.972 58.3234C162.382 58.3234 162.382 58.2146 161.827 58.2146C161.273 58.2146 161.273 58.3234 160.718 58.3234C160.126 58.3234 160.126 58.25 159.572 58.25C159.017 58.25 159.017 58.2867 158.426 58.2867H157.316C156.974 58.2823 156.644 58.1535 156.392 57.9249C156.171 57.6706 155.986 57.3809 155.986 57.0191C155.986 56.4398 156.06 56.4398 156.06 55.8971C156.06 55.3177 156.097 55.3177 156.097 54.7384C156.097 54.159 156.06 54.159 156.06 53.6163C156.06 53.037 155.986 53.037 155.986 52.4576V50.1769C155.986 49.6342 156.097 49.6342 156.097 49.0548C156.097 48.4755 155.986 48.4755 155.986 47.8961V45.652C155.986 45.0727 156.097 45.0727 156.097 44.4933C156.097 43.9139 155.949 43.9139 155.949 43.3713C155.949 42.7919 156.06 42.7919 156.06 42.2125C156.06 41.6699 155.949 41.6699 155.949 41.0905V39.9318C155.949 39.3891 156.06 39.3891 156.06 38.8097C156.06 38.2304 156.097 38.2304 156.097 37.6877C156.097 37.1084 156.022 37.1084 156.022 36.529C156.022 35.9863 155.986 35.9863 155.986 35.407C155.986 34.8276 156.022 34.8276 156.022 34.2482C156.041 33.9287 156.188 33.6295 156.429 33.4159C156.695 33.1983 156.947 32.9453 157.316 32.9453C157.871 32.9453 157.871 33.0174 158.463 33.0174C159.017 33.0174 159.017 33.0895 159.572 33.0895C160.164 33.0895 160.164 32.9453 160.718 32.9453C161.31 32.9453 161.31 32.982 161.865 32.982C162.419 32.982 162.418 33.0174 163.01 33.0174H165.271C165.825 33.0174 165.825 33.0541 166.417 33.0541C166.971 33.0541 166.972 33.0174 167.526 33.0174C168.117 33.0174 168.117 32.982 168.671 32.982H169.818C170.372 32.982 170.372 33.0174 170.964 33.0174C171.518 33.0174 171.518 33.0895 172.073 33.0895C172.665 33.0895 172.665 33.0541 173.219 33.0541H174.351C174.906 33.0541 174.906 32.982 175.46 32.982C176.052 32.982 176.052 32.9453 176.607 32.9453C176.957 32.9519 177.291 33.093 177.538 33.3385C177.797 33.5548 177.833 33.9179 177.833 34.243C177.828 34.8276 177.902 34.8276 177.902 35.3703Z" fill="white"/>
<path d="M210.314 43.8575C210.401 44.2861 210.531 44.758 210.531 45.2299C210.516 45.6777 210.458 46.1232 210.358 46.5603C210.27 47.0322 210.01 47.4176 209.835 47.8462C209.667 48.2632 209.464 48.6653 209.226 49.0482C208.989 49.4329 208.712 49.7922 208.399 50.1204C208.095 50.4206 207.79 50.8073 207.442 51.1074C207.093 51.3696 206.658 51.6213 206.266 51.8795C205.875 52.0931 205.44 52.2216 205.048 52.4366C204.613 52.6515 204.265 52.995 203.83 53.1654C203.403 53.3337 202.967 53.4773 202.524 53.5953C202.089 53.7264 201.61 53.767 201.174 53.8955C200.739 53.9807 200.304 54.1576 199.825 54.2389C199.39 54.3241 198.912 54.37 198.477 54.4526C197.998 54.4958 197.519 54.3673 197.083 54.4093C196.604 54.4093 196.169 54.581 195.691 54.581C195.212 54.581 194.777 54.4093 194.298 54.4093C193.819 54.4093 193.385 54.4958 192.906 54.4526C192.427 54.4526 191.991 54.4093 191.513 54.3673C191.036 54.3254 190.598 54.1956 190.163 54.1524C189.685 54.0672 189.206 54.1091 188.771 54.0213C188.292 53.9348 187.814 53.8063 187.379 53.7211C186.944 53.6359 186.508 53.459 186.073 53.3777L184.724 52.995C184.245 52.8639 183.768 52.8232 183.332 52.6935C182.897 52.5231 182.506 52.2649 182.07 52.0931L180.808 51.5793C180.329 51.3643 179.85 51.2791 179.503 51.1074C179.104 50.8925 178.936 50.5058 178.85 50.1637C178.799 49.9736 178.792 49.7747 178.829 49.5816C178.867 49.3885 178.948 49.2062 179.067 49.0482C179.415 48.4898 179.546 48.5331 179.894 48.0179C180.285 47.4608 180.198 47.4176 180.591 46.8605C180.983 46.3034 181.068 46.3454 181.417 45.8302C181.683 45.4881 181.983 45.2299 182.374 45.1447C182.77 45.0596 183.183 45.1056 183.55 45.2758C183.898 45.4475 184.333 45.6192 184.812 45.8328C185.203 45.9639 185.682 46.0478 186.16 46.2195C186.559 46.3506 186.988 46.5197 187.466 46.6482C187.911 46.7598 188.362 46.8473 188.816 46.9103C189.251 46.9955 189.73 47.0414 190.209 47.124C190.644 47.1672 191.078 47.3389 191.557 47.3861C191.992 47.4294 192.471 47.3861 192.95 47.4294L194.3 47.5605C194.778 47.5605 195.213 47.5185 195.692 47.5185C196.171 47.5185 196.649 47.5185 197.128 47.4753C197.607 47.4753 198.086 47.5185 198.521 47.4753C199.043 47.3887 199.522 47.3442 199.957 47.2603C200.48 47.1292 200.914 47.0466 201.349 46.9182C201.79 46.7537 202.201 46.522 202.569 46.2313C203.09 45.8879 203.439 45.5445 203.439 45.1591C203.439 44.8589 203.048 44.6007 202.481 44.3438C202.133 44.1721 201.698 44.0436 201.263 43.8719C200.828 43.7867 200.436 43.5285 200.001 43.4433C199.566 43.3122 199.13 43.2283 198.695 43.1431C198.26 43.0579 197.825 43.012 197.389 42.9282C196.953 42.8443 196.475 42.843 196.084 42.7971C195.605 42.7106 195.171 42.5821 194.778 42.5349C194.343 42.4484 193.907 42.4484 193.472 42.3632C193.081 42.32 192.645 42.1011 192.21 42.063C191.819 41.9765 191.383 41.932 190.948 41.8481C190.513 41.717 190.078 41.5859 189.686 41.5046C189.251 41.4194 188.816 41.4194 188.38 41.291C187.944 41.1625 187.597 40.9043 187.206 40.7758C186.771 40.6448 186.335 40.5609 185.944 40.3892C185.509 40.2175 185.203 39.9605 184.812 39.7456C184.433 39.5425 184.07 39.3134 183.724 39.06C183.376 38.7979 182.941 38.6314 182.679 38.3312C182.374 37.9878 182.2 37.6011 181.939 37.2158C181.721 36.8723 181.461 36.5289 181.286 36.1003C181.168 35.6946 181.095 35.2775 181.068 34.8564C180.982 34.4277 180.802 34.0411 180.802 33.5692C180.802 33.0973 180.935 32.6687 181.02 32.1968C181.107 31.7682 181.325 31.3815 181.499 30.9529C181.673 30.5242 181.934 30.1808 182.195 29.7941C182.448 29.4086 182.739 29.0494 183.066 28.7219C183.37 28.3785 183.631 28.0364 184.023 27.7781C184.374 27.4726 184.753 27.1997 185.155 26.9628C185.543 26.7292 185.951 26.5284 186.373 26.3625C186.772 26.1488 187.113 25.8487 187.549 25.677C187.985 25.5052 188.463 25.462 188.897 25.2837C189.332 25.1526 189.769 25.0216 190.203 24.9403C190.682 24.8092 191.117 24.7686 191.596 24.6781C192.041 24.5827 192.491 24.5109 192.944 24.4632C193.381 24.378 193.859 24.2928 194.294 24.2495C194.773 24.2495 195.208 24.2928 195.687 24.2928C196.165 24.2928 196.6 24.2495 197.036 24.2495C197.473 24.2495 197.906 24.3347 198.341 24.3347L199.647 24.4658C200.126 24.509 200.561 24.4658 200.997 24.5523C201.435 24.5825 201.871 24.6399 202.302 24.724C202.78 24.8092 203.173 24.9862 203.608 25.0674C204.042 25.1985 204.521 25.2378 204.914 25.3676L206.176 25.753C206.654 25.9247 207.003 26.1816 207.35 26.3114C207.742 26.4818 208.133 26.6535 208.221 27.0402C208.307 27.3836 208.133 27.769 207.916 28.1124C207.568 28.6695 207.65 28.756 207.307 29.3131C206.964 29.8701 207.003 29.8715 206.654 30.4718L205.957 31.5873C205.523 32.3161 204.565 32.573 203.738 32.3161C203.389 32.185 202.955 32.1444 202.433 32.0159C202.034 31.9294 201.606 31.7537 201.127 31.6725C200.692 31.5873 200.256 31.5873 199.777 31.5008C199.343 31.4588 198.908 31.3697 198.429 31.329C197.994 31.2871 197.515 31.2871 197.036 31.2871C196.6 31.2871 196.165 31.156 195.687 31.156C194.758 31.2443 193.83 31.3317 192.902 31.4182C192.379 31.5034 191.9 31.4614 191.465 31.5493C190.987 31.6345 190.552 31.8494 190.16 32.0211C189.637 32.1928 189.158 32.3213 188.854 32.5363C188.288 32.8364 187.984 33.2218 187.984 33.5652C187.984 33.9087 188.463 34.0804 189.072 34.294C189.463 34.4657 189.855 34.724 190.378 34.8524C190.812 34.9376 191.291 34.8944 191.77 34.9835L193.162 35.1985C193.641 35.2404 194.12 35.3702 194.555 35.4121C195.034 35.4986 195.512 35.4986 195.905 35.5838C196.359 35.6463 196.809 35.7338 197.253 35.846L198.646 36.1082L199.952 36.3703C200.408 36.46 200.858 36.5746 201.301 36.7137C201.736 36.7989 202.171 36.9759 202.606 37.1004C203.063 37.203 203.514 37.3317 203.956 37.4858C204.391 37.6575 204.826 37.7479 205.262 37.9144C205.653 38.1294 206.001 38.4296 206.392 38.6445C206.796 38.8678 207.189 39.111 207.568 39.3733C207.916 39.6735 208.307 39.9304 208.612 40.2738C208.917 40.574 209.091 41.0039 209.353 41.3893C209.569 41.776 209.875 42.1181 210.048 42.548C210.161 42.9795 210.25 43.4166 210.314 43.8575Z" fill="white"/>
<path d="M230.568 32.6463C230.568 33.1497 230.599 33.1497 230.599 33.6203V34.5942C230.599 35.0962 230.568 35.0962 230.568 35.5681C230.571 35.8614 230.456 36.144 230.249 36.3545C230.026 36.5433 229.77 36.7321 229.451 36.7321H228.431C227.92 36.7321 227.92 36.6691 227.411 36.6691C226.902 36.6691 226.9 36.7321 226.423 36.7321C225.914 36.7321 225.914 36.7006 225.403 36.7006H224.383C223.873 36.7006 223.873 36.7321 223.363 36.7321C223.081 36.7304 222.809 36.8307 222.598 37.0139C222.496 37.1119 222.416 37.2292 222.361 37.3587C222.306 37.4882 222.279 37.6273 222.28 37.7676C222.28 38.2709 222.312 38.2709 222.312 38.7415C222.312 39.2448 222.28 39.2448 222.28 39.7154C222.28 40.2187 222.248 40.2187 222.248 40.7208C222.248 41.1926 222.312 41.1926 222.312 41.6947V42.6686C222.312 43.1719 222.28 43.1719 222.28 43.6425V45.589C222.28 46.091 222.248 46.091 222.248 46.5944C222.248 47.065 222.216 47.065 222.216 47.5683V48.5422C222.216 49.0442 222.28 49.0442 222.28 49.5161V50.4887C222.28 50.9921 222.216 50.9921 222.216 51.4626C222.216 51.966 222.248 51.966 222.248 52.468C222.247 52.7509 222.132 53.0218 221.929 53.2219C221.726 53.4219 221.451 53.5349 221.164 53.5363C220.654 53.5363 220.654 53.5992 220.176 53.5992C219.666 53.5992 219.666 53.5678 219.188 53.5678C218.678 53.5678 218.678 53.5992 218.2 53.5992C217.881 53.5992 217.659 53.379 217.467 53.1902C217.358 53.103 217.27 52.9929 217.209 52.868C217.149 52.7431 217.117 52.6065 217.116 52.468V51.4626C217.116 50.9921 217.052 50.9921 217.052 50.4887C217.052 49.9854 217.148 49.9867 217.148 49.5161C217.148 49.0128 217.084 49.0128 217.084 48.5422C217.084 48.0389 217.052 48.0389 217.052 47.5368C217.052 47.065 217.116 47.065 217.116 46.5629C217.116 46.091 217.148 46.091 217.148 45.589C217.148 45.1171 217.015 45.1171 217.015 44.6151C217.015 44.1131 217.079 44.1118 217.079 43.6412C217.079 43.1392 217.111 43.1392 217.111 42.6673C217.111 42.1653 217.047 42.1652 217.047 41.6619C217.047 41.1913 217.079 41.1913 217.079 40.688V39.7167C217.079 39.2461 217.015 39.2461 217.015 38.7428C217.015 38.2395 217.148 38.2408 217.148 37.7689C217.145 37.6185 217.11 37.4704 217.044 37.3347C216.978 37.199 216.884 37.0789 216.766 36.9824C216.575 36.7635 216.288 36.7006 215.968 36.7006C215.459 36.7006 215.459 36.6062 214.95 36.6062H213.898C213.387 36.6062 213.387 36.7006 212.878 36.7006C212.368 36.7006 212.367 36.7321 211.858 36.7321C211.348 36.7321 211.347 36.7006 210.806 36.7006C210.296 36.7006 210.296 36.7321 209.786 36.7321C209.498 36.7321 209.213 36.5433 208.988 36.3545C208.796 36.1658 208.732 35.884 208.732 35.5681C208.732 35.0962 208.669 35.0962 208.669 34.5942C208.669 34.1223 208.637 34.1223 208.637 33.6203C208.637 33.1497 208.701 33.1497 208.701 32.6463C208.695 32.5054 208.721 32.365 208.776 32.2349C208.831 32.1047 208.914 31.988 209.02 31.8926C209.211 31.7039 209.497 31.5151 209.784 31.5151C210.295 31.5151 210.295 31.5781 210.773 31.5781C211.282 31.5781 211.282 31.5466 211.761 31.5466C212.239 31.5466 212.238 31.5781 212.749 31.5781C213.226 31.5781 213.226 31.5151 213.737 31.5151C214.214 31.5151 214.214 31.6095 214.725 31.6095C215.202 31.6095 215.202 31.5151 215.713 31.5151H216.669C217.179 31.5151 217.179 31.5466 217.657 31.5466H218.644C219.123 31.5466 219.123 31.5781 219.632 31.5781H221.609C222.087 31.5781 222.087 31.5466 222.565 31.5466C223.076 31.5466 223.076 31.5151 223.553 31.5151C224.064 31.5151 224.064 31.5781 224.541 31.5781C225.019 31.5781 225.019 31.5151 225.529 31.5151C226.007 31.5151 226.007 31.6095 226.517 31.6095C226.995 31.6095 226.995 31.5466 227.474 31.5466C227.983 31.5466 227.983 31.5151 228.462 31.5151C228.971 31.5151 228.971 31.6095 229.45 31.6095C229.768 31.6095 230.087 31.641 230.278 31.8612C230.472 32.0777 230.575 32.358 230.568 32.6463Z" fill="white"/>
</svg>
