<svg id="Camada_1" data-name="Camada 1" xmlns="http://www.w3.org/2000/svg" viewBox="0 0 834 633"><defs><style>.cls-1{fill:#fff;}</style></defs><title>SEM_MARGEM_LogoBranco_TheGreenest</title><path class="cls-1" d="M140.43,8.44c0,3,.19,3,.19,5.85v5.85c0,3-.19,3-.19,5.85a6.67,6.67,0,0,1-1.89,4.72c-1.32,1.14-2.83,2.27-4.72,2.27h-6c-3,0-3-.38-6-.38s-3,.38-5.85.38c-3,0-3-.19-6-.19h-6c-3,0-3,.19-6,.19a6.77,6.77,0,0,0-4.53,1.7,6.25,6.25,0,0,0-1.89,4.53c0,3,.19,3,.19,5.85,0,3-.19,3-.19,5.85,0,3-.19,3-.19,6,0,2.83.38,2.83.38,5.85v5.85c0,3-.19,3-.19,5.86v11.7c0,3-.19,3-.19,6,0,2.83-.18,2.83-.18,5.85V104c0,3,.37,3,.37,5.85v5.86c0,3-.37,3-.37,5.85,0,3,.18,3,.18,6A6.44,6.44,0,0,1,84.75,134c-3,0-3,.37-5.85.37-3,0-3-.19-5.86-.19-3,0-3,.19-5.85.19-1.89,0-3.21-1.32-4.34-2.45a5.64,5.64,0,0,1-2.08-4.34v-6c0-2.83-.37-2.83-.37-5.85s.56-3,.56-5.86c0-3-.37-3-.37-5.85,0-3-.19-3-.19-6,0-2.83.37-2.83.37-5.85,0-2.83.19-2.83.19-5.85,0-2.83-.75-2.83-.75-5.85s.38-3,.38-5.85c0-3,.18-3,.18-5.86,0-3-.37-3-.37-6,0-2.83.19-2.83.19-5.85V50.91c0-2.83-.38-2.83-.38-5.85S61,42,61,39.21a6.29,6.29,0,0,0-2.26-4.72c-1.13-1.32-2.83-1.7-4.72-1.7-3,0-3-.57-6-.57H41.71c-3,0-3,.57-6,.57s-3,.19-6,.19-3-.19-6.23-.19c-3,0-3,.19-6,.19-1.7,0-3.4-1.13-4.72-2.27A6.49,6.49,0,0,1,11.13,26c0-2.83-.38-2.83-.38-5.85,0-2.83-.19-2.83-.19-5.85,0-2.83.38-2.83.38-5.85a5.86,5.86,0,0,1,1.89-4.53,7,7,0,0,1,4.53-2.27c3,0,3,.38,5.85.38,3,0,3-.19,5.85-.19S31.89,2,34.91,2c2.84,0,2.84-.38,5.85-.38,2.84,0,2.84.57,5.86.57,2.83,0,2.83-.57,5.85-.57h5.66c3,0,3,.19,5.85.19h5.85c2.84,0,2.84.19,5.86.19h11.7c2.83,0,2.83-.19,5.66-.19,3,0,3-.19,5.85-.19,3,0,3,.38,5.85.38s2.84-.38,5.86-.38c2.83,0,2.83.57,5.85.57,2.83,0,2.83-.38,5.66-.38,3,0,3-.19,5.85-.19,3,0,3,.57,5.85.57,1.89,0,3.78.19,4.91,1.51A6.91,6.91,0,0,1,140.43,8.44Z"/><path class="cls-1" d="M178.57,112.83c0,1.67.1,1.67.1,3.24a3.7,3.7,0,0,1-1.25,2.71,3.64,3.64,0,0,1-2.61.94c-1.67,0-1.67.21-3.24.21s-1.67-.31-3.24-.31h-3.24a3.26,3.26,0,0,1-2.61-.94,3.83,3.83,0,0,1-1.15-2.61v-6.9c0-1.77-.1-1.77-.1-3.44s.1-1.78.1-3.55.21-1.67.21-3.45.11-1.67.11-3.45a3.55,3.55,0,0,0-1.36-2.5,3.45,3.45,0,0,0-2.51-1c-1.56,0-1.56-.21-3.23-.21s-1.57.21-3.24.21-1.57.11-3.24.11h-3.24c-1.56,0-1.56-.21-3.23-.21s-1.57.1-3.24.1-1.57-.21-3.24-.21-1.57.11-3.24.11-1.56.1-3.23.1-1.57-.1-3.24-.1a4.28,4.28,0,0,0-2.72.94,4.14,4.14,0,0,0-.73,2.71c0,1.78-.21,1.78-.21,3.45v3.55c0,1.67-.1,1.67-.1,3.45v3.44c0,1.78.1,1.78.1,3.45s.21,1.78.21,3.45a3.6,3.6,0,0,1-1.25,2.5,3.41,3.41,0,0,1-2.51,1.05c-1.67,0-1.67.21-3.24.21s-1.67-.21-3.23-.21-1.67.31-3.24.31a4.35,4.35,0,0,1-3.86-3.86c0-1.57.41-1.57.41-3.24v-3.34c0-1.57-.1-1.57-.1-3.24V99.67c0-1.67-.31-1.67-.31-3.34s.31-1.67.31-3.24-.31-1.67-.31-3.34.31-1.67.31-3.24-.11-1.67-.11-3.34.21-1.67.21-3.24-.21-1.67-.21-3.34.11-1.67.11-3.24V66.77c0-1.67.1-1.67.1-3.34s-.41-1.57-.41-3.24.31-1.67.31-3.34-.11-1.56-.11-3.24V50.27a3.85,3.85,0,0,1,.94-2.61,3.55,3.55,0,0,1,2.72-1h9.71a3.59,3.59,0,0,1,2.4,1.25,3.21,3.21,0,0,1,1.26,2.4c0,1.78-.11,1.78-.11,3.55s-.21,1.67-.21,3.45.11,1.67.11,3.45v3.44c0,1.78.21,1.78.21,3.45s-.11,1.77-.11,3.44a3.28,3.28,0,0,0,3.66,3.56c1.67,0,1.67.2,3.24.2s1.67-.2,3.23-.2,1.67.1,3.24.1,1.67.1,3.24.1,1.67-.1,3.24-.1,1.67-.1,3.23-.1,1.67.2,3.24.2,1.67.11,3.24.11,1.67-.31,3.24-.31,1.67.1,3.23.1a3.44,3.44,0,0,0,2.51-1.25,3.52,3.52,0,0,0,1.36-2.41c0-1.67-.21-1.67-.21-3.44s.1-1.78.1-3.45-.31-1.77-.31-3.44.1-1.78.1-3.45-.1-1.78-.1-3.45.31-1.77.31-3.55a3.73,3.73,0,0,1,.84-2.61,4.06,4.06,0,0,1,2.71-.94c1.67,0,1.67-.1,3.24-.1s1.57.21,3.24.21,1.57-.32,3.24-.32a3.83,3.83,0,0,1,2.61,1.26,3.75,3.75,0,0,1,1.15,2.5c0,1.67-.11,1.67-.11,3.34s-.21,1.68-.21,3.35v6.58c0,1.56.21,1.56.21,3.23s.11,1.67.11,3.34.1,1.68.1,3.24v3.34c0,1.68-.31,1.68-.31,3.24s.1,1.67.1,3.34.21,1.67.21,3.24-.31,1.67-.31,3.34-.11,1.67-.11,3.24.11,1.67.11,3.34.31,1.57.31,3.24-.1,1.67-.1,3.34-.11,1.57-.11,3.24v3.34C178.46,111.16,178.57,111.16,178.57,112.83Z"/><path class="cls-1" d="M275.19,41.58c0,2.24.14,2.24.14,4.33s-.28,2.23-.28,4.32a5.14,5.14,0,0,1-1.12,3.63c-.83,1-2.23,1.12-3.62,1.12-2.1,0-2.1.42-4.19.42s-2.09-.14-4.19-.14-2.09-.14-4.18-.14-2.1-.14-4.19-.14-2.09-.14-4.18-.14-2.1.42-4.19.42S243.1,55,241,55s-2.09-.14-4.18-.14-2.1.56-4.19.56-2.09-.42-4.18-.42h-4.19c-2.09,0-2.09-.14-4.19-.14a5.36,5.36,0,0,0-3.48,1.53A4.75,4.75,0,0,0,215.47,60v5a4.77,4.77,0,0,0,1.12,3.49,5.47,5.47,0,0,0,3.48,1.4c2.24,0,2.24.14,4.47.14s2.23-.14,4.46-.14,2.1.14,4.33.14,2.23-.28,4.46-.28,2.24-.14,4.33-.14,2.23.42,4.47.42,2.23-.42,4.46-.42a5.2,5.2,0,0,1,3.35,1.67,4.34,4.34,0,0,1,1.25,3.49v4.33c0,2.09.28,2.09.28,4.32v4.33a5,5,0,0,1-1.53,3.35,5.2,5.2,0,0,1-3.35,1.67c-2.23,0-2.23-.42-4.46-.42s-2.24.42-4.47.42-2.09-.28-4.33-.28-2.23.28-4.46.28-2.23-.28-4.47-.28-2.09.14-4.32.14-2.23-.14-4.47-.14a5.31,5.31,0,0,0-4.88,4.89c0,2.51.28,2.51.28,5a4.43,4.43,0,0,0,1.12,3.49,4.63,4.63,0,0,0,3.48,1.39h4.19c2.09,0,2.09.14,4.19.14s2.09-.42,4.18-.42h4.19c2.09,0,2.09.56,4.18.56s2.1-.42,4.05-.42,2.09.14,4.19.14,2.09.14,4.18.14,2.1-.42,4.19-.42,2.09.14,4.18.14,2.1.28,4.19.28h4a4.14,4.14,0,0,1,3.35,1.4,4.69,4.69,0,0,1,1.53,3.21v4.32c0,2.23-.14,2.23-.14,4.33V125a4.36,4.36,0,0,1-4.74,4.75c-2.1,0-2.1-.14-4.19-.14s-2.23.14-4.33.14-2.09.42-4.32.42-2.09-.14-4.19-.14h-4.32c-2.09,0-2.09-.14-4.33-.14h-17c-2.09,0-2.09-.28-4.33-.28-2.09,0-2.09.42-4.18.42s-2.23-.42-4.33-.42-2.09.42-4.18.42c-2.24,0-2.24-.28-4.33-.28s-2.09.14-4.32.14h-4.19a5.21,5.21,0,0,1-3.49-1.4,5.34,5.34,0,0,1-1.53-3.49c0-2.23.28-2.23.28-4.32,0-2.24.14-2.24.14-4.47s-.14-2.23-.14-4.32-.28-2.24-.28-4.47V98.65c0-2.09.42-2.09.42-4.32s-.42-2.24-.42-4.47V81.21c0-2.23.42-2.23.42-4.47s-.56-2.23-.56-4.32.42-2.23.42-4.47-.42-2.09-.42-4.32V59.16c0-2.09.42-2.09.42-4.32s.14-2.23.14-4.33-.28-2.23-.28-4.46-.14-2.1-.14-4.33.14-2.23.14-4.46a4.66,4.66,0,0,1,1.53-3.21c1-.84,1.95-1.82,3.35-1.82,2.09,0,2.09.28,4.33.28,2.09,0,2.09.28,4.18.28s2.23-.56,4.33-.56,2.23.14,4.32.14,2.1.14,4.33.14h8.51c2.09,0,2.09.14,4.32.14s2.1-.14,4.19-.14,2.23-.14,4.33-.14h4.32c2.09,0,2.09.14,4.33.14,2.09,0,2.09.28,4.18.28,2.24,0,2.24-.14,4.33-.14h4.32c2.1,0,2.1-.28,4.19-.28s2.23-.14,4.33-.14a5,5,0,0,1,3.48,1.54,4.42,4.42,0,0,1,1.12,3.49C274.91,39.49,275.19,39.49,275.19,41.58Z"/><path class="cls-1" d="M249.51,283.61v27.56c0,4.49.9,4.49.9,9v9.29a18.47,18.47,0,0,1-1.5,8.08,11,11,0,0,1-5.69,5.4,49.22,49.22,0,0,1-6.89,3.29c-2.69,1.5-5.39,2.4-8.08,3.59s-5.39,2.7-8.09,3.6c-3,1.2-5.39,2.69-8.39,3.59-2.69.9-5.69.9-8.68,1.8l-8.69,1.8c-3,.6-6,1.19-8.68,1.49-3,.6-6,1.5-9,1.8-2.7.3-5.69.9-8.69,1.2s-6,.9-9,.9-6-.3-9-.3-6-.9-9-.9c-3.3-.3-6.29.6-9.29.6-3-.3-6-1.2-9-1.5-3-.6-6.29-.6-9.29-1.2s-5.69-2.09-8.68-2.69-6.29-.6-9-1.2c-3-.9-6-1.5-9-2.4-3-1.19-5.69-2.39-8.69-3.29l-8.38-3.59c-2.7-1.2-5.39-2.7-8.09-4.2-2.7-1.2-5.39-3-8.09-4.49-2.39-1.5-4.79-3.59-7.48-5.09-2.4-1.8-5.1-3.3-7.19-5.39-2.7-1.8-4.79-3.9-7.19-5.69-2.1-2.1-5.09-3.6-6.89-6-2.1-2.1-3.29-5.1-5.39-7.49-1.8-2.4-3.3-5.09-5.09-7.49-1.5-2.7-3.3-5.09-4.8-7.79-1.19-2.69-2.39-5.69-3.29-8.38a47.44,47.44,0,0,1-2.69-8.69,90.42,90.42,0,0,1-1.5-9c-.3-3-1.5-6-1.5-9s0-6.29.3-9.28,1.5-6,2.09-9c.91-3,.61-6.29,1.8-9.28a41.37,41.37,0,0,1,3.6-8.39c1.19-3,3.29-5.09,5.09-7.79a67.49,67.49,0,0,1,4.79-7.78L24,202.15c2.1-2.1,3.29-5.39,5.39-7.49l7.19-6.29c2.4-1.8,5.39-2.7,8.09-4.49a66.45,66.45,0,0,1,7.48-5.39c2.7-1.5,5.1-3.3,8.09-4.8,2.7-1.19,5.69-1.49,8.69-2.69,2.69-1.2,5.39-3,8.38-3.9,3-1.19,5.69-2.09,8.69-3s6-1.8,9-2.4c3-.9,6-.9,9.29-1.5,3-.59,6-.89,9-1.19a86.89,86.89,0,0,1,9.28-1.2c3-.3,6-.6,9-.6,3.29-.3,6.28,0,9.28-.3h9.29c3.29,0,6.58-.3,9.88-.3,3.29.3,6.59-.6,9.88-.3s6.29,1.8,9.59,2.4c3.29.3,6.89,0,9.88.6,3.3.6,6.29,2.09,9.58,2.69,3.3.9,6.59,1.2,9.59,2.1a91.65,91.65,0,0,1,9.58,2.69c3,.9,5.69,3,8.69,4.5a8.09,8.09,0,0,1,5.39,5.39,9.38,9.38,0,0,1-.6,7.49c-2.09,4.19-1.8,4.49-3.89,8.68-1.8,4.19-2.1,3.9-4.19,8.09s-1.8,4.19-3.9,8.39a10.54,10.54,0,0,1-6,5.39,10.9,10.9,0,0,1-8.09-.3c-3-.9-5.69-2.4-8.68-3.6-3-.9-6.29-.9-9.29-1.79-3-.6-6-1.8-9.28-2.4-3-.6-6.29.3-9.28,0l-9.59-.9a88.75,88.75,0,0,0-9.28-.9c-3,0-6-.3-9-.3-3,.3-6,1.2-9,1.5s-6,.3-9,.6-6,.9-9,1.5l-8.68,1.79a73.46,73.46,0,0,0-8.69,2.4c-3,1.2-6,1.8-8.68,3-3,1.2-5.39,2.7-8.09,3.9-2.7,1.5-5.69,2.39-8.39,3.89-2.39,1.8-4.19,4.79-6.29,6.59-2.39,2.1-4.79,3.6-6.59,6-2.09,2.4-3,5.39-4.19,8.09-1.5,2.69-3.29,5.09-3.89,8.08s-1.5,6-1.5,9,1.8,6,2.7,9.29A71.06,71.06,0,0,0,56,278.52c1.8,2.4,3,5.39,5.39,7.79,2.1,2.09,4.49,4.49,6.89,6.59,2.7,1.79,5.69,2.69,8.69,4.49a73.55,73.55,0,0,0,8.08,5.09l8.69,3.6c3,1.19,6,2.09,9.28,3.29,3,.9,5.69,2.7,9,3.6,3,.59,6.29.89,9.28,1.19,3.3.6,6.29,1.5,9.59,1.8l9.58.9c3.29.3,6.29.3,9.59.3a78,78,0,0,0,8.38,0c3,0,5.69-.9,8.39-1.2s5.39-1.2,8.09-1.5c3-.6,5.68-.3,8.38-.9a82.41,82.41,0,0,0,8.09-2.69c2.69-.6,4.79-2.4,6.59-4.79s3.59-5.1,3.59-8.09c0-1.2.3-1.2.3-2.4,0-3-1.8-5.39-3.6-7.48a10.43,10.43,0,0,0-7.18-3c-4.49,0-4.49-.3-9-.3H164.45c-4.49,0-4.49.9-9,.9h-9c-2.7,0-5.39-1.8-7.19-3.59a10,10,0,0,1-3.59-7.49c0-4.49.3-4.49.3-9.29,0-4.49.6-4.49.6-9.28,0-4.49-.3-4.49-.3-9.29a10.46,10.46,0,0,1,3-7.18,10.2,10.2,0,0,1,7.19-2.7c4.79,0,4.79.3,9.29.3,4.79,0,4.79-.9,9.28-.9,4.79,0,4.79.6,9.29.6,4.79,0,4.79-.3,9.58-.3,4.49,0,4.49-.6,9.28-.6h9.29c4.49,0,4.49.6,9.28.6,4.5,0,4.5-.9,9.29-.9,4.49,0,4.49,1.5,9.28,1.5s4.79-1.2,9.29-1.2a10.89,10.89,0,0,1,7.49,3.3,11.09,11.09,0,0,1,3.59,7.48c0,4.8-.6,4.8-.6,9.29s.3,4.49.3,9.28c0,4.5.3,4.5.3,9S249.51,278.82,249.51,283.61Z"/><path class="cls-1" d="M522.54,360.75c1.36,3.38,2.71,6.77,2.71,10.15s-2,6.77-3.38,9.81c-1,3.39-2,6.43-4.06,9.14a37.22,37.22,0,0,1-7.11,7.45c-2.71,2-5.41,4.39-8.8,5.75-3,1.35-6.43,1.69-10.15,2.37a47.29,47.29,0,0,1-10.15,1,62.21,62.21,0,0,1-10.83-1c-3.38-.68-7.1-1-10.49-2-3.38-1.36-6.77-3.39-10.15-4.74-3-1.35-6.77-2.71-9.81-4.4-3.39-1.69-6.09-4.06-9.14-6.09-3-1.69-6.09-4.06-9.13-5.75l-9.14-6.1c-3.05-2-6.43-3.72-9.14-5.41-3.38-2-6.09-4.4-9.13-6.43-3.05-1.69-6.77-3-9.82-4.4-3.38-2-6.09-4.73-9.13-5.75-4.06-1.35-7.78-2.37-10.83-2.37-6.09,0-6.09.68-12.18.68H340.83a11.82,11.82,0,0,0-8.12,3.38c-2.37,2-3.38,5.08-3.38,8.46,0,5.08-.68,5.08-.68,10.15,0,4.74.68,4.74.68,9.82v10.15a13.5,13.5,0,0,1-3.39,8.8c-2,2-5.41,2.36-8.46,2.36-5.41,0-5.41,1.36-10.49,1.36H296.51c-5.42,0-5.42-1.36-10.5-1.36-3.38,0-6.42-.33-8.79-2.36a13.27,13.27,0,0,1-3.05-8.8V384.1c0-5.42.68-5.42.68-10.83s-1-5.41-1-10.49V341.46c0-5.41,1-5.41,1-10.83s-.34-5.41-.34-10.49c0-5.41.34-5.41.34-10.83s-1.36-5.41-1.36-10.48c0-5.42,1-5.42,1-10.83s-.34-5.42-.34-10.49c0-5.42-.68-5.42-.68-10.83s1-5.41,1-10.49c0-5.41-.34-5.41-.34-10.83V234.87c0-5.41-.34-5.41-.34-10.83,0-5.07,1-5.07,1-10.49s-.34-5.41-.34-10.83V192.24c0-5.42-1-5.42-1-10.49a13.12,13.12,0,0,1,3.73-8.8c2-2.37,5.41-3.39,8.79-3.39h30.12c5.08,0,5.08.68,10.15.68s5.08-1,10.16-1h10.15c5.07,0,5.07.33,9.81.33,5.08,0,5.08.68,10.15.68h20.3c3.39.34,6.77.34,10.16.68s7.1,0,10.15.67c3.72.34,6.76,1.7,10.15,2.37s6.43,1.7,9.81,2.71c3.39.68,6.43,1.69,9.81,2.71,3.05,1.35,6.43,2,9.48,3.38,3,1.69,6.43,3.05,9.14,4.4,3,1.69,5.75,4.06,8.45,5.75a84.31,84.31,0,0,1,8.13,6.09c2.7,2.37,5.75,4.4,7.78,6.77,2.7,2.37,4.4,5.42,6.43,8.12s4.06,5.42,5.75,8.12c1.69,3.05,3.38,6.09,4.74,9.14,1.35,3.38,2.37,6.43,3.38,9.81a101.18,101.18,0,0,1,1.35,10.15c.68,3,.34,6.43.34,9.82,0,3.72,1.36,7.44,1,10.82l-2,10.83c-1,3.39-3.39,6.43-4.74,9.82a80.56,80.56,0,0,1-4.4,9.47,58.92,58.92,0,0,1-5.41,9.14c-2.37,3-4.4,5.75-6.77,8.46-2.71,2.7-5.75,4.73-8.12,6.76-3.05,2.71-5.42,5.42-8.12,7.11s-5.08,3.38-5.42,5.75a6.31,6.31,0,0,0,3.39,7.11,51.35,51.35,0,0,0,23,6.09c4.4.34,8.46-.68,11.84-1.35s7.11-.34,10.83-.68c3.72,0,7.44-.34,9.81,2A22.09,22.09,0,0,1,522.54,360.75Zm-74.78-99.82c0-3.73-1.35-7.11-2.37-10.49-1.35-3.39-2.7-7.11-5.41-9.82-2.37-2.36-5.75-4.06-9.14-6.09a46.22,46.22,0,0,0-10.15-4.4,101.26,101.26,0,0,0-10.83-2.36c-3.38-.68-7.1-2-10.82-2.71-3.73-.34-7.45-.34-11.17-.68H376.7c-6.09,0-6.09,1-11.84,1H352.68c-5.76,0-5.76-.68-11.85-.68a10.81,10.81,0,0,0-8.12,3.72,11.21,11.21,0,0,0-3.38,8.12v9.82c0,5.07-.68,5.07-.68,9.81,0,5.08,1,5.08,1,9.81v19.63c0,3.38.67,6.43,2.7,8.8a12.66,12.66,0,0,0,8.46,3.38c6.09,0,6.09-.34,11.85-.34,6.09,0,6.09.68,12.18.68,5.75,0,5.75-1,11.84-1,3.73,0,7.45.34,11.17,0a106.85,106.85,0,0,0,10.83-1c4.06-.68,7.78,0,11.16-.68,4.06-.67,7.45-2,10.83-3,3.72-1.36,7.45-2.37,10.49-4.06,3.39-2,5.75-5.08,8.12-7.45,2.71-2.7,5.75-5.41,6.77-8.8A29.8,29.8,0,0,0,447.76,260.93Z"/><path class="cls-1" d="M672.06,172.27c0,3.92.24,3.92.24,7.59,0,3.91-.49,3.91-.49,7.59,0,2.44-.49,4.89-2,6.36-1.47,1.72-3.91,2-6.36,2-3.67,0-3.67.73-7.35.73s-3.67-.24-7.34-.24-3.67-.25-7.35-.25-3.67-.24-7.34-.24-3.67-.24-7.35-.24-3.67.73-7.34.73-3.67-.49-7.34-.49-3.68-.24-7.35-.24-3.67,1-7.34,1-3.67-.73-7.35-.73H582.7c-3.67,0-3.67-.24-7.35-.24a9.39,9.39,0,0,0-6.12,2.69c-1.71,1.71-2,3.92-2,6.36v8.82c0,2.45.49,4.65,2,6.12a9.68,9.68,0,0,0,6.12,2.45c3.92,0,3.92.24,7.84.24s3.92-.24,7.83-.24c3.67,0,3.67.24,7.59.24s3.92-.49,7.84-.49,3.91-.24,7.58-.24c3.92,0,3.92.73,7.84.73s3.92-.73,7.83-.73c2.21,0,4.41,1.47,5.88,2.93,1.71,1.47,2.2,3.68,2.2,6.12v7.59c0,3.68.49,3.68.49,7.59v7.59a8.78,8.78,0,0,1-2.69,5.88c-1.47,1.47-3.67,2.94-5.88,2.94-3.91,0-3.91-.74-7.83-.74s-3.92.74-7.84.74c-3.67,0-3.67-.49-7.58-.49s-3.92.49-7.84.49-3.92-.49-7.83-.49c-3.67,0-3.67.24-7.59.24s-3.92-.24-7.84-.24a9.29,9.29,0,0,0-8.57,8.57c0,4.4.5,4.4.5,8.81,0,2.2.24,4.65,2,6.12a8.14,8.14,0,0,0,6.12,2.45h7.35c3.67,0,3.67.24,7.34.24s3.68-.73,7.35-.73h7.34c3.67,0,3.67,1,7.35,1s3.67-.74,7.1-.74c3.67,0,3.67.25,7.34.25s3.67.24,7.34.24,3.68-.73,7.35-.73,3.67.24,7.35.24,3.67.49,7.34.49H663a7.24,7.24,0,0,1,5.87,2.45,8.23,8.23,0,0,1,2.7,5.63v7.59c0,3.92-.25,3.92-.25,7.59v7.59A7.63,7.63,0,0,1,663,327c-3.67,0-3.67-.24-7.35-.24-3.91,0-3.91.24-7.58.24s-3.68.74-7.6.74c-3.67,0-3.67-.25-7.34-.25h-7.59c-3.67,0-3.67-.24-7.59-.24H588.08c-3.67,0-3.67-.49-7.58-.49-3.68,0-3.68.73-7.35.73-3.92,0-3.92-.73-7.59-.73s-3.67.73-7.34.73c-3.92,0-3.92-.49-7.59-.49s-3.68.25-7.59.25h-7.35a9.16,9.16,0,0,1-6.12-2.45,9.37,9.37,0,0,1-2.69-6.12c0-3.92.49-3.92.49-7.59,0-3.92.24-3.92.24-7.83s-.24-3.92-.24-7.59c0-3.92-.49-3.92-.49-7.84V272.4c0-3.67.73-3.67.73-7.59s-.73-3.92-.73-7.83V241.8c0-3.92.73-3.92.73-7.84s-1-3.92-1-7.59c0-3.91.74-3.91.74-7.83,0-3.67-.74-3.67-.74-7.59v-7.84c0-3.67.74-3.67.74-7.58s.24-3.92.24-7.59c0-3.92-.49-3.92-.49-7.84,0-3.67-.24-3.67-.24-7.59s.24-3.91.24-7.83a8.21,8.21,0,0,1,2.7-5.63c1.71-1.47,3.42-3.19,5.87-3.19,3.67,0,3.67.49,7.59.49,3.67,0,3.67.49,7.35.49,3.91,0,3.91-1,7.59-1,3.91,0,3.91.25,7.58.25s3.68.24,7.6.24h14.93c3.67,0,3.67.25,7.59.25,3.67,0,3.67-.25,7.34-.25,3.92,0,3.92-.24,7.59-.24h7.59c3.67,0,3.67.24,7.59.24,3.67,0,3.67.49,7.34.49,3.92,0,3.92-.24,7.59-.24h7.6c3.67,0,3.67-.49,7.34-.49,3.92,0,3.92-.25,7.59-.25a8.89,8.89,0,0,1,6.12,2.7c1.71,1.47,2,3.91,2,6.12C671.57,168.6,672.06,168.6,672.06,172.27Z"/><path class="cls-1" d="M831.68,185.26c0,3.61.23,3.61.23,7,0,3.61-.46,3.61-.46,7,0,2.26-.45,4.52-1.81,5.87-1.35,1.59-3.61,1.81-5.87,1.81-3.4,0-3.4.68-6.79.68s-3.39-.23-6.78-.23-3.39-.22-6.78-.22S800,207,796.63,207s-3.39-.22-6.78-.22-3.39.67-6.78.67-3.39-.45-6.78-.45-3.4-.22-6.79-.22-3.39.9-6.78.9-3.39-.68-6.78-.68h-6.79c-3.39,0-3.39-.22-6.78-.22a8.67,8.67,0,0,0-5.65,2.48c-1.58,1.59-1.81,3.62-1.81,5.88v8.14c0,2.26.45,4.3,1.81,5.65a8.89,8.89,0,0,0,5.65,2.27c3.62,0,3.62.22,7.24.22s3.61-.22,7.23-.22c3.39,0,3.39.22,7,.22s3.62-.45,7.24-.45,3.61-.23,7-.23c3.62,0,3.62.68,7.24.68s3.62-.68,7.23-.68c2,0,4.07,1.36,5.43,2.72,1.58,1.35,2,3.39,2,5.65v7c0,3.39.45,3.39.45,7v7a8.09,8.09,0,0,1-2.49,5.42c-1.36,1.36-3.39,2.72-5.43,2.72-3.61,0-3.61-.68-7.23-.68s-3.62.68-7.24.68c-3.39,0-3.39-.46-7-.46s-3.62.46-7.24.46-3.62-.46-7.23-.46c-3.4,0-3.4.23-7,.23s-3.62-.23-7.24-.23a8.56,8.56,0,0,0-7.91,7.92c0,4.07.45,4.07.45,8.14,0,2,.23,4.29,1.81,5.65a7.49,7.49,0,0,0,5.65,2.26h6.78c3.39,0,3.39.23,6.79.23s3.39-.68,6.78-.68h6.78c3.39,0,3.39.9,6.79.9s3.39-.68,6.55-.68c3.39,0,3.39.23,6.79.23s3.39.23,6.78.23,3.39-.68,6.78-.68,3.39.22,6.78.22,3.4.46,6.79.46h6.55a6.68,6.68,0,0,1,5.43,2.26,7.55,7.55,0,0,1,2.49,5.2v7c0,3.61-.23,3.61-.23,7v7a7,7,0,0,1-7.69,7.69c-3.39,0-3.39-.23-6.78-.23-3.62,0-3.62.23-7,.23s-3.39.68-7,.68c-3.39,0-3.39-.23-6.78-.23h-7c-3.39,0-3.39-.22-7-.22H754.13c-3.39,0-3.39-.46-7-.46-3.39,0-3.39.68-6.79.68-3.61,0-3.61-.68-7-.68s-3.39.68-6.79.68c-3.61,0-3.61-.45-7-.45s-3.39.23-7,.23h-6.78a8.48,8.48,0,0,1-5.65-2.26,8.68,8.68,0,0,1-2.49-5.66c0-3.61.45-3.61.45-7,0-3.61.23-3.61.23-7.23s-.23-3.62-.23-7c0-3.62-.45-3.62-.45-7.23V277.73c0-3.39.68-3.39.68-7s-.68-3.62-.68-7.23v-14c0-3.62.68-3.62.68-7.24s-.9-3.61-.9-7c0-3.61.67-3.61.67-7.23,0-3.39-.67-3.39-.67-7v-7.23c0-3.4.67-3.4.67-7s.23-3.62.23-7c0-3.62-.45-3.62-.45-7.24,0-3.39-.23-3.39-.23-7s.23-3.61.23-7.23a7.55,7.55,0,0,1,2.49-5.2c1.58-1.36,3.16-2.94,5.42-2.94,3.39,0,3.39.45,7,.45,3.39,0,3.39.45,6.78.45,3.62,0,3.62-.9,7-.9,3.62,0,3.62.22,7,.22s3.39.23,7,.23h13.79c3.4,0,3.4.23,7,.23,3.39,0,3.39-.23,6.78-.23,3.62,0,3.62-.23,7-.23h7c3.4,0,3.4.23,7,.23,3.39,0,3.39.45,6.78.45,3.62,0,3.62-.22,7-.22h7c3.4,0,3.4-.46,6.79-.46,3.61,0,3.61-.22,7-.22a8.2,8.2,0,0,1,5.65,2.49c1.58,1.35,1.81,3.61,1.81,5.65C831.23,181.87,831.68,181.87,831.68,185.26Z"/><path class="cls-1" d="M250.72,586.91c0,5-.67,5-.67,10.42s.67,5.38.67,10.42a10.55,10.55,0,0,1-4,8.07c-2,2-4.71,4-7.73,4-6.06,0-6.06.34-11.77.34a34.47,34.47,0,0,1-11.09-2.36c-3.7-1.68-6.73-4.37-9.08-6.38-3.7-3.7-3.7-3.7-7.4-7.06-3.69-3.7-3.36-4-7.05-7.73-3.7-3.36-4-3-7.74-6.73-3.36-3.36-3.36-3.69-7.05-7.06-3.7-3.69-4.38-3-8.07-6.38-3.36-3.7-3.7-3.36-7.4-7.06-3.7-3.36-3.7-3.36-7.39-7.06-3.7-3.36-3-4-6.73-7.73-3.36-3.36-3.36-3.7-7.06-7.06l-7.39-7.4c-3.36-3.36-4-3-7.73-6.38-3.7-3.7-3.37-3.7-7.06-7.4-3.7-3.36-3.7-3.36-7.4-7.06-3.7-3.36-4-3-7.73-6.39-3.7-3.69-3.36-4-7.06-7.39-3.7-3.7-4-3.36-7.73-6.72-3.7-3.7-3.36-3.7-7.06-7.4-3.7-3.36-3.36-4-6.72-7.39-4.71-4.71-8.74-2.69-8.74,4,0,4.71-.34,4.71-.34,9.75v10.08c0,5,.67,5,.67,10.09s-1,5-1,10.08v9.75c0,5,.68,5,.68,10.09V558c0,5-.68,5-.68,9.75,0,5,.68,5,.68,10.08s.33,5,.33,10.09-.33,5-.33,10.08c0,4.71-.68,4.71-.68,9.75,0,3.36-.67,6.39-2.68,8.74-1.25,1.45-3.4,2.17-5.2,2.56a48.16,48.16,0,0,1-7.19.75c-2.52.17-5.06.39-7.59.39H33.9c-2.56,0-5.13-.13-7.68-.36a28.62,28.62,0,0,1-5.88-.88,12.29,12.29,0,0,1-4.93-3.13c-2-2-4.37-4.71-4.37-8.07,0-5.38.34-5,.34-10.42V586.57c0-5.38.67-5.38.67-10.42,0-5.38.34-5.38.34-10.76,0-5-.34-5-.34-10.42s-.67-5.37-.67-10.75V533.8c0-5.38,1-5.38,1-10.76,0-5-1-5-1-10.42s.67-5.38.67-10.42V491.44c0-5.38-.67-5.38-.67-10.42,0-5.38.67-5.38.67-10.76,0-5-.34-5-.34-10.42S11,454.46,11,449.09c0-5,.67-5,.67-10.42s.34-5.38.34-10.42V396.31a10.91,10.91,0,0,1,11.43-11.09c7.39,0,7.39-1,14.79-1a34.77,34.77,0,0,1,11.1,2.35c3.36,1.35,6.38,4.37,8.73,6.39,4,3.7,3.7,4,7.4,7.73s4.71,3,8.4,6.72c3.7,3.36,3.36,3.7,7.4,7.4,3.7,3.7,3.36,4,7.06,7.73,4,3.7,4,3.7,7.73,7.4s4.37,3,8.07,6.38c4,3.7,3.36,4.37,7.06,8.07,4,3.7,4,3.36,8.06,7.06,3.7,3.7,3.36,4,7.06,7.73,3.7,3.36,4,3.36,7.73,7.06l7.4,7.39c4,3.7,4,3.37,8.07,7.06,3.69,3.7,3.36,4,7.06,7.4,4,3.7,4.37,3.36,8.06,7.06s4,3.36,8.07,7.06c3.7,3.7,3,4.37,6.73,8.07,3.69,3.36,4.7,2.68,8.4,6.38,4.71,4.37,8.4,3.37,8.4-3.36V481.36c0-5.05-1-5.05-1-10.42s1-5.38,1-10.76-.33-5.38-.33-10.42c0-5.38-.34-5.38-.34-10.76s.67-5.38.67-10.75-.67-5.38-.67-10.43c0-5.37,1-5.37,1-10.75s-.34-5.38-.34-10.76c0-3,.68-6.39,2.69-8.4a13,13,0,0,1,8.74-3.7c5,0,5,1.34,10.42,1.34,5,0,5-.33,10.42-.33,5.05,0,5.05-1,10.43-1,3,0,5.37,2.35,7.73,4.37,2,2.35,3.7,4.7,3.7,7.73,0,5.38.33,5.38.33,10.76s-.33,5.38-.33,10.75c0,5.05-.34,5.05-.34,10.43s.34,5.37.34,10.42c0,5.37.66,5.37.66,10.75s-.66,5.38-.66,10.42c0,5.38-.34,5.38-.34,10.76v21.18c0,5,.34,5,.34,10.42s.33,5.38.33,10.75c0,5,.33,5,.33,10.43V533.8c0,5.38-.66,5.38-.66,10.75s.33,5.38.33,10.42c0,5.38.33,5.38.33,10.76v10.42C251.05,581.53,250.72,581.53,250.72,586.91Z"/><path class="cls-1" d="M430.57,444.09c0,3.87.24,3.87.24,7.49,0,3.87-.48,3.87-.48,7.49,0,2.42-.49,4.83-1.94,6.28-1.45,1.69-3.86,1.93-6.28,1.93-3.62,0-3.62.73-7.24.73s-3.63-.24-7.25-.24-3.62-.25-7.25-.25-3.62-.24-7.25-.24-3.62-.24-7.24-.24-3.63.73-7.25.73-3.62-.49-7.25-.49-3.62-.24-7.24-.24-3.63,1-7.25,1-3.62-.73-7.25-.73h-7.25c-3.62,0-3.62-.24-7.24-.24a9.26,9.26,0,0,0-6,2.66c-1.69,1.69-1.93,3.86-1.93,6.28v8.7c0,2.41.48,4.59,1.93,6a9.51,9.51,0,0,0,6,2.41c3.86,0,3.86.24,7.73.24s3.86-.24,7.73-.24c3.62,0,3.62.24,7.49.24s3.86-.48,7.73-.48,3.86-.24,7.48-.24c3.87,0,3.87.72,7.73.72s3.87-.72,7.73-.72c2.18,0,4.35,1.45,5.8,2.9,1.69,1.45,2.18,3.62,2.18,6v7.49c0,3.62.48,3.62.48,7.48v7.49a8.67,8.67,0,0,1-2.66,5.8c-1.45,1.45-3.62,2.9-5.8,2.9-3.86,0-3.86-.73-7.73-.73s-3.86.73-7.73.73c-3.62,0-3.62-.48-7.48-.48s-3.87.48-7.73.48-3.87-.48-7.73-.48c-3.63,0-3.63.24-7.49.24s-3.87-.24-7.73-.24a9.15,9.15,0,0,0-8.46,8.45c0,4.35.49,4.35.49,8.7,0,2.17.24,4.59,1.93,6a8,8,0,0,0,6,2.41h7.24c3.63,0,3.63.25,7.25.25s3.63-.73,7.25-.73h7.25c3.62,0,3.62,1,7.24,1s3.63-.73,7-.73c3.62,0,3.62.24,7.25.24s3.62.25,7.24.25,3.63-.73,7.25-.73,3.62.24,7.25.24,3.62.49,7.24.49h7a7.16,7.16,0,0,1,5.8,2.41,8.11,8.11,0,0,1,2.66,5.56v7.49c0,3.86-.25,3.86-.25,7.48v7.49a7.54,7.54,0,0,1-8.21,8.22c-3.63,0-3.63-.24-7.25-.24-3.86,0-3.86.24-7.49.24s-3.62.72-7.49.72c-3.62,0-3.62-.24-7.24-.24h-7.49c-3.63,0-3.63-.24-7.49-.24H347.71c-3.63,0-3.63-.48-7.49-.48-3.62,0-3.62.72-7.25.72-3.86,0-3.86-.72-7.49-.72s-3.62.72-7.24.72c-3.87,0-3.87-.48-7.49-.48s-3.63.24-7.49.24H296a9,9,0,0,1-6-2.42,9.25,9.25,0,0,1-2.65-6c0-3.86.48-3.86.48-7.49,0-3.86.24-3.86.24-7.73s-.24-3.86-.24-7.48c0-3.87-.48-3.87-.48-7.73V542.9c0-3.63.72-3.63.72-7.49s-.72-3.87-.72-7.73v-15c0-3.87.72-3.87.72-7.73s-1-3.87-1-7.49c0-3.87.73-3.87.73-7.73,0-3.62-.73-3.62-.73-7.49v-7.73c0-3.62.73-3.62.73-7.49s.24-3.86.24-7.49c0-3.86-.48-3.86-.48-7.73,0-3.62-.24-3.62-.24-7.49s.24-3.86.24-7.73a8.09,8.09,0,0,1,2.65-5.55c1.69-1.45,3.39-3.14,5.8-3.14,3.62,0,3.62.48,7.49.48,3.62,0,3.62.48,7.25.48,3.86,0,3.86-1,7.49-1,3.86,0,3.86.24,7.48.24s3.63.24,7.49.24H348c3.62,0,3.62.24,7.49.24,3.62,0,3.62-.24,7.24-.24,3.87,0,3.87-.24,7.49-.24h7.49c3.63,0,3.63.24,7.49.24,3.62,0,3.62.48,7.25.48,3.86,0,3.86-.24,7.49-.24h7.49c3.62,0,3.62-.48,7.24-.48,3.87,0,3.87-.24,7.49-.24a8.76,8.76,0,0,1,6,2.65c1.69,1.45,1.94,3.87,1.94,6C430.09,440.47,430.57,440.47,430.57,444.09Z"/><path class="cls-1" d="M639.87,555.91a28.91,28.91,0,0,1,.26,16.13c-.52,2.81-2,5.12-3.08,7.68a46,46,0,0,1-3.58,7.16,38.31,38.31,0,0,1-4.86,6.4c-1.79,1.79-3.59,4.1-5.63,5.89-2.05,1.53-4.61,3.07-6.91,4.61-2.31,1.27-4.87,2-7.17,3.32-2.56,1.28-4.61,3.33-7.17,4.35a64.61,64.61,0,0,1-7.68,2.56c-2.55.77-5.37,1-7.93,1.79-2.56.52-5.12,1.54-7.94,2.05-2.56.51-5.37.77-7.93,1.28-2.82.26-5.63-.51-8.19-.25-2.82,0-5.38,1-8.19,1s-5.38-1-8.19-1-5.38.51-8.19.25c-2.82,0-5.38-.25-8.19-.51s-5.38-1-7.94-1.28c-2.81-.51-5.63-.26-8.19-.77-2.81-.51-5.63-1.28-8.19-1.79s-5.11-1.53-7.67-2l-7.94-2.3c-2.81-.77-5.63-1-8.19-1.79-2.56-1-4.86-2.56-7.42-3.59L466.34,602c-2.82-1.28-5.63-1.79-7.68-2.81a8.43,8.43,0,0,1-3.84-5.63,7.82,7.82,0,0,1,1.28-6.66c2-3.32,2.81-3.07,4.86-6.14,2.3-3.33,1.79-3.58,4.1-6.91s2.81-3.07,4.86-6.14a9.86,9.86,0,0,1,5.63-4.1,10.88,10.88,0,0,1,6.91.77c2.05,1,4.61,2,7.42,3.33,2.31.76,5.12,1.28,7.94,2.3,2.3.77,4.86,1.79,7.68,2.56a73.77,73.77,0,0,0,7.93,1.54c2.56.51,5.38.76,8.19,1.28,2.56.25,5.12,1.28,7.93,1.53,2.56.26,5.38,0,8.19.26l7.94.76c2.81,0,5.37-.25,8.19-.25s5.63,0,8.45-.26c2.81,0,5.63.26,8.19,0,3.07-.51,5.88-.76,8.44-1.28,3.08-.76,5.64-1.28,8.19-2a26.47,26.47,0,0,0,7.17-4.1c3.07-2,5.12-4.09,5.12-6.4,0-1.79-2.3-3.33-5.63-4.86-2-1-4.61-1.79-7.17-2.82-2.56-.51-4.86-2-7.42-2.56-2.56-.76-5.12-1.28-7.68-1.79s-5.12-.77-7.68-1.28-5.37-.51-7.67-.77c-2.82-.51-5.38-1.27-7.69-1.53-2.55-.51-5.11-.51-7.67-1-2.31-.26-4.87-1.54-7.43-1.8-2.3-.51-4.86-.76-7.42-1.28-2.56-.76-5.12-1.53-7.42-2-2.56-.52-5.12-.52-7.68-1.28s-4.61-2.31-6.91-3.07a61.88,61.88,0,0,1-7.42-2.31c-2.56-1-4.35-2.56-6.66-3.84a55.75,55.75,0,0,1-6.4-4.09c-2-1.54-4.6-2.56-6.14-4.35-1.79-2-2.81-4.35-4.35-6.66a41.73,41.73,0,0,1-3.84-6.65,34.86,34.86,0,0,1-1.28-7.43c-.51-2.56-1.53-4.86-1.53-7.67s.76-5.38,1.28-8.19c.51-2.56,1.79-4.87,2.81-7.43a38.11,38.11,0,0,1,4.1-6.91,39.93,39.93,0,0,1,5.12-6.4c1.79-2,3.32-4.09,5.63-5.63a44.53,44.53,0,0,1,6.65-4.86,46.53,46.53,0,0,1,7.17-3.58c2.3-1.28,4.35-3.07,6.91-4.1s5.37-1.28,7.93-2.3c2.56-.77,5.12-1.54,7.68-2,2.82-.77,5.38-1,8.19-1.54a72.6,72.6,0,0,1,7.93-1.27c2.56-.52,5.38-1,7.94-1.28,2.81,0,5.37.25,8.19.25s5.37-.25,7.93-.25,5.12.51,7.68.51l7.68.77c2.82.25,5.38,0,7.93.51a61.69,61.69,0,0,1,7.69,1c2.81.51,5.11,1.54,7.67,2.05,2.56.77,5.38,1,7.68,1.79l7.42,2.3c2.82,1,4.87,2.56,6.91,3.33,2.31,1,4.61,2,5.12,4.35.52,2.05-.51,4.35-1.79,6.4-2,3.33-1.53,3.84-3.58,7.17s-1.79,3.32-3.84,6.91l-4.1,6.65c-2.55,4.35-8.19,5.89-13,4.35-2.05-.76-4.61-1-7.68-1.79-2.3-.51-4.86-1.53-7.68-2-2.55-.51-5.11-.51-7.93-1-2.56-.26-5.12-.77-7.94-1-2.56-.26-5.37-.26-8.19-.26-2.56,0-5.12-.77-7.93-.77a79.67,79.67,0,0,0-8.19.77,79.67,79.67,0,0,0-8.19.77c-3.07.51-5.89.25-8.45.77a34.35,34.35,0,0,0-7.68,2.81c-3.07,1-5.88,1.79-7.67,3.07-3.33,1.79-5.12,4.1-5.12,6.15s2.81,3.07,6.4,4.35c2.3,1,4.6,2.56,7.67,3.32,2.56.52,5.38.26,8.19.77l8.19,1.28c2.82.26,5.64,1,8.19,1.28,2.82.51,5.64.51,7.94,1a74.25,74.25,0,0,1,7.93,1.54l8.2,1.54,7.67,1.53a70.81,70.81,0,0,1,7.94,2c2.56.51,5.12,1.54,7.67,2.3a70.77,70.77,0,0,1,7.94,2.31c2.56,1,5.12,1.53,7.68,2.56,2.3,1.28,4.35,3.07,6.65,4.35a77.77,77.77,0,0,1,6.91,4.35c2,1.79,4.36,3.33,6.15,5.37,1.79,1.8,2.81,4.36,4.35,6.66,1.28,2.3,3.07,4.35,4.09,6.91A71.85,71.85,0,0,1,639.87,555.91Z"/><path class="cls-1" d="M833,369.44c0,6.34.39,6.34.39,12.27V394c0,6.33-.39,6.33-.39,12.26a14.06,14.06,0,0,1-4,9.89c-2.77,2.38-5.93,4.75-9.89,4.75H806.48c-6.33,0-6.33-.79-12.66-.79s-6.34.79-12.27.79c-6.33,0-6.33-.4-12.66-.4H756.23c-6.34,0-6.34.4-12.67.4a14.18,14.18,0,0,0-9.49,3.56,13.14,13.14,0,0,0-4,9.5c0,6.33.4,6.33.4,12.26,0,6.33-.4,6.33-.4,12.27,0,6.33-.39,6.33-.39,12.66,0,5.94.79,5.94.79,12.27v12.26c0,6.33-.4,6.33-.4,12.27v24.53c0,6.33-.39,6.33-.39,12.66,0,5.94-.4,5.94-.4,12.27v12.26c0,6.34.79,6.34.79,12.27v12.27c0,6.33-.79,6.33-.79,12.26,0,6.33.4,6.33.4,12.66a13.52,13.52,0,0,1-13.46,13.46c-6.33,0-6.33.79-12.26.79-6.33,0-6.33-.4-12.27-.4-6.33,0-6.33.4-12.27.4-4,0-6.72-2.77-9.09-5.15a11.83,11.83,0,0,1-4.36-9.1V606.45c0-5.93-.79-5.93-.79-12.26s1.19-6.34,1.19-12.27c0-6.33-.79-6.33-.79-12.27,0-6.33-.4-6.33-.4-12.66,0-5.93.79-5.93.79-12.26,0-5.94.4-5.94.4-12.27,0-5.93-1.58-5.93-1.58-12.27s.79-6.33.79-12.26c0-6.33.39-6.33.39-12.27,0-6.33-.79-6.33-.79-12.66,0-5.93.4-5.93.4-12.27V458.47c0-5.94-.79-5.94-.79-12.27s1.58-6.33,1.58-12.26a13.19,13.19,0,0,0-4.75-9.89c-2.38-2.77-5.93-3.57-9.89-3.57-6.33,0-6.33-1.18-12.66-1.18H626.05c-6.33,0-6.33,1.18-12.66,1.18s-6.33.4-12.66.4-6.33-.4-13.06-.4c-6.33,0-6.33.4-12.66.4-3.56,0-7.12-2.37-9.89-4.75-2.38-2.37-3.17-5.93-3.17-9.89,0-5.93-.79-5.93-.79-12.26,0-5.94-.4-5.94-.4-12.27,0-5.93.8-5.93.8-12.27a12.25,12.25,0,0,1,4-9.49c2.38-2.38,5.94-4.75,9.5-4.75,6.33,0,6.33.79,12.26.79,6.33,0,6.33-.39,12.27-.39s5.93.39,12.27.39c5.93,0,5.93-.79,12.26-.79,5.94,0,5.94,1.19,12.27,1.19,5.93,0,5.93-1.19,12.26-1.19h11.87c6.33,0,6.33.4,12.27.4H685c5.93,0,5.93.39,12.26.39H721.8c5.94,0,5.94-.39,11.87-.39,6.33,0,6.33-.4,12.27-.4,6.33,0,6.33.79,12.26.79s5.94-.79,12.27-.79c5.94,0,5.94,1.19,12.27,1.19,5.93,0,5.93-.79,11.86-.79,6.34,0,6.34-.4,12.27-.4,6.33,0,6.33,1.19,12.27,1.19,4,0,7.91.39,10.28,3.16C831.8,361.93,833,365.88,833,369.44Z"/></svg>